<?xml version="1.0" standalone="no"?>
<!DOCTYPE svg PUBLIC "-//W3C//DTD SVG 1.1//EN" "http://www.w3.org/Graphics/SVG/1.1/DTD/svg11.dtd" >
<svg xmlns="http://www.w3.org/2000/svg" xmlns:xlink="http://www.w3.org/1999/xlink" version="1.1">
<metadata>
Created by FontForge 20170731 at Wed Apr  6 23:25:38 2022
 By Aleksey,,,
Published by Die Gestalten Verlag GmbH &#38; Co. KG, 2008
Copyright (c) by Binnenland and re-p.org, 2008. All rights reserved. This software may not be reproduced, used, displayed, modified, disclosed or transferred without the express written approval of (Binnenland). 
</metadata>
<defs>
<font id="Blender-Thin" horiz-adv-x="1011" >
  <font-face 
    font-family="Blender Thin"
    font-weight="250"
    font-stretch="normal"
    units-per-em="2048"
    panose-1="2 0 4 6 3 0 0 2 0 4"
    ascent="1638"
    descent="-410"
    x-height="881"
    cap-height="1217"
    bbox="-143 -352 1812 1726"
    underline-thickness="40"
    underline-position="-312"
    unicode-range="U+000D-FB02"
  />
<missing-glyph horiz-adv-x="2048" 
 />
    <glyph glyph-name=".notdef" horiz-adv-x="2048" 
 />
    <glyph glyph-name=".null" horiz-adv-x="0" 
 />
    <glyph glyph-name="nonmarkingreturn" horiz-adv-x="682" 
 />
    <glyph glyph-name="CR" unicode="&#xd;" horiz-adv-x="1024" 
 />
    <glyph glyph-name="space" unicode=" " horiz-adv-x="460" 
 />
    <glyph glyph-name="exclam" unicode="!" horiz-adv-x="419" 
d="M186 377h-69v840h69v-840zM213 0h-121v129h121v-129z" />
    <glyph glyph-name="quotedbl" unicode="&#x22;" horiz-adv-x="749" 
d="M524 1051l-10 -105h-70l13 131v244h67v-270zM233 1051l-10 -105h-69l12 131v244h67v-270z" />
    <glyph glyph-name="numbersign" unicode="#" horiz-adv-x="1062" 
d="M858 817l-10 -69h-182l-50 -287h183l-11 -70h-184l-39 -229h-71l38 229h-221l-39 -229h-73l39 229h-183l11 70h182l49 287h-182l10 69h182l39 221h74l-39 -221h223l39 221h70l-37 -221h182zM590 748h-219l-49 -287h219z" />
    <glyph glyph-name="dollar" unicode="$" horiz-adv-x="1093" 
d="M911 246q0 -51 -22 -90q-15 -24 -61.5 -72t-71.5 -66q-51 -30 -90 -30h-134v-178h-67v178h-137q-41 0 -92 30q-80 51 -150 181l74 20q24 -42 65.5 -88t71.5 -63q18 -9 37 -9h131v523l-264 75q-49 13 -81 64t-32 113v131q0 53 21 90q16 26 62.5 75.5t70.5 63.5
q52 31 90 31h133v161h67v-161h107q38 0 90 -31q80 -51 154 -180l-74 -23q-19 41 -61.5 87.5t-75.5 66.5q-16 8 -39 8h-101v-512l265 -76q50 -13 82 -62t32 -110v-147zM762 500l-230 63v-504h125q20 0 35 9q30 16 73 58.5t64 78.5q9 18 9 43v131q0 40 -20 75.5t-56 45.5z
M162 840q0 -38 21 -71.5t55 -43.5l227 -66v494h-123q-21 0 -37 -8q-29 -16 -72.5 -60t-64.5 -81q-6 -15 -6 -39v-125z" />
    <glyph glyph-name="percent" unicode="%" horiz-adv-x="1353" 
d="M1001 1229l-622 -1229h-76l625 1229h73zM760 92q-19 27 -19 74v254q0 47 19 74q37 49 65 71q37 29 82 29h148q45 0 82 -29q28 -22 65 -71q19 -27 19 -74v-254q0 -47 -19 -74q-39 -51 -65 -72q-36 -28 -82 -28h-148q-46 0 -82 28q-26 21 -65 72zM807 174q0 -23 4 -31
q8 -19 31 -43.5t37 -33.5q15 -9 32 -9h140q17 0 32 9q14 9 37 33.5t31 43.5q4 8 4 31v238q0 22 -4 30q-8 19 -31 44t-37 34q-13 8 -32 8h-140q-19 0 -32 -8q-14 -9 -37 -34t-31 -44q-4 -8 -4 -30v-238zM90 725q-18 26 -18 74v254q0 47 18 73q37 50 66 72q37 29 82 29h147
q45 0 82 -29q26 -21 65 -72q19 -27 19 -73v-254q0 -47 -19 -74q-39 -51 -65 -72q-36 -28 -82 -28h-147q-46 0 -82 28q-29 22 -66 72zM137 807q0 -23 4 -31q8 -19 31 -44t37 -34q13 -8 33 -8h139q20 0 33 8t36 33.5t31 44.5q4 8 4 31v237q0 23 -4 31q-8 19 -31 44.5t-36 33.5
t-33 8h-139q-20 0 -33 -8q-14 -9 -37 -34t-31 -44q-4 -8 -4 -31v-237z" />
    <glyph glyph-name="ampersand" unicode="&#x26;" horiz-adv-x="1085" 
d="M969 463h-144v-238q0 -52 -26 -94q-10 -16 -44.5 -54.5t-52.5 -51.5q-44 -35 -110 -35h-305q-63 0 -107 35q-18 13 -52 51.5t-44 54.5q-27 44 -27 94v193q0 52 27 92q18 27 48.5 59t51.5 45q-18 9 -49 46t-43 57q-26 39 -26 96v172q0 54 26 98q25 43 96 105q47 37 107 37
h190q41 0 93 -31q79 -49 153 -182l-74 -21q-23 48 -61.5 91.5t-75.5 64.5q-12 8 -41 8h-182q-27 0 -45 -10q-24 -14 -58.5 -50.5t-46.5 -60.5q-10 -23 -10 -45v-172q0 -22 10 -45q16 -32 44 -65t53 -48q21 -12 45 -12h235v-67h-237q-22 0 -45 -13q-27 -16 -58 -47t-45 -61
q-10 -20 -10 -43v-187q0 -23 10 -43q15 -30 47.5 -65.5t59.5 -50.5q19 -11 45 -11h301q28 0 47 11q26 15 57.5 50t46.5 66q11 22 11 43v306h215v-72z" />
    <glyph glyph-name="quotesingle" unicode="'" horiz-adv-x="454" 
d="M233 1051l-10 -105h-69l12 131v244h67v-270z" />
    <glyph glyph-name="parenleft" unicode="(" horiz-adv-x="669" 
d="M395 -31l-51 -53l-162 164q-57 57 -78 92q-22 34 -22 90v703q0 54 22 88q27 45 78 96l162 164l49 -53l-157 -160q-59 -59 -78 -96q-4 -7 -4 -43v-695q0 -33 6 -43q19 -37 78 -96z" />
    <glyph glyph-name="parenright" unicode=")" horiz-adv-x="671" 
d="M451 262q0 -51 -25 -90q-21 -35 -78 -92l-164 -164l-47 53l158 158q59 59 78 96q6 10 6 43v695q0 33 -6 43q-23 45 -74 96l-158 160l43 53l164 -164q51 -51 78 -96q25 -39 25 -88v-703z" />
    <glyph glyph-name="asterisk" unicode="*" horiz-adv-x="935" 
d="M731 1049l-268 -82l170 -226l-62 -43l-163 234l-164 -234l-62 43l168 226l-266 82l22 71l267 -92l-2 285h73l-4 -285l269 92z" />
    <glyph glyph-name="plus" unicode="+" horiz-adv-x="1060" 
d="M799 475h-307v-325h-70v325h-307v70h307v325h70v-325h307v-70z" />
    <glyph glyph-name="comma" unicode="," horiz-adv-x="419" 
d="M215 131l-117 -309h-82l123 338z" />
    <glyph glyph-name="hyphen" unicode="-" horiz-adv-x="708" 
d="M514 475h-438v68h438v-68z" />
    <glyph glyph-name="period" unicode="." horiz-adv-x="440" 
d="M219 0h-125v133h125v-133z" />
    <glyph glyph-name="slash" unicode="/" horiz-adv-x="845" 
d="M733 1217l-616 -1217h-78l618 1217h76z" />
    <glyph glyph-name="zero" unicode="0" 
d="M811 223q0 -51 -27 -94q-10 -16 -44 -54.5t-52 -51.5q-44 -35 -108 -35h-273q-62 0 -106 35q-18 13 -52.5 51.5t-44.5 54.5q-26 42 -26 94v766q0 54 26 96q10 16 44.5 55t52.5 52q44 35 106 35h273q64 0 108 -35q18 -13 52 -51.5t44 -55.5q27 -43 27 -96v-766zM737 227
v758q0 26 -8 45q-15 30 -46 64t-58 49q-21 12 -47 12h-269q-26 0 -47 -12q-27 -15 -58 -49t-46 -64q-6 -14 -6 -45v-758q0 -29 6 -43q15 -30 46.5 -64.5t57.5 -49.5q19 -11 47 -11h269q28 0 47 11q26 15 57.5 49.5t46.5 64.5q8 16 8 43z" />
    <glyph glyph-name="one" unicode="1" 
d="M784 0h-641v72h295v1073h-295v72h369v-1145h272v-72z" />
    <glyph glyph-name="two" unicode="2" horiz-adv-x="1009" 
d="M811 840q0 -119 -115 -178l-442 -232q-78 -41 -78 -121v-237h619v-72h-693v319q0 113 117 175l445 231q73 39 73 119v141q0 26 -8 45q-15 31 -45.5 65.5t-56.5 49.5q-18 10 -49 10h-240q-28 0 -43 -10q-33 -19 -73 -64.5t-60 -87.5l-72 25q65 120 148 178q47 31 92 31
h250q64 0 108 -35q18 -13 52 -51.5t44 -55.5q27 -43 27 -96v-149z" />
    <glyph glyph-name="three" unicode="3" horiz-adv-x="1009" 
d="M811 223q0 -53 -27 -96q-10 -17 -44 -55.5t-52 -51.5q-43 -34 -106 -34h-254q-46 0 -90 32q-38 28 -81 79.5t-67 95.5l74 24q24 -40 64.5 -85.5t70.5 -63.5q18 -9 37 -9h244q28 0 47 11q26 15 56.5 48t45.5 64q8 16 8 43v189q0 27 -8 43q-15 30 -46 62.5t-58 47.5
q-22 13 -43 13h-258v71h256q31 0 45 8q27 15 58 48t46 63q8 19 8 45v170q0 26 -8 45q-16 31 -47 67t-57 50q-14 8 -47 8h-242q-27 0 -43 -8q-31 -18 -69.5 -64.5t-61.5 -89.5l-72 23q74 129 150 182q45 29 90 29h252q62 0 106 -35q18 -13 52 -51.5t44 -55.5q27 -43 27 -96
v-178q0 -53 -27 -94q-6 -11 -16 -22.5t-18 -20t-28 -27.5t-34 -33q15 -15 34 -33t28 -26.5t18.5 -20t15.5 -22.5q27 -41 27 -94v-195z" />
    <glyph glyph-name="four" unicode="4" 
d="M850 287h-131v-287h-74v287h-575v71l503 859h146v-859h131v-71zM645 358v793h-31l-462 -793h493z" />
    <glyph glyph-name="five" unicode="5" 
d="M815 225q0 -53 -27 -96q-10 -16 -44 -54.5t-52 -51.5q-44 -35 -108 -35h-258q-42 0 -93 30q-38 24 -80 77t-71 104l74 20q63 -108 135 -151q18 -9 39 -9h252q30 0 49 11q26 15 56.5 49t45.5 65q8 16 8 43v242q0 28 -8 47q-15 30 -45 63t-57 48q-17 10 -49 10h-451v580
h621v-72h-547v-436h383q63 0 108 -37q18 -14 50.5 -50.5t41.5 -52.5q27 -43 27 -94v-250z" />
    <glyph glyph-name="six" unicode="6" 
d="M811 225q0 -53 -27 -96q-10 -16 -44 -54.5t-52 -51.5q-44 -35 -106 -35h-273q-62 0 -106 35q-18 13 -52.5 51.5t-44.5 54.5q-26 42 -26 96v764q0 54 26 96q10 16 44.5 55t52.5 52q44 35 106 35h250q47 0 92 -29q84 -59 154 -180l-74 -23q-21 38 -63.5 85t-73.5 65
q-15 10 -41 10h-244q-27 0 -45 -10q-26 -14 -56 -48.5t-46 -66.5q-8 -19 -8 -45v-383q18 27 49 57t55 46q38 24 92 24h232q67 0 106 -33q19 -15 53 -51t43 -51q27 -46 27 -96v-273zM737 227v269q0 27 -8 43q-15 29 -44.5 60t-57.5 46q-21 12 -47 12h-232q-25 0 -45 -10
q-28 -16 -68.5 -53.5t-66.5 -75.5q-14 -21 -14 -35v-256q0 -27 8 -43q15 -30 46.5 -64.5t57.5 -49.5q19 -11 45 -11h269q28 0 47 11q26 15 56.5 49t45.5 65q8 16 8 43z" />
    <glyph glyph-name="seven" unicode="7" 
d="M803 1143l-522 -1143l-84 2l524 1141h-637v74h719v-74z" />
    <glyph glyph-name="eight" unicode="8" 
d="M817 225q0 -54 -26 -96q-10 -16 -44.5 -54.5t-52.5 -51.5q-44 -35 -106 -35h-275q-62 0 -106 35q-18 13 -52 51.5t-44 54.5q-27 43 -27 96v193q0 54 27 94q13 21 94 102q-70 67 -94 105q-27 40 -27 94v176q0 52 27 98q9 15 43 52.5t53 52.5q44 35 106 35h275
q62 0 106 -35q19 -15 53.5 -52.5t43.5 -52.5q26 -44 26 -98v-176q0 -55 -26 -94q-22 -35 -95 -105q83 -83 95 -102q26 -39 26 -94v-193zM743 817v168q0 26 -8 45q-15 31 -46.5 65.5t-57.5 49.5q-18 10 -45 10h-271q-29 0 -47 -10q-26 -14 -56 -48.5t-46 -66.5q-8 -19 -8 -45
v-168q0 -26 8 -45q16 -31 45.5 -65t56.5 -48q14 -8 47 -8h271q26 0 45 11q27 16 58 48t46 62q8 19 8 45zM743 227v187q0 27 -8 43q-15 30 -46 62t-58 48q-23 13 -45 13h-271q-24 0 -47 -13q-27 -15 -57 -47.5t-45 -62.5q-8 -16 -8 -43v-187q0 -27 8 -43q15 -31 45.5 -65
t56.5 -49q19 -11 47 -11h271q26 0 45 11q26 15 57.5 49.5t46.5 64.5q8 16 8 43z" />
    <glyph glyph-name="nine" unicode="9" 
d="M76 989q0 54 26 96q10 16 44.5 55t52.5 52q44 35 106 35h273q62 0 106 -35q18 -13 52 -51.5t44 -55.5q27 -43 27 -96v-764q0 -53 -27 -96q-10 -16 -44 -54.5t-52 -51.5q-44 -35 -106 -35h-250q-48 0 -92 28q-83 58 -154 181l74 22q21 -38 63 -84.5t74 -64.5
q17 -11 41 -11h244q26 0 45 11q26 14 56 48.5t46 65.5q8 19 8 45v383q-18 -27 -49 -56.5t-55 -45.5q-39 -25 -92 -25h-232q-67 0 -106 33q-19 15 -53.5 51.5t-43.5 51.5q-26 44 -26 96v272zM150 987v-268q0 -27 8 -43q15 -30 45 -61t57 -46q21 -12 47 -12h232q25 0 45 10
q28 16 68.5 53.5t66.5 75.5q14 21 14 35v256q0 27 -8 43q-15 31 -46.5 65.5t-57.5 49.5q-17 10 -46 10h-268q-29 0 -47 -10q-26 -15 -56.5 -49.5t-45.5 -65.5q-8 -16 -8 -43z" />
    <glyph glyph-name="colon" unicode=":" horiz-adv-x="440" 
d="M219 612h-125v133h125v-133zM219 0h-125v133h125v-133z" />
    <glyph glyph-name="semicolon" unicode=";" horiz-adv-x="432" 
d="M221 612h-125v133h125v-133zM215 131l-117 -309h-82l123 338z" />
    <glyph glyph-name="less" unicode="&#x3c;" horiz-adv-x="1468" 
d="M1257 582h-1081l555 -582h-92l-596 616l596 619h90l-553 -582h1081v-71z" />
    <glyph glyph-name="equal" unicode="=" horiz-adv-x="964" 
d="M750 606h-664v74h664v-74zM750 340h-664v74h664v-74z" />
    <glyph glyph-name="greater" unicode="&#x3e;" horiz-adv-x="1468" 
d="M1264 616l-596 -616h-90l555 582h-1084v71h1084l-558 582h93z" />
    <glyph glyph-name="question" unicode="?" horiz-adv-x="909" 
d="M780 840q0 -57 -31.5 -104t-82.5 -74l-134 -72q-31 -16 -54 -49.5t-23 -71.5v-111h-74v121q0 108 121 172l133 76q32 18 52 49t20 68l2 139q0 24 -9 45q-15 30 -47 65t-59 50q-18 10 -47 10h-240q-29 0 -41 -8q-33 -19 -75 -65.5t-62 -88.5l-72 23q70 129 150 180
q52 31 94 31h248q64 0 108 -35q18 -13 52.5 -52t44.5 -55q26 -42 26 -96v-147zM479 0h-121v129h121v-129z" />
    <glyph glyph-name="at" unicode="@" horiz-adv-x="1302" 
d="M815 1227q51 0 98 -29q69 -46 138 -143q24 -36 24 -97v-808l19 -150h-74l-16 123q-14 -18 -55 -51.5t-62 -46.5q-56 -35 -96 -35h-103q-77 0 -119 37q-19 15 -49 46.5t-45 51.5q-26 35 -26 100v418q0 65 28 100q45 54 92 99q45 37 119 37h103q39 0 94 -37
q71 -48 121 -103v222q0 28 -9 43q-22 36 -68 83.5t-71 61.5q-18 10 -41 10h-475q-28 0 -43 -10q-28 -19 -71 -64t-64 -81q-8 -13 -8 -43v-1037q0 -26 8 -39q23 -36 66.5 -79t72.5 -58q21 -12 41 -12h102l11 -72h-113q-52 0 -98 31q-25 18 -71.5 65.5t-68.5 75.5
q-22 32 -22 94v1028q0 70 20 95q21 27 68.5 76.5t73.5 68.5q39 29 98 29h471zM522 227q0 -34 8 -47q18 -32 49.5 -64.5t59.5 -47.5q17 -11 51 -11h94q21 0 43 11q42 22 97 62.5t75 78.5q7 14 7 24v400q0 10 -7 24q-21 36 -80.5 81.5t-95.5 62.5q-20 8 -39 8h-94
q-29 0 -49 -10q-29 -15 -61 -49.5t-50 -67.5q-8 -13 -8 -45v-410z" />
    <glyph glyph-name="A" unicode="A" horiz-adv-x="1048" 
d="M932 0h-78l-94 291h-592l-96 -291h-76l393 1217h150zM739 362l-247 785h-58l-246 -785h551z" />
    <glyph glyph-name="B" unicode="B" horiz-adv-x="1085" 
d="M877 236q0 -53 -25 -95q-10 -16 -45 -54.5t-53 -51.5q-44 -35 -107 -35h-545v1217h545q60 0 107 -37q19 -15 54 -52.5t44 -52.5q25 -42 25 -98v-164q0 -54 -25 -96q-22 -38 -94 -103q73 -66 94 -102q25 -42 25 -96v-180zM803 815v160q0 27 -8 43q-15 30 -47.5 66
t-59.5 51q-18 10 -47 10h-465v-496h473q21 0 43 13q27 15 57.5 46.5t45.5 61.5q8 19 8 45zM803 240v176q0 27 -8 43q-15 30 -45.5 61.5t-59.5 46.5q-16 11 -43 11h-471v-506h465q29 0 47 10q27 15 59.5 50t47.5 65q8 16 8 43z" />
    <glyph glyph-name="C" unicode="C" horiz-adv-x="1058" 
d="M881 199q-72 -126 -154 -181q-51 -30 -90 -30h-289q-41 0 -92 30q-24 14 -69.5 63t-61.5 75q-23 36 -23 88v727q0 52 23 88q16 26 61.5 75.5t69.5 63.5q48 31 90 31h291q38 0 90 -31q42 -28 83 -78t71 -102l-72 -23q-25 44 -66 89.5t-73 64.5q-16 8 -39 8h-281
q-19 0 -35 -8q-28 -15 -68 -56.5t-61 -78.5q-10 -17 -10 -47v-723q0 -17 10 -37q21 -37 63 -80.5t70 -58.5q18 -9 35 -9h279q19 0 37 9q30 18 70.5 64t64.5 87z" />
    <glyph glyph-name="D" unicode="D" horiz-adv-x="1083" 
d="M879 256q0 -47 -23 -88q-20 -31 -61 -74.5t-70 -62.5q-51 -31 -90 -31h-533v1217h533q45 0 90 -29q24 -15 70 -64.5t61 -76.5q23 -41 23 -89v-702zM805 256v700q0 27 -8 41q-22 39 -61 82t-66 58q-16 8 -37 8h-457v-1073h451q21 0 37 8q28 15 70 58.5t63 80.5q8 16 8 37z
" />
    <glyph glyph-name="E" unicode="E" horiz-adv-x="1005" 
d="M774 0h-672v1217h672v-72h-598v-496h559v-71h-559v-506h598v-72z" />
    <glyph glyph-name="F" unicode="F" horiz-adv-x="950" 
d="M774 1145h-598v-496h561v-71h-561v-578h-74v1217h672v-72z" />
    <glyph glyph-name="G" unicode="G" horiz-adv-x="1169" 
d="M954 0h-67l-15 123q-50 -60 -102 -98q-42 -31 -90 -31h-332q-40 0 -92 31q-24 14 -69.5 62.5t-61.5 74.5q-23 36 -23 88v719q0 54 23 90q15 24 62.5 72.5t72.5 66.5q46 31 88 31h334q46 0 92 -31q78 -55 152 -180l-74 -23q-23 42 -64.5 88.5t-72.5 65.5q-16 8 -39 8h-320
q-18 0 -34 -8q-29 -16 -74 -60t-66 -81q-6 -10 -6 -41v-715q0 -25 6 -37q21 -37 66 -81t74 -60q16 -8 36 -8h316q21 0 37 8q31 17 74 57.5t63 77.5q8 16 8 39v330h-299v71h373l2 -459q10 -98 22 -190z" />
    <glyph glyph-name="H" unicode="H" horiz-adv-x="1116" 
d="M887 0h-74v578h-637v-578h-74v1217h74v-568h637v568h74v-1217z" />
    <glyph glyph-name="I" unicode="I" horiz-adv-x="405" 
d="M176 0h-74v1217h74v-1217z" />
    <glyph glyph-name="J" unicode="J" horiz-adv-x="876" 
d="M668 248q0 -51 -25 -90q-16 -26 -60.5 -75t-68.5 -63q-51 -30 -92 -30h-158q-41 0 -92 30q-64 41 -152 181l72 20q31 -48 70.5 -94t66.5 -57q18 -9 41 -9h148q20 0 35 9q28 15 68.5 58t62.5 81q10 25 10 37v971h74v-969z" />
    <glyph glyph-name="K" unicode="K" horiz-adv-x="987" 
d="M854 0h-98l-529 573h-51v-573h-74v1217h74v-576h51l527 576h94l-557 -609z" />
    <glyph glyph-name="L" unicode="L" horiz-adv-x="911" 
d="M762 0h-660v1217h74v-1145h586v-72z" />
    <glyph glyph-name="M" unicode="M" horiz-adv-x="1306" 
d="M1077 0h-73v1151h-23l-369 -811h-47l-368 807h-21v-1147h-74v1217h144l342 -762l344 762h145v-1217z" />
    <glyph glyph-name="N" unicode="N" horiz-adv-x="1105" 
d="M877 0h-142l-538 1149h-21v-1149h-74v1217h142l540 -1147h19v1147h74v-1217z" />
    <glyph glyph-name="O" unicode="O" horiz-adv-x="1140" 
d="M936 246q0 -54 -23 -90q-16 -26 -61.5 -75t-69.5 -63q-51 -30 -92 -30h-344q-39 0 -90 30q-25 18 -71.5 66t-61.5 72q-21 33 -21 90v723q0 51 21 88q15 25 61.5 74.5t71.5 66.5q47 31 90 31h344q45 0 92 -31q25 -17 70.5 -65.5t60.5 -73.5q23 -41 23 -90v-723zM862 246
v725q0 27 -8 41q-21 37 -62.5 79t-70.5 58q-16 8 -37 8h-330q-19 0 -35 -8q-29 -16 -70.5 -58t-62.5 -79q-10 -17 -10 -41v-727q0 -26 8 -39q21 -34 66.5 -79t68.5 -58q18 -9 35 -9h330q19 0 37 9q28 15 69 57t64 80q8 13 8 41z" />
    <glyph glyph-name="P" unicode="P" horiz-adv-x="1046" 
d="M879 803q0 -51 -27 -94q-10 -16 -45 -53.5t-55 -51.5q-48 -33 -105 -33h-471v-571h-74v1217h545q61 0 105 -35q19 -14 55 -52.5t45 -54.5q27 -43 27 -96v-176zM805 805v170q0 26 -8 45q-15 30 -46.5 64t-58.5 49q-21 12 -47 12h-469v-502h469q27 0 45 10q29 16 62 48
t47 61q6 14 6 43z" />
    <glyph glyph-name="Q" unicode="Q" horiz-adv-x="1140" 
d="M938 246q0 -54 -23 -90q-16 -26 -61.5 -75t-69.5 -63q-51 -30 -92 -30h-45l74 -185h-72l-71 185h-230q-39 0 -90 30q-25 18 -71.5 66t-61.5 72q-21 33 -21 90v723q0 51 21 88q15 25 61.5 74.5t71.5 66.5q46 31 90 31h344q46 0 92 -31q25 -17 70.5 -65.5t60.5 -73.5
q23 -41 23 -90v-723zM864 246v725q0 27 -8 41q-21 37 -62.5 79t-70.5 58q-16 8 -37 8h-330q-18 0 -34 -8q-29 -16 -71 -58t-63 -79q-10 -17 -10 -41v-727q0 -26 8 -39q21 -33 67 -78.5t69 -58.5q18 -9 34 -9h191l-29 74l64 23l39 -97h65q19 0 37 9q28 15 69 57t64 80
q8 13 8 41z" />
    <glyph glyph-name="R" unicode="R" horiz-adv-x="1114" 
d="M879 803q0 -51 -27 -94q-10 -16 -45 -53.5t-55 -51.5q-48 -33 -105 -33h-49l328 -571h-84l-328 571h-338v-571h-74v1217h545q61 0 105 -35q19 -14 55 -52.5t45 -54.5q27 -43 27 -96v-176zM805 805v170q0 26 -8 45q-15 30 -46.5 64t-58.5 49q-21 12 -47 12h-469v-502h469
q27 0 45 10q29 16 62 48t47 61q6 14 6 43z" />
    <glyph glyph-name="S" unicode="S" horiz-adv-x="1105" 
d="M911 246q0 -51 -22 -90q-15 -24 -61.5 -72t-71.5 -66q-51 -30 -90 -30h-353q-50 0 -92 30q-39 29 -81 81t-68 100l73 20q23 -42 65 -88t73 -63q18 -9 36 -9h338q20 0 35 9q30 16 73 58.5t64 78.5q9 18 9 43v133q0 48 -17 78.5t-65 44.5l-549 155q-54 15 -86.5 64
t-32.5 113v133q0 53 21 90q15 24 61.5 73t71.5 66q46 31 90 31h307q38 0 90 -31q80 -51 154 -180l-74 -23q-19 41 -61.5 87.5t-75.5 66.5q-16 8 -39 8h-293q-21 0 -37 -8q-28 -15 -71 -59.5t-64 -81.5q-6 -15 -6 -39v-127q0 -95 78 -119l557 -156q54 -15 84 -62t30 -110
v-149z" />
    <glyph glyph-name="T" unicode="T" horiz-adv-x="929" 
d="M786 1145h-356v-1145h-74v1145h-356v72h786v-72z" />
    <glyph glyph-name="U" unicode="U" horiz-adv-x="1077" 
d="M868 244q0 -49 -22 -88q-16 -26 -61.5 -75t-69.5 -63q-51 -30 -90 -30h-293q-41 0 -92 30q-24 14 -69.5 63t-61.5 75q-23 36 -23 88v973h74v-975q0 -14 10 -39q21 -36 64 -77.5t73 -57.5q18 -9 35 -9h272q19 0 37 9q30 16 73 57.5t62 77.5q9 23 9 39v975h73v-973z" />
    <glyph glyph-name="V" unicode="V" horiz-adv-x="1024" 
d="M913 1217l-387 -1217h-149l-387 1217h78l362 -1145h45l361 1145h77z" />
    <glyph glyph-name="W" unicode="W" horiz-adv-x="1392" 
d="M1278 1217l-266 -1217h-131l-250 1108l-248 -1108h-133l-258 1217h74l237 -1143h29l256 1143h88l256 -1143h29l241 1143h76z" />
    <glyph glyph-name="X" unicode="X" horiz-adv-x="956" 
d="M823 1217l-368 -603l379 -614h-82l-336 549l-336 -549h-82l377 614l-367 603h80l328 -537l327 537h80z" />
    <glyph glyph-name="Y" unicode="Y" horiz-adv-x="911" 
d="M815 1217l-377 -674v-543h-73v543l-375 674h82l329 -599l332 599h82z" />
    <glyph glyph-name="Z" unicode="Z" horiz-adv-x="952" 
d="M782 0h-712v70l630 1075h-630v72h712v-74l-628 -1071h628v-72z" />
    <glyph glyph-name="bracketleft" unicode="[" horiz-adv-x="577" 
d="M352 0h-268v1217h268v-70h-196v-1077h196v-70z" />
    <glyph glyph-name="backslash" unicode="\" horiz-adv-x="845" 
d="M756 0h-78l-617 1217h76z" />
    <glyph glyph-name="bracketright" unicode="]" horiz-adv-x="565" 
d="M362 0h-270v70h197v1077h-197v70h270v-1217z" />
    <glyph glyph-name="asciicircum" unicode="^" horiz-adv-x="610" 
d="M37 647l182 570h88l180 -570h-71l-152 506l-158 -506h-69z" />
    <glyph glyph-name="underscore" unicode="_" horiz-adv-x="915" 
d="M772 -115h-700v68h700v-68z" />
    <glyph glyph-name="grave" unicode="`" horiz-adv-x="739" 
d="M512 1069l-63 -27l-218 275h86z" />
    <glyph glyph-name="a" unicode="a" horiz-adv-x="952" 
d="M764 0h-70l-16 115q-15 -21 -53.5 -52t-57.5 -43q-52 -30 -90 -30h-201q-65 0 -112 37q-19 14 -47 45.5t-39 50.5q-27 41 -27 100v43q0 62 27 103q11 18 39 49t47 45q47 37 112 37h398v155q0 29 -6 43q-15 30 -47 65t-58 50q-17 10 -47 10h-215q-24 0 -45 -12
q-30 -15 -94 -102l-68 26q63 90 103 121q44 35 110 35h209q68 0 115 -37q19 -14 48 -46t40 -50q24 -36 24 -103v-503zM674 209v223h-400q-30 0 -51 -12q-61 -38 -94 -105q-8 -16 -8 -45v-49q0 -27 8 -43q15 -30 42.5 -60t55.5 -48q23 -13 54 -13h190q17 0 39 11
q41 21 91 59.5t73 81.5z" />
    <glyph glyph-name="b" unicode="b" horiz-adv-x="968" 
d="M774 223q0 -61 -26 -100q-11 -18 -40 -49.5t-49 -46.5q-47 -37 -112 -37h-180q-43 0 -95 30q-49 30 -110 97l-15 -117h-69l16 137v1080h70v-453q32 42 110 98q42 29 93 29h180q68 0 112 -35q18 -14 46.5 -45.5t42.5 -52.5q26 -39 26 -99v-436zM705 227v426q0 29 -9 47
q-16 31 -45.5 65t-56.5 48q-18 10 -47 10h-174q-23 0 -39 -8q-27 -15 -56 -34t-66 -53t-48 -64v-445q19 -41 75 -87t95 -66q18 -9 39 -9h172q24 0 47 13q27 15 58 47.5t46 62.5q9 18 9 47z" />
    <glyph glyph-name="c" unicode="c" horiz-adv-x="935" 
d="M752 147q-50 -82 -101 -120q-47 -37 -112 -37h-230q-67 0 -114 37q-19 14 -48.5 47t-40.5 51q-24 36 -24 100v430q0 65 24 101q11 18 40.5 51t48.5 47q47 37 114 37h223q66 0 113 -37q56 -46 103 -121l-70 -22q-16 27 -45 58t-53 44q-18 10 -48 10h-225q-29 0 -47 -10
q-26 -15 -56.5 -48.5t-45.5 -64.5q-6 -12 -6 -45v-430q0 -33 6 -45q15 -30 47 -63t59 -49q19 -11 47 -11h230q28 0 47 11q23 13 51.5 44.5t44.5 59.5z" />
    <glyph glyph-name="d" unicode="d" horiz-adv-x="968" 
d="M82 223v436q0 59 27 99q15 21 42.5 52.5t45.5 45.5q44 35 112 35h180q51 0 93 -29q78 -56 110 -98v453h70v-1080l16 -137h-69l-15 117q-61 -67 -110 -97q-52 -30 -95 -30h-180q-65 0 -112 37q-19 14 -48 46t-40 50q-27 41 -27 100zM152 653v-426q0 -31 8 -47
q15 -30 46 -62.5t58 -47.5q23 -13 47 -13h172q21 0 39 9q39 20 95 66t75 87v445q-11 30 -48 64t-66 53t-56 34q-16 8 -39 8h-174q-29 0 -47 -10q-27 -14 -56.5 -48t-45.5 -65q-8 -16 -8 -47z" />
    <glyph glyph-name="e" unicode="e" horiz-adv-x="948" 
d="M764 403h-612v-174q0 -33 6 -45q15 -30 47 -65.5t59 -50.5q19 -11 45 -11h232q26 0 49 13q8 5 15 10t13.5 11t12 10.5t12 12.5t9.5 11.5t10 12.5t9 12t9 12.5t8 11.5l66 -27q-50 -82 -101 -120q-47 -37 -112 -37h-230q-67 0 -114 37q-19 14 -48 46.5t-40 51.5
q-27 40 -27 100v430q0 61 27 101q11 19 40 51.5t48 46.5q47 37 114 37h226q67 0 114 -37q19 -14 48 -46.5t40 -51.5q25 -38 25 -101v-252zM694 471v182q0 36 -4 45q-15 30 -47 65t-59 50q-17 10 -47 10h-228q-27 0 -45 -10q-27 -15 -59 -50t-47 -65q-6 -12 -6 -45v-182h542z
" />
    <glyph glyph-name="f" unicode="f" horiz-adv-x="641" 
d="M512 813h-266v-813h-70v813h-145v68h145v127q0 52 25 90q11 18 40 50t48 46q44 35 114 35h144v-66h-144q-35 0 -53 -12q-28 -18 -55.5 -46.5t-42.5 -57.5q-6 -14 -6 -39v-127h266v-68z" />
    <glyph glyph-name="g" unicode="g" horiz-adv-x="983" 
d="M788 881l-14 -131v-863q0 -64 -24 -100q-11 -18 -40 -50t-48 -46q-47 -37 -115 -37h-230q-65 0 -112 37q-24 19 -54 55.5t-47 65.5l68 24q59 -83 94 -102q23 -13 45 -13h240q24 0 47 13q27 15 56 46.5t44 61.5q7 16 7 47v232q-21 -25 -39.5 -43t-26 -24.5t-22.5 -18
t-17 -12.5q-48 -33 -94 -33h-197q-70 0 -114 35q-19 14 -48.5 47t-40.5 51q-24 36 -24 98v436q0 65 24 101q11 17 42 50t51 48q44 35 110 35h195q43 0 94 -35q81 -63 104 -94l17 119h69zM705 215v449l-9 14q-26 36 -76 78t-81 59q-16 8 -41 8h-189q-29 0 -47 -10
q-27 -15 -58 -49t-46 -64q-6 -12 -6 -47v-428q0 -35 6 -47q15 -30 46 -62t58 -48q19 -11 47 -11h191q23 0 41 9q31 17 80 58.5t75 76.5z" />
    <glyph glyph-name="h" unicode="h" horiz-adv-x="960" 
d="M526 823h-159q-23 0 -39 -8q-27 -15 -56 -34t-66 -53t-48 -64v-664h-70v1217h70v-455q9 18 46 48.5t66 49.5q45 31 90 31h168q69 0 113 -35q19 -14 48 -46.5t40 -51.5q27 -41 27 -101v-657h-70v653q0 35 -6 47q-15 30 -47.5 64t-59.5 49q-18 10 -47 10z" />
    <glyph glyph-name="i" unicode="i" horiz-adv-x="391" 
d="M170 0h-70v881h70v-881zM190 1133h-110v114h110v-114z" />
    <glyph glyph-name="j" unicode="j" horiz-adv-x="409" 
d="M188 -117q0 -67 -22 -100q-11 -18 -40 -50t-48 -46q-42 -33 -113 -33h-108v67h106q35 0 49 9q27 14 56 47t45 63q6 12 6 47v994h69v-998zM209 1133h-111v114h111v-114z" />
    <glyph glyph-name="k" unicode="k" horiz-adv-x="802" 
d="M723 0h-98l-422 432h-49v-432h-70v1217h70v-719h47l393 383h92l-422 -414z" />
    <glyph glyph-name="l" unicode="l" horiz-adv-x="376" 
d="M176 0h-70q-1 10 -5.5 36.5t-7.5 49t-3 35.5v1096h70v-1076q0 -23 7.5 -77.5t8.5 -63.5z" />
    <glyph glyph-name="m" unicode="m" horiz-adv-x="1441" 
d="M467 823h-92q-23 0 -39 -8q-27 -15 -56 -34t-66 -53t-48 -64v-664h-70v750l-14 131h70l14 -115q13 18 49.5 47t63.5 47q45 31 90 31h100q68 0 115 -37q18 -15 46 -46t40 -50l6 -13q14 17 28.5 32t29 28t23.5 20.5t23.5 18.5t18.5 14q42 33 94 33h113q67 0 114 -37
q19 -14 48 -46.5t40 -51.5q25 -38 25 -101v-655h-70v651q0 33 -6 45q-15 31 -47.5 67.5t-58.5 51.5q-12 8 -47 8h-105q-29 0 -41 -8q-33 -19 -84.5 -63t-75.5 -84v-668h-69v651q0 29 -8 45q-15 31 -47 66.5t-58 50.5q-15 10 -49 10z" />
    <glyph glyph-name="n" unicode="n" horiz-adv-x="968" 
d="M82 881h70l14 -115q13 18 49.5 47t63.5 47q45 31 90 31h168q68 0 112 -35q19 -14 48 -46.5t40 -51.5q27 -41 27 -101v-657h-70v653q0 35 -6 47q-15 30 -47 64t-59 49q-18 10 -47 10h-160q-23 0 -39 -8q-27 -15 -56 -34t-66 -53t-48 -64v-664h-70v750z" />
    <glyph glyph-name="o" unicode="o" horiz-adv-x="935" 
d="M752 655v-430q0 -63 -25 -100q-11 -19 -40 -51.5t-48 -46.5q-47 -37 -115 -37h-225q-68 0 -115 37q-19 14 -48 46.5t-40 51.5q-24 36 -24 100v430q0 65 24 101q11 19 40 51.5t48 46.5q47 37 115 37h225q68 0 115 -37q19 -14 48 -46.5t40 -51.5q25 -38 25 -101zM682 225
v432q0 31 -6 45q-14 29 -46.5 62t-60.5 49q-17 10 -47 10h-223q-29 0 -47 -10q-27 -16 -58.5 -48.5t-46.5 -62.5q-6 -12 -6 -45v-432q0 -33 6 -45q14 -30 46.5 -63t60.5 -49q19 -11 47 -11h223q28 0 47 11q27 15 58.5 48.5t46.5 63.5q6 14 6 45z" />
    <glyph glyph-name="p" unicode="p" horiz-adv-x="958" 
d="M774 657v-436q0 -59 -26 -98q-14 -21 -42.5 -52.5t-46.5 -45.5q-44 -35 -112 -35h-180q-49 0 -93 30q-27 18 -64 49.5t-46 49.5v-455h-70v1079l-16 138h69l15 -117q58 65 110 96q53 31 95 31h180q65 0 112 -37q20 -15 49 -46.5t40 -49.5q26 -39 26 -101zM705 227v426
q0 29 -9 47q-16 30 -45.5 63t-56.5 48q-21 12 -47 12h-174q-23 0 -39 -8q-39 -20 -95 -66t-75 -87v-445q11 -30 48 -64t66 -53t56 -34q18 -9 39 -9h176q28 0 47 11q26 14 55 47.5t45 64.5q9 18 9 47z" />
    <glyph glyph-name="q" unicode="q" horiz-adv-x="966" 
d="M82 221v436q0 61 27 101q11 18 40 50t48 46q47 37 112 37h180q42 0 95 -31q52 -31 110 -96l15 117h69l-16 -138v-1079h-70v453q-9 -18 -45.5 -48t-64.5 -49q-44 -30 -93 -30h-180q-68 0 -112 35q-18 14 -45.5 45.5t-42.5 52.5q-27 41 -27 98zM152 653v-426q0 -31 8 -47
q16 -31 45.5 -64.5t56.5 -47.5q19 -11 47 -11h174q21 0 39 9q27 15 56 34t66 53t48 64v445q-19 41 -75 87t-95 66q-16 8 -39 8h-172q-26 0 -47 -12q-27 -15 -58 -48t-46 -63q-8 -16 -8 -47z" />
    <glyph glyph-name="r" unicode="r" horiz-adv-x="802" 
d="M471 823h-98q-23 0 -39 -8q-27 -15 -56 -34t-66 -53t-48 -64v-664h-70v750l-14 131h70l14 -115q28 38 112 94q45 31 91 31h100q66 0 113 -37q49 -36 100 -121l-68 -26q-1 2 -9.5 13.5t-11 15.5t-10.5 14.5t-12.5 15.5t-12 13.5t-13 13.5t-12.5 10.5t-13 9.5
q-18 10 -47 10z" />
    <glyph glyph-name="s" unicode="s" horiz-adv-x="915" 
d="M731 217q0 -63 -26 -102q-11 -18 -35.5 -44.5t-44.5 -41.5q-49 -39 -113 -39h-246q-65 0 -112 37q-25 21 -54 56.5t-45 63.5l66 27q17 -30 44 -62t50 -44q19 -11 47 -11h248q28 0 47 11q28 16 56 44.5t42 57.5q7 14 7 49v78q0 42 -29 71.5t-68 32.5l-338 25
q-71 4 -115 53t-44 119v66q0 63 26 102q11 18 36 46t44 42q47 37 113 37h213q65 0 112 -37q50 -37 101 -121l-64 -24q-16 28 -45 59.5t-53 44.5q-17 10 -45 10h-217q-33 0 -51 -10q-66 -41 -95 -100q-6 -12 -6 -51v-64q0 -42 28.5 -71.5t67.5 -32.5l338 -25q71 -4 115.5 -54
t44.5 -120v-78z" />
    <glyph glyph-name="t" unicode="t" horiz-adv-x="638" 
d="M496 813h-271v-575q0 -38 6 -52q15 -29 45 -60t58 -46q21 -12 51 -12h109v-68h-111q-66 0 -113 37q-19 14 -48 46t-40 50q-26 39 -26 100v580h-146v68h146v336h69v-336h271v-68z" />
    <glyph glyph-name="u" unicode="u" horiz-adv-x="956" 
d="M764 0h-70l-14 115q-13 -18 -50 -47.5t-63 -47.5q-43 -30 -90 -30h-168q-68 0 -112 35q-19 14 -48 46.5t-40 51.5q-27 41 -27 100v658h70v-654q0 -35 6 -47q15 -30 47 -63.5t59 -48.5q19 -11 47 -11h160q21 0 39 9q27 15 56 34t66 53t48 64v664h70v-750z" />
    <glyph glyph-name="v" unicode="v" horiz-adv-x="819" 
d="M692 881l-272 -881h-125l-277 881h76l246 -807h35l243 807h74z" />
    <glyph glyph-name="w" unicode="w" horiz-adv-x="1314" 
d="M1186 881l-242 -881h-125l-215 797l-219 -797h-123l-239 881h71l215 -811h31l215 811h96l213 -811h33l217 811h72z" />
    <glyph glyph-name="x" unicode="x" horiz-adv-x="854" 
d="M694 0h-84l-239 395l-236 -395h-84l279 453l-267 428h84l226 -377l219 377h86l-264 -428z" />
    <glyph glyph-name="y" unicode="y" horiz-adv-x="819" 
d="M692 881l-379 -1217h-77l112 336h-53l-277 881h76l248 -809h29l247 809h74z" />
    <glyph glyph-name="z" unicode="z" horiz-adv-x="837" 
d="M674 0h-602v59l495 754h-512v68h596v-64l-495 -749h518v-68z" />
    <glyph glyph-name="braceleft" unicode="{" horiz-adv-x="694" 
d="M418 -8h-90q-38 0 -90 31q-25 18 -72 66.5t-62 72.5q-18 30 -18 90v717q0 54 20 90q15 25 60.5 73.5t69.5 65.5q44 31 92 31h90v-68h-86q-21 0 -37 -8q-28 -15 -68.5 -58t-62.5 -81q-6 -12 -6 -45v-721q0 -29 6 -41q21 -37 64.5 -80t72.5 -59q18 -9 37 -9h80v-67z" />
    <glyph glyph-name="bar" unicode="|" horiz-adv-x="313" 
d="M129 -190h-68v1576h68v-1576z" />
    <glyph glyph-name="braceright" unicode="}" horiz-adv-x="673" 
d="M227 -8h-90v67h80q19 0 37 9q29 16 72.5 59t64.5 80q6 12 6 41v721q0 33 -6 45q-22 38 -62.5 81t-68.5 58q-16 8 -37 8h-86v68h90q48 0 92 -31q24 -17 69.5 -65.5t60.5 -73.5q20 -36 20 -90v-717q0 -60 -18 -90q-15 -24 -62 -72.5t-72 -66.5q-52 -31 -90 -31z" />
    <glyph glyph-name="asciitilde" unicode="~" horiz-adv-x="790" 
d="M596 459l-66 -21q-17 38 -48 57t-64 13l-142 -45q-61 -21 -118.5 9t-81.5 101l65 21q17 -37 48.5 -55.5t64.5 -12.5l145 45q61 21 117 -10t80 -102z" />
    <glyph glyph-name="nbspace" unicode="&#xa0;" horiz-adv-x="460" 
 />
    <glyph glyph-name="exclamdown" unicode="&#xa1;" horiz-adv-x="428" 
d="M184 0h-69v840h69v-840zM92 1225h121v-129h-121v129z" />
    <glyph glyph-name="cent" unicode="&#xa2;" horiz-adv-x="913" 
d="M752 147q-50 -82 -101 -120q-47 -37 -112 -37h-90v-187h-70v187h-70q-67 0 -114 37q-19 14 -48.5 47t-40.5 51q-24 36 -24 100v430q0 65 24 101q11 18 40.5 51t48.5 47q47 37 114 37h70v213h70v-213h83q66 0 113 -37q56 -47 100 -123l-63 -22q-16 28 -45 59.5t-53 44.5
q-17 10 -47 10h-88v-766h94q28 0 47 11q23 13 51.5 44.5t44.5 59.5zM264 68q19 -11 47 -11h68v766h-68q-29 0 -47 -10q-27 -15 -60 -51t-48 -66q-4 -8 -4 -45v-422q0 -37 4 -45q15 -30 48 -65.5t60 -50.5z" />
    <glyph glyph-name="sterling" unicode="&#xa3;" horiz-adv-x="1183" 
d="M954 215q-24 -50 -65 -100t-86 -82q-56 -33 -92 -33h-539v348h-84v62h84v170h-84v63h84v328q0 51 21 88q15 26 61.5 75t71.5 64q52 31 92 31h235v-70h-233q-25 0 -41 -8q-30 -16 -68 -54.5t-59 -76.5q-6 -18 -6 -49v-328h487v-63h-487v-170h487v-62h-487v-278h459
q20 0 40 10q33 19 75.5 67t62.5 91z" />
    <glyph glyph-name="currency" unicode="&#xa4;" horiz-adv-x="1134" 
d="M199 453q-19 27 -19 73v219q0 47 19 74q21 28 32 39l-61 64l49 49l66 -66q27 15 61 15h311q32 0 62 -15l69 70l50 -49l-68 -68q8 -8 20 -22t15 -17q18 -26 18 -74v-219q0 -47 -18 -73q-18 -24 -33 -39l66 -64l-50 -49l-69 66q-27 -15 -62 -15h-311q-37 0 -65 17l-64 -66
l-49 49l61 62zM246 535q0 -23 4 -31q8 -19 31 -44.5t36 -33.5t33 -8h303q20 0 33 8q14 9 37 34t31 44q4 8 4 31v202q0 23 -4 31q-8 19 -31 44t-37 34q-13 8 -33 8h-303q-20 0 -33 -8t-36 -33.5t-31 -44.5q-4 -8 -4 -31v-202z" />
    <glyph glyph-name="yen" unicode="&#xa5;" horiz-adv-x="964" 
d="M852 1217l-320 -578h236v-68h-279v-161h279v-68h-279v-342h-73v342h-291v68h291v161h-291v68h246l-316 578h80l314 -578h10l315 578h78z" />
    <glyph glyph-name="brokenbar" unicode="&#xa6;" horiz-adv-x="385" 
d="M129 705h-68v681h68v-681zM129 -176h-68v682h68v-682z" />
    <glyph glyph-name="section" unicode="&#xa7;" horiz-adv-x="915" 
d="M233 866l338 -26q68 -5 114 -55t46 -119v-56q0 -63 -26 -102q-16 -26 -72 -78q44 -22 71 -64.5t27 -93.5v-57q0 -63 -26 -102q-11 -18 -35.5 -44.5t-44.5 -41.5q-49 -39 -113 -39h-246q-65 0 -112 37q-25 21 -54 56.5t-45 63.5l64 25q16 -28 44 -58.5t52 -43.5
q19 -11 47 -11h248q28 0 47 11q28 16 55 43.5t41 56.5q6 12 6 49v57q0 42 -27.5 70t-66.5 31l-338 28q-63 6 -100 41q-24 24 -37 45q-22 37 -22 86v43q0 64 26 103q11 17 36.5 44t45.5 42q-48 19 -78 63t-30 99v35q0 63 26 102q11 18 36 46t44 42q47 37 113 37h213
q65 0 112 -37q50 -37 101 -121l-66 -24q-16 28 -44 58.5t-52 43.5q-17 10 -45 10h-217q-33 0 -51 -10q-65 -40 -93 -98q-6 -12 -6 -52v-32q0 -42 27.5 -71t66.5 -32zM565 768l-260 23q-32 0 -51 -11q-30 -19 -62.5 -51t-46.5 -61q-6 -12 -6 -52v-41q0 -42 27.5 -70.5
t66.5 -31.5l277 -22q26 0 47 12q28 16 55 43.5t41 56.5q6 12 6 49v56q0 42 -27.5 69.5t-66.5 30.5z" />
    <glyph glyph-name="dieresis" unicode="&#xa8;" horiz-adv-x="743" 
d="M600 1133h-111v114h111v-114zM326 1133h-111v114h111v-114z" />
    <glyph glyph-name="copyright" unicode="&#xa9;" horiz-adv-x="1271" 
d="M829 389q-41 -47 -79 -80q-48 -41 -88 -41h-136q-61 0 -108 37q-18 13 -46 44.5t-38 47.5q-29 47 -29 99v231q0 51 29 98q10 17 38.5 50t45.5 45q40 32 108 32h136q41 0 86 -39q28 -24 77 -77l-59 -31q-8 8 -25.5 25t-29 27.5t-19.5 14.5q-17 13 -35 13h-129
q-37 0 -49 -8q-26 -15 -53.5 -46t-42.5 -61q-8 -16 -8 -43v-227q0 -29 8 -45q15 -30 44.5 -63t55.5 -48q12 -8 45 -8h129q24 0 35 8q8 4 19.5 15t28.5 28t26 25zM1077 250q0 -52 -24 -90q-15 -25 -60.5 -72.5t-70.5 -64.5q-52 -31 -95 -31h-499q-40 0 -92 31
q-25 18 -71 65.5t-61 71.5q-20 36 -20 90v713q0 54 20 90q15 27 62.5 77.5t71.5 65.5q52 31 92 31h497q43 0 95 -31q24 -15 70 -64.5t61 -76.5q24 -37 24 -90v-715zM1008 961q0 22 -11 40q-22 39 -65 86t-70 62q-13 8 -39 8h-489q-26 0 -39 -8q-28 -15 -70.5 -61t-62.5 -84
q-8 -16 -8 -43v-707q0 -25 8 -41q20 -37 63 -82t72 -61q15 -9 37 -9h487q22 0 37 9q30 16 76 61.5t65 81.5q9 18 9 41v707z" />
    <glyph glyph-name="ordfeminine" unicode="&#xaa;" horiz-adv-x="761" 
d="M567 633h-61l-12 63l-27 -22q-20 -16 -51.5 -32.5t-50.5 -16.5h-127q-44 0 -84 28q-14 11 -35.5 35t-28.5 37q-18 23 -18 72v256q0 50 18 73q7 13 28.5 37t35.5 35q42 29 84 29h147q38 0 82 -35q3 -2 22 -21v48h62v-459q0 -20 7.5 -69.5t8.5 -57.5zM485 807v237
q0 23 -4 31q-10 23 -31 45t-40 33q-16 8 -33 8h-131q-20 0 -33 -8q-20 -11 -41 -33.5t-31 -44.5q-4 -8 -4 -31v-237q0 -23 4 -31q10 -21 31.5 -44t40.5 -34q13 -8 33 -8h112q15 0 31 8q74 42 92 78q4 10 4 31z" />
    <glyph glyph-name="guillemotleft" unicode="&#xab;" horiz-adv-x="1077" 
d="M246 508l254 -291l-76 -24l-274 313l274 317l78 -26zM559 508l254 -291l-76 -24l-274 313l274 317l78 -26z" />
    <glyph glyph-name="logicalnot" unicode="&#xac;" horiz-adv-x="1228" 
d="M907 545l2 -330h-69v260h-791v70h858z" />
    <glyph glyph-name="registered" unicode="&#xae;" horiz-adv-x="1271" 
d="M1077 250q0 -52 -24 -90q-15 -25 -60.5 -72.5t-70.5 -64.5q-52 -31 -95 -31h-499q-40 0 -92 31q-25 18 -71 65.5t-61 71.5q-20 36 -20 90v713q0 54 20 90q15 27 62.5 77.5t71.5 65.5q52 31 92 31h497q43 0 95 -31q24 -15 70 -64.5t61 -76.5q24 -37 24 -90v-715zM1008 961
q0 22 -11 40q-22 39 -65 86t-70 62q-13 8 -39 8h-489q-26 0 -39 -8q-28 -15 -70.5 -61t-62.5 -84q-8 -16 -8 -43v-707q0 -25 8 -41q20 -37 63 -82t72 -61q15 -9 37 -9h487q22 0 37 9q30 16 76 61.5t65 81.5q9 18 9 41v707zM410 240h-70v737h283q65 0 112 -37
q19 -14 47 -45.5t39 -50.5q27 -41 27 -101v-32q0 -61 -27 -101q-11 -18 -39.5 -48.5t-48.5 -45.5q-13 -11 -43 -22l178 -254h-88l-159 237h-211v-237zM668 897q-21 12 -47 12h-211v-364h217q26 0 47 12q67 42 98 105q8 16 8 47v34q0 27 -8 43q-14 30 -44.5 61.5t-59.5 49.5z
" />
    <glyph glyph-name="macron" unicode="&#xaf;" horiz-adv-x="616" 
d="M412 1151h-322v68h322v-68z" />
    <glyph glyph-name="degree" unicode="&#xb0;" horiz-adv-x="765" 
d="M528 1188q0 -79 -55.5 -134t-132.5 -55t-132.5 55t-55.5 134q0 76 55.5 131t132.5 55t132.5 -55t55.5 -131zM463 1188q0 54 -34.5 89.5t-88.5 35.5t-87.5 -35.5t-33.5 -89.5q0 -57 33.5 -92t87.5 -35t88.5 35t34.5 92z" />
    <glyph glyph-name="plusminus" unicode="&#xb1;" horiz-adv-x="1060" 
d="M799 475h-307v-325h-70v325h-307v70h307v325h70v-325h307v-70zM799 -115h-686v68h686v-68z" />
    <glyph glyph-name="twosuperior" unicode="&#xb2;" horiz-adv-x="608" 
d="M506 1032q0 -50 -19.5 -78t-68.5 -43l-254 -86q-27 -11 -36 -24.5t-9 -48.5v-52h385v-69h-455v129q0 100 105 135q38 12 72.5 23.5t58 19t45 14.5t34 11t23.5 8t17 6t10.5 4t7 3t4.5 3q14 12 14 57q0 23 -4 31q-10 23 -31 45t-40 33q-16 8 -33 8h-111q-22 0 -35 -8
q-57 -34 -77 -59l-66 28q6 10 19 22.5t23.5 20.5t26 19.5t17.5 13.5q42 29 84 29h127q46 0 82 -29q15 -10 36 -34t29 -38q19 -29 19 -73v-21z" />
    <glyph glyph-name="threesuperior" unicode="&#xb3;" horiz-adv-x="610" 
d="M506 817v-18q0 -45 -19 -74q-8 -14 -29 -38t-36 -34q-35 -28 -82 -28h-127q-45 0 -84 24q-61 37 -86 80l63 29q15 -23 76 -60q13 -8 39 -8h111q17 0 33 8q19 11 40 33t31 45q4 8 4 31v8q0 27 -17 52t-44 28h-6h-156v61h156q30 0 48.5 25.5t18.5 54.5v8q0 23 -4 31
q-10 23 -31 45t-40 33q-16 8 -33 8h-111q-20 0 -35 -6q-57 -25 -80 -61l-63 28q0 11 31.5 38.5t50.5 39.5q48 27 88 27h127q46 0 82 -29q15 -10 36 -34t29 -38q19 -29 19 -73v-19q0 -67 -47 -108q47 -41 47 -109z" />
    <glyph glyph-name="acute" unicode="&#xb4;" horiz-adv-x="759" 
d="M590 1317l-217 -275l-62 27l195 248h84z" />
    <glyph glyph-name="mu" unicode="&#xb5;" horiz-adv-x="956" 
d="M152 -336l-70 2v1215h70v-664q11 -30 48 -64t66 -53t56 -34q18 -9 38 -9h111q21 0 39 9q27 15 56 34t66 53t48 64v664h70v-750l14 -131h-70l-16 115q-31 -41 -111 -95q-43 -30 -90 -30h-123q-46 0 -90 30q-22 14 -59 46t-53 51v-453z" />
    <glyph glyph-name="paragraph" unicode="&#xb6;" horiz-adv-x="1048" 
d="M874 0h-73v569h-166v-569h-74v569h-235q-62 0 -109 37q-19 16 -55 53t-45 52q-27 44 -27 96v170q0 53 27 96q9 15 45 53.5t55 53.5q47 37 109 37h548v-1217zM801 643v502h-166v-502h166zM561 643v502h-233q-32 0 -49 -10q-28 -18 -60 -52.5t-47 -64.5q-8 -19 -8 -45v-162
q0 -26 8 -45q15 -30 47.5 -63.5t59.5 -49.5q18 -10 49 -10h233z" />
    <glyph glyph-name="periodcentered" unicode="&#xb7;" horiz-adv-x="585" 
d="M274 434h-118v160h118v-160z" />
    <glyph glyph-name="cedilla" unicode="&#xb8;" horiz-adv-x="831" 
d="M461 -109l-152 -231h-80l162 260z" />
    <glyph glyph-name="onesuperior" unicode="&#xb9;" horiz-adv-x="610" 
d="M442 631h-340v67h142v457h-121v70h192v-527h127v-67z" />
    <glyph glyph-name="ordmasculine" unicode="&#xba;" horiz-adv-x="800" 
d="M115 725q-19 27 -19 74v254q0 46 19 73q39 51 65 72q37 29 82 29h148q45 0 82 -29q26 -21 65 -72q18 -26 18 -73v-254q0 -48 -18 -74q-39 -51 -65 -72q-36 -28 -82 -28h-148q-46 0 -82 28q-26 21 -65 72zM162 807q0 -23 4 -31q8 -19 31 -44.5t36 -33.5t33 -8h140
q19 0 32 8q14 9 37 34t31 44q4 8 4 31v237q0 23 -4 31q-8 19 -31 44t-37 34q-13 8 -32 8h-140q-20 0 -33 -8t-36 -33.5t-31 -44.5q-4 -8 -4 -31v-237z" />
    <glyph glyph-name="guillemotright" unicode="&#xbb;" horiz-adv-x="1077" 
d="M465 217l254 291l-256 289l78 26l274 -317l-274 -313zM152 217l254 291l-256 289l77 26l275 -317l-275 -313z" />
    <glyph glyph-name="onequarter" unicode="&#xbc;" horiz-adv-x="1339" 
d="M956 1225l-616 -1225h-78l619 1225h75zM430 631h-340v67h141v457h-120v70h192v-527h127v-67zM1145 152h-121v-152h-72v152h-309v61l313 383h68v-375h121v-69zM952 221v266l-221 -266h221z" />
    <glyph glyph-name="onehalf" unicode="&#xbd;" horiz-adv-x="1335" 
d="M430 631h-340v67h141v457h-120v70h192v-527h127v-67zM956 1225l-616 -1225h-78l619 1225h75zM1233 401q0 -50 -19.5 -77.5t-68.5 -42.5l-254 -86q-26 -11 -35.5 -25t-9.5 -49v-51h385v-70h-455v129q0 101 105 135q38 12 72.5 23.5t58 19t45 14.5t34 11t23.5 8t17 6
t10.5 4t7 3t4.5 3q14 12 14 58q0 22 -4 30q-10 23 -31 45t-40 33q-16 8 -33 8h-111q-22 0 -35 -8q-57 -34 -77 -59l-66 29q6 10 19 22.5t23.5 20.5t25.5 19t18 13q42 29 84 29h127q46 0 82 -29q15 -10 36 -33.5t29 -37.5q19 -29 19 -74v-21z" />
    <glyph glyph-name="threequarters" unicode="&#xbe;" horiz-adv-x="1339" 
d="M956 1225l-616 -1225h-78l619 1225h75zM1145 152h-121v-152h-72v152h-309v61l313 383h68v-375h121v-69zM952 221v266l-221 -266h221zM506 817v-18q0 -45 -19 -74q-8 -14 -29 -38t-36 -34q-35 -28 -82 -28h-127q-45 0 -84 24q-61 37 -86 80l63 29q15 -23 76 -60
q13 -8 39 -8h111q17 0 33 8q19 11 40 33t31 45q4 8 4 31v8q0 27 -17 52t-44 28h-6h-156v61h156q30 0 48.5 25.5t18.5 54.5v8q0 23 -4 31q-10 23 -31 45t-40 33q-16 8 -33 8h-111q-20 0 -35 -6q-57 -25 -80 -61l-63 28q0 11 31.5 38.5t50.5 39.5q48 27 88 27h127q46 0 82 -29
q15 -10 36 -34t29 -38q19 -29 19 -73v-19q0 -67 -47 -108q47 -41 47 -109z" />
    <glyph glyph-name="questiondown" unicode="&#xbf;" horiz-adv-x="909" 
d="M92 385q0 57 32 104t83 74l133 72q31 16 54.5 49.5t23.5 71.5v110h74v-121q0 -108 -121 -172l-133 -75q-32 -18 -52 -49t-20 -68l-2 -139q0 -26 8 -45q15 -30 47.5 -65t59.5 -50q17 -10 47 -10h239q29 0 41 8q33 19 75 65.5t62 87.5l72 -22q-70 -130 -149 -180
q-52 -31 -95 -31h-247q-65 0 -109 35q-18 13 -52 51.5t-44 54.5q-27 43 -27 97v147zM393 1225h121v-129h-121v129z" />
    <glyph glyph-name="Agrave" unicode="&#xc0;" horiz-adv-x="1042" 
d="M926 0h-78l-94 291h-592l-96 -291h-76l393 1217h149zM733 362l-248 785h-57l-246 -785h551zM578 1362l-64 -27l-217 275h86z" />
    <glyph glyph-name="Aacute" unicode="&#xc1;" horiz-adv-x="1048" 
d="M932 0h-78l-94 291h-592l-96 -291h-76l393 1217h150zM739 362l-247 785h-58l-246 -785h551zM629 1612l-217 -275l-62 27l195 248h84z" />
    <glyph glyph-name="Acircumflex" unicode="&#xc2;" horiz-adv-x="1048" 
d="M932 0h-78l-94 291h-592l-96 -291h-76l393 1217h150zM739 362l-247 785h-58l-246 -785h551zM209 1337l217 277h78l217 -277h-86l-170 219l-172 -219h-84z" />
    <glyph glyph-name="Atilde" unicode="&#xc3;" horiz-adv-x="1048" 
d="M932 0h-78l-94 291h-592l-96 -291h-76l393 1217h150zM739 362l-247 785h-58l-246 -785h551zM723 1386l-66 -20q-17 38 -48 57t-64 13l-142 -45q-61 -21 -118.5 9t-81.5 101l65 21q17 -37 48.5 -55.5t64.5 -12.5l145 45q61 21 117 -10.5t80 -102.5z" />
    <glyph glyph-name="Adieresis" unicode="&#xc4;" horiz-adv-x="1048" 
d="M932 0h-78l-94 291h-592l-96 -291h-76l393 1217h150zM739 362l-247 785h-58l-246 -785h551zM653 1405h-110v115h110v-115zM379 1405h-111v115h111v-115z" />
    <glyph glyph-name="Aring" unicode="&#xc5;" horiz-adv-x="1048" 
d="M932 0h-78l-94 291h-592l-96 -291h-76l393 1217h150zM739 362l-247 785h-58l-246 -785h551zM651 1540q0 -79 -55.5 -133.5t-132.5 -54.5t-133 54.5t-56 133.5q0 76 56 131t133 55t132.5 -55t55.5 -131zM586 1540q0 54 -34.5 89.5t-88.5 35.5t-87.5 -35.5t-33.5 -89.5
q0 -57 33.5 -92t87.5 -35t88.5 35t34.5 92z" />
    <glyph glyph-name="AE" unicode="&#xc6;" horiz-adv-x="1470" 
d="M1239 0h-602v289h-424l-125 -289h-78l516 1217v0v0v0v0v0v0h1v0v0v0h1v0v0h1v0h1v0h1v0h1v0h1v0h1v0h1v0h1h1v0h1h1v0h1h1h1v0h1h1h1h1h1h1h1h1h1h1h1h1h1h1h1h1h1h1h1h1h1h1h1h1h1h1h1h1h1h1h1h1h1h1h1h1h1h1h1h1h1h1h1h1h1h1h1h1h1h1h1h1h1h1h1h1h1h1h1h1h1h1h1h1h1h1
h1h1h1h1h1h1h1h1h1h1h1h1h1h1h1h1h1h1h1h1h1h1h1h1h1h1h1h1h1h1h1h1h1h1h1h1h1h1h2h1h1h1h1h1h1h1h1h1h1h1h1h1h1h1h1h2h1h1h1h1h1h1h1h1h1h2h1h1h1h1h1h1h1h2h1h1h1h1h1h1h2h1h1h1h1h1h2h1h1h1h1h2h1h1h1h1h2h1h1h1h1h2h1h1h1h1h2h1h1h1h2h1h1h1h2h1h1h1h2h1h1h1h2h1h1h2h1
h1h1h2h1h1h2h1h1h1h2h1h1h2h1h1h2h1h1h2h1h1h2h1h1h2h1h1h2h1h1h2h1h1h2h1h2h1h1h2h1h1h2h1h2h1h1h2h1h2h1h1h2h1h2h1h1h2h1h2h1h1h2h1h2h1h2h1h2h1h1h2h1h2h1h2h1h2h1h1h2h1h2h1h2h1h2h1h2h1h2h1h2h1h2h1h2h1h2h1h2h1h2h1h2h1h2h1h2h1h2h1h2h1h2h2h1h2h1h2h1h2h1h2h2h1h2h1
h2h1h2h1h2h2h1h2h1h2h2h1h2h1h2h1h2h2h1h2h1h2h2h1h2h2h1h2h1h2h2h1h2h2h1h2h1h2h2h1h2h2h1h2h2h1h2h2h1h2h2h1h2h2h1h2h2h1h2h2h1h2h2h1h2h2h1h2h2h2h1h2h2h1h2h2h1h2h2h2h1h2h2h2h1h2h2h1h2h2h2h1h2h2h2h1h2h2h2h1h2h2h2h1h2h2h2h2h1h2h2h2h1h2h2h2h2h1h2h2h2h2h1h2h2h2h2
h1h2h2h2h2h2h1h2h2h2h2h2h1h2h2h2h2h2h2h1h2h2h2h2h2h2h1h2h2h2h2h2h2h2h1h2h2h2h2h2h2h2h1h2h2h10v-74h-528v-500h487v-72h-487v-499h528v-72zM637 1143h-64l-329 -781h393v781z" />
    <glyph glyph-name="Ccedilla" unicode="&#xc7;" horiz-adv-x="1060" 
d="M600 -109l-151 -231h-80l161 260zM881 199q-72 -126 -154 -181q-51 -30 -90 -30h-289q-41 0 -92 30q-24 14 -69.5 63t-61.5 75q-23 36 -23 88v727q0 52 23 88q16 26 61.5 75.5t69.5 63.5q48 31 90 31h291q38 0 90 -31q42 -28 83 -78t71 -102l-72 -23q-25 44 -66 89.5
t-73 64.5q-16 8 -39 8h-281q-19 0 -35 -8q-28 -15 -68 -56.5t-61 -78.5q-10 -17 -10 -47v-723q0 -17 10 -37q21 -37 63 -80.5t70 -58.5q18 -9 35 -9h279q19 0 37 9q30 18 70.5 64t64.5 87z" />
    <glyph glyph-name="Egrave" unicode="&#xc8;" horiz-adv-x="1005" 
d="M774 0h-672v1217h672v-72h-598v-496h559v-71h-559v-506h598v-72zM571 1364l-63 -27l-217 275h86z" />
    <glyph glyph-name="Eacute" unicode="&#xc9;" horiz-adv-x="1005" 
d="M774 0h-672v1217h672v-72h-598v-496h559v-71h-559v-506h598v-72zM637 1610l-217 -275l-62 27l195 248h84z" />
    <glyph glyph-name="Ecircumflex" unicode="&#xca;" horiz-adv-x="1005" 
d="M774 0h-672v1217h672v-72h-598v-496h559v-71h-559v-506h598v-72zM193 1337l217 277h77l218 -277h-87l-169 219l-173 -219h-83z" />
    <glyph glyph-name="Edieresis" unicode="&#xcb;" horiz-adv-x="1005" 
d="M774 0h-672v1217h672v-72h-598v-496h559v-71h-559v-506h598v-72zM653 1405h-110v115h110v-115zM379 1405h-111v115h111v-115z" />
    <glyph glyph-name="Igrave" unicode="&#xcc;" horiz-adv-x="471" 
d="M176 0h-74v1217h74v-1217zM209 1364l-64 -27l-217 275h86z" />
    <glyph glyph-name="Iacute" unicode="&#xcd;" horiz-adv-x="471" 
d="M176 0h-74v1217h74v-1217zM348 1612l-217 -275l-61 27l194 248h84z" />
    <glyph glyph-name="Icircumflex" unicode="&#xce;" horiz-adv-x="471" 
d="M176 0h-74v1217h74v-1217zM-113 1337l217 277h78l217 -277h-86l-170 219l-172 -219h-84z" />
    <glyph glyph-name="Idieresis" unicode="&#xcf;" horiz-adv-x="471" 
d="M176 0h-74v1217h74v-1217zM334 1415h-111v115h111v-115zM59 1415h-110v115h110v-115z" />
    <glyph glyph-name="Eth" unicode="&#xd0;" horiz-adv-x="1138" 
d="M920 256q0 -47 -23 -88q-15 -25 -60.5 -73.5t-68.5 -63.5q-56 -31 -92 -31h-531v575h-165v68h165v574h531q43 0 92 -29q23 -15 68.5 -64.5t60.5 -76.5q23 -41 23 -89v-702zM537 575h-320v-503h453q23 0 39 8q28 15 67.5 58t61.5 81q8 16 8 37v700q0 27 -8 41
q-22 39 -61 82t-66 58q-16 8 -35 8h-459v-502h320v-68z" />
    <glyph glyph-name="Ntilde" unicode="&#xd1;" horiz-adv-x="1105" 
d="M877 0h-142l-538 1149h-21v-1149h-74v1217h142l540 -1147h19v1147h74v-1217zM750 1386l-66 -20q-17 38 -48.5 57t-64.5 13l-141 -45q-61 -21 -119 9.5t-82 100.5l66 21q17 -37 48.5 -55.5t64.5 -12.5l145 45q61 21 117 -10.5t80 -102.5z" />
    <glyph glyph-name="Ograve" unicode="&#xd2;" horiz-adv-x="1142" 
d="M938 246q0 -54 -23 -90q-16 -26 -61.5 -75t-69.5 -63q-51 -30 -92 -30h-344q-39 0 -90 30q-25 18 -71.5 66t-61.5 72q-21 33 -21 90v723q0 51 21 88q15 25 61.5 74.5t71.5 66.5q46 31 90 31h344q46 0 92 -31q25 -17 70.5 -65.5t60.5 -73.5q23 -41 23 -90v-723zM864 246
v725q0 27 -8 41q-21 37 -62.5 79t-70.5 58q-16 8 -37 8h-330q-18 0 -34 -8q-29 -16 -71 -58t-63 -79q-10 -17 -10 -41v-727q0 -26 8 -39q21 -33 67 -78.5t69 -58.5q18 -9 34 -9h330q19 0 37 9q28 15 69 57t64 80q8 13 8 41zM655 1368l-63 -27l-217 275h86z" />
    <glyph glyph-name="Oacute" unicode="&#xd3;" horiz-adv-x="1142" 
d="M938 246q0 -54 -23 -90q-16 -26 -61.5 -75t-69.5 -63q-51 -30 -92 -30h-344q-39 0 -90 30q-25 18 -71.5 66t-61.5 72q-21 33 -21 90v723q0 51 21 88q15 25 61.5 74.5t71.5 66.5q46 31 90 31h344q46 0 92 -31q25 -17 70.5 -65.5t60.5 -73.5q23 -41 23 -90v-723zM864 246
v725q0 27 -8 41q-21 37 -62.5 79t-70.5 58q-16 8 -37 8h-330q-18 0 -34 -8q-29 -16 -71 -58t-63 -79q-10 -17 -10 -41v-727q0 -26 8 -39q21 -33 67 -78.5t69 -58.5q18 -9 34 -9h330q19 0 37 9q28 15 69 57t64 80q8 13 8 41zM684 1614l-217 -275l-61 27l194 248h84z" />
    <glyph glyph-name="Ocircumflex" unicode="&#xd4;" horiz-adv-x="1142" 
d="M938 246q0 -54 -23 -90q-16 -26 -61.5 -75t-69.5 -63q-51 -30 -92 -30h-344q-39 0 -90 30q-25 18 -71.5 66t-61.5 72q-21 33 -21 90v723q0 51 21 88q15 25 61.5 74.5t71.5 66.5q46 31 90 31h344q46 0 92 -31q25 -17 70.5 -65.5t60.5 -73.5q23 -41 23 -90v-723zM864 246
v725q0 27 -8 41q-21 37 -62.5 79t-70.5 58q-16 8 -37 8h-330q-18 0 -34 -8q-29 -16 -71 -58t-63 -79q-10 -17 -10 -41v-727q0 -26 8 -39q21 -33 67 -78.5t69 -58.5q18 -9 34 -9h330q19 0 37 9q28 15 69 57t64 80q8 13 8 41zM268 1339l217 277h78l217 -277h-86l-170 220
l-172 -220h-84z" />
    <glyph glyph-name="Otilde" unicode="&#xd5;" horiz-adv-x="1142" 
d="M938 246q0 -54 -23 -90q-16 -26 -61.5 -75t-69.5 -63q-51 -30 -92 -30h-344q-39 0 -90 30q-25 18 -71.5 66t-61.5 72q-21 33 -21 90v723q0 51 21 88q15 25 61.5 74.5t71.5 66.5q46 31 90 31h344q46 0 92 -31q25 -17 70.5 -65.5t60.5 -73.5q23 -41 23 -90v-723zM864 246
v725q0 27 -8 41q-21 37 -62.5 79t-70.5 58q-16 8 -37 8h-330q-18 0 -34 -8q-29 -16 -71 -58t-63 -79q-10 -17 -10 -41v-727q0 -26 8 -39q21 -33 67 -78.5t69 -58.5q18 -9 34 -9h330q19 0 37 9q28 15 69 57t64 80q8 13 8 41zM778 1386l-65 -20q-17 38 -48.5 57t-64.5 13
l-141 -45q-61 -21 -119 9.5t-82 100.5l66 21q17 -38 48 -56t64 -12l146 45q61 21 116.5 -10.5t79.5 -102.5z" />
    <glyph glyph-name="Odieresis" unicode="&#xd6;" horiz-adv-x="1142" 
d="M938 246q0 -54 -23 -90q-16 -26 -61.5 -75t-69.5 -63q-51 -30 -92 -30h-344q-39 0 -90 30q-25 18 -71.5 66t-61.5 72q-21 33 -21 90v723q0 51 21 88q15 25 61.5 74.5t71.5 66.5q46 31 90 31h344q46 0 92 -31q25 -17 70.5 -65.5t60.5 -73.5q23 -41 23 -90v-723zM864 246
v725q0 27 -8 41q-21 37 -62.5 79t-70.5 58q-16 8 -37 8h-330q-18 0 -34 -8q-29 -16 -71 -58t-63 -79q-10 -17 -10 -41v-727q0 -26 8 -39q21 -33 67 -78.5t69 -58.5q18 -9 34 -9h330q19 0 37 9q28 15 69 57t64 80q8 13 8 41zM713 1401h-111v115h111v-115zM438 1401h-110v115
h110v-115z" />
    <glyph glyph-name="multiply" unicode="&#xd7;" horiz-adv-x="1060" 
d="M682 238l-227 227l-230 -229l-49 49l230 229l-228 229l49 50l228 -230l229 230l49 -50l-229 -229l227 -227z" />
    <glyph glyph-name="Oslash" unicode="&#xd8;" horiz-adv-x="1142" 
d="M860 1237l-39 -76q69 -66 94 -106q23 -41 23 -90v-719q0 -54 -23 -90q-16 -26 -61.5 -75t-69.5 -63q-51 -30 -92 -30h-344q-39 0 -90 30q-1 1 -4 3.5t-4 3.5l-23 -45h-77l47 92q-57 57 -72 84q-21 38 -21 90v719q0 53 21 90q16 26 62.5 75.5t70.5 63.5q52 31 90 31h344
q26 0 74 -23l18 35h76zM864 246v719q0 27 -8 41q-23 39 -70 86l-501 -998q10 -9 39 -26q18 -9 34 -9h326q19 0 37 9q28 15 71 59.5t64 81.5q8 16 8 37zM184 207q6 -12 49 -60l500 990q-2 2 -5.5 4.5t-4.5 3.5q-16 8 -37 8h-330q-18 0 -34 -8q-29 -15 -71 -58.5t-63 -80.5
q-10 -17 -10 -41v-719q0 -24 6 -39z" />
    <glyph glyph-name="Ugrave" unicode="&#xd9;" horiz-adv-x="1093" 
d="M868 244q0 -49 -22 -88q-16 -26 -61.5 -75t-69.5 -63q-51 -30 -90 -30h-293q-41 0 -92 30q-24 14 -69.5 63t-61.5 75q-23 36 -23 88v973h74v-975q0 -14 10 -39q21 -36 64 -77.5t73 -57.5q18 -9 35 -9h272q19 0 37 9q30 16 73 57.5t62 77.5q9 23 9 39v975h73v-973z
M621 1366l-64 -27l-217 275h86z" />
    <glyph glyph-name="Uacute" unicode="&#xda;" horiz-adv-x="1093" 
d="M868 244q0 -49 -22 -88q-16 -26 -61.5 -75t-69.5 -63q-51 -30 -90 -30h-293q-41 0 -92 30q-24 14 -69.5 63t-61.5 75q-23 36 -23 88v973h74v-975q0 -14 10 -39q21 -36 64 -77.5t73 -57.5q18 -9 35 -9h272q19 0 37 9q30 16 73 57.5t62 77.5q9 23 9 39v975h73v-973z
M637 1614l-217 -275l-62 27l195 248h84z" />
    <glyph glyph-name="Ucircumflex" unicode="&#xdb;" horiz-adv-x="1093" 
d="M868 244q0 -49 -22 -88q-16 -26 -61.5 -75t-69.5 -63q-51 -30 -90 -30h-293q-41 0 -92 30q-24 14 -69.5 63t-61.5 75q-23 36 -23 88v973h74v-975q0 -14 10 -39q21 -36 64 -77.5t73 -57.5q18 -9 35 -9h272q19 0 37 9q30 16 73 57.5t62 77.5q9 23 9 39v975h73v-973z
M229 1337l217 277h78l217 -277h-86l-170 219l-172 -219h-84z" />
    <glyph glyph-name="Udieresis" unicode="&#xdc;" horiz-adv-x="1093" 
d="M868 244q0 -49 -22 -88q-16 -26 -61.5 -75t-69.5 -63q-51 -30 -90 -30h-293q-41 0 -92 30q-24 14 -69.5 63t-61.5 75q-23 36 -23 88v973h74v-975q0 -14 10 -39q21 -36 64 -77.5t73 -57.5q18 -9 35 -9h272q19 0 37 9q30 16 73 57.5t62 77.5q9 23 9 39v975h73v-973z
M676 1401h-111v115h111v-115zM401 1401h-110v115h110v-115z" />
    <glyph glyph-name="Yacute" unicode="&#xdd;" horiz-adv-x="911" 
d="M815 1217l-377 -674v-543h-73v543l-375 674h82l329 -599l332 599h82zM578 1612l-218 -275l-61 27l195 248h84z" />
    <glyph glyph-name="Thorn" unicode="&#xde;" horiz-adv-x="1046" 
d="M877 530q0 -50 -27 -94q-7 -14 -42 -51t-56 -53q-42 -33 -105 -33h-471v-299h-74v1217h74v-273h471q61 0 105 -35q20 -16 55.5 -54t42.5 -52q27 -43 27 -96v-177zM805 532v170q0 27 -8 46q-15 29 -47 63t-60 49q-21 12 -45 12h-469v-501h469q27 0 45 10q29 16 61 47.5
t46 60.5q8 14 8 43z" />
    <glyph glyph-name="germandbls" unicode="&#xdf;" 
d="M838 217q0 -61 -27 -102q-11 -18 -36 -46t-44 -42q-47 -37 -113 -37h-245q-61 0 -99 30l48 50q23 -13 47 -13h252q26 0 45 11q27 15 53 43.5t41 58.5q8 16 8 47v109q0 41 -28 69t-68 31l-131 8q-71 4 -115.5 53t-44.5 119v23q0 63 27 104q13 22 94 96q58 54 90 86
q5 5 9.5 14t6.5 15t2 8v54q0 14 -12 38q-14 28 -47 59.5t-62 47.5q-18 10 -45 10h-96q-19 0 -39 -10q-29 -16 -71.5 -60t-63.5 -83q-8 -16 -8 -43v-861l-19 -104h-71l20 123v838q0 58 23 94q21 31 67 80t70 63q50 31 92 31h98q63 0 109 -37q20 -15 50 -46t40 -48
q29 -44 29 -99v-47q0 -39 -25 -71q-7 -10 -47.5 -48.5t-60.5 -56.5l-16 -14q-16 -15 -20.5 -19.5t-16 -17t-18.5 -23t-13 -22.5q-8 -16 -8 -43v-33q0 -41 30 -69.5t70 -30.5l129 -10q68 -5 114 -54t46 -118v-105z" />
    <glyph glyph-name="agrave" unicode="&#xe0;" horiz-adv-x="942" 
d="M764 0h-70l-16 115q-15 -21 -53.5 -52t-57.5 -43q-52 -30 -90 -30h-201q-65 0 -112 37q-19 14 -47 45.5t-39 50.5q-27 41 -27 100v43q0 62 27 103q11 18 39 49t47 45q47 37 112 37h398v155q0 29 -6 43q-15 30 -47 65t-58 50q-17 10 -47 10h-215q-24 0 -45 -12
q-30 -15 -94 -102l-68 26q63 90 103 121q44 35 110 35h209q68 0 115 -37q19 -14 48 -46t40 -50q24 -36 24 -103v-503zM674 209v223h-400q-30 0 -51 -12q-61 -38 -94 -105q-8 -16 -8 -45v-49q0 -27 8 -43q15 -30 42.5 -60t55.5 -48q23 -13 54 -13h190q17 0 39 11
q41 21 91 59.5t73 81.5zM512 1069l-63 -27l-218 275h86z" />
    <glyph glyph-name="aacute" unicode="&#xe1;" horiz-adv-x="942" 
d="M764 0h-70l-16 115q-15 -21 -53.5 -52t-57.5 -43q-52 -30 -90 -30h-201q-65 0 -112 37q-19 14 -47 45.5t-39 50.5q-27 41 -27 100v43q0 62 27 103q11 18 39 49t47 45q47 37 112 37h398v155q0 29 -6 43q-15 30 -47 65t-58 50q-17 10 -47 10h-215q-24 0 -45 -12
q-30 -15 -94 -102l-68 26q63 90 103 121q44 35 110 35h209q68 0 115 -37q19 -14 48 -46t40 -50q24 -36 24 -103v-503zM674 209v223h-400q-30 0 -51 -12q-61 -38 -94 -105q-8 -16 -8 -45v-49q0 -27 8 -43q15 -30 42.5 -60t55.5 -48q23 -13 54 -13h190q17 0 39 11
q41 21 91 59.5t73 81.5zM590 1317l-217 -275l-62 27l195 248h84z" />
    <glyph glyph-name="acircumflex" unicode="&#xe2;" horiz-adv-x="942" 
d="M764 0h-70l-16 115q-15 -21 -53.5 -52t-57.5 -43q-52 -30 -90 -30h-201q-65 0 -112 37q-19 14 -47 45.5t-39 50.5q-27 41 -27 100v43q0 62 27 103q11 18 39 49t47 45q47 37 112 37h398v155q0 29 -6 43q-15 30 -47 65t-58 50q-17 10 -47 10h-215q-24 0 -45 -12
q-30 -15 -94 -102l-68 26q63 90 103 121q44 35 110 35h209q68 0 115 -37q19 -14 48 -46t40 -50q24 -36 24 -103v-503zM674 209v223h-400q-30 0 -51 -12q-61 -38 -94 -105q-8 -16 -8 -45v-49q0 -27 8 -43q15 -30 42.5 -60t55.5 -48q23 -13 54 -13h190q17 0 39 11
q41 21 91 59.5t73 81.5zM162 1042l217 277h78l217 -277h-86l-170 220l-172 -220h-84z" />
    <glyph glyph-name="atilde" unicode="&#xe3;" horiz-adv-x="952" 
d="M764 0h-70l-16 115q-15 -21 -53.5 -52t-57.5 -43q-52 -30 -90 -30h-201q-65 0 -112 37q-19 14 -47 45.5t-39 50.5q-27 41 -27 100v43q0 62 27 103q11 18 39 49t47 45q47 37 112 37h398v155q0 29 -6 43q-15 30 -47 65t-58 50q-17 10 -47 10h-215q-24 0 -45 -12
q-30 -15 -94 -102l-68 26q63 90 103 121q44 35 110 35h209q68 0 115 -37q19 -14 48 -46t40 -50q24 -36 24 -103v-503zM674 209v223h-400q-30 0 -51 -12q-61 -38 -94 -105q-8 -16 -8 -45v-49q0 -27 8 -43q15 -30 42.5 -60t55.5 -48q23 -13 54 -13h190q17 0 39 11
q41 21 91 59.5t73 81.5zM694 1120l-65 -20q-17 38 -48.5 56.5t-64.5 12.5l-141 -45q-61 -21 -119 9.5t-82 101.5l66 20q17 -37 48 -55t64 -12l146 45q61 21 116.5 -10.5t79.5 -102.5z" />
    <glyph glyph-name="adieresis" unicode="&#xe4;" horiz-adv-x="942" 
d="M764 0h-70l-16 115q-15 -21 -53.5 -52t-57.5 -43q-52 -30 -90 -30h-201q-65 0 -112 37q-19 14 -47 45.5t-39 50.5q-27 41 -27 100v43q0 62 27 103q11 18 39 49t47 45q47 37 112 37h398v155q0 29 -6 43q-15 30 -47 65t-58 50q-17 10 -47 10h-215q-24 0 -45 -12
q-30 -15 -94 -102l-68 26q63 90 103 121q44 35 110 35h209q68 0 115 -37q19 -14 48 -46t40 -50q24 -36 24 -103v-503zM674 209v223h-400q-30 0 -51 -12q-61 -38 -94 -105q-8 -16 -8 -45v-49q0 -27 8 -43q15 -30 42.5 -60t55.5 -48q23 -13 54 -13h190q17 0 39 11
q41 21 91 59.5t73 81.5zM606 1133h-110v114h110v-114zM332 1133h-111v114h111v-114z" />
    <glyph glyph-name="aring" unicode="&#xe5;" horiz-adv-x="952" 
d="M614 1200q0 -74 -52.5 -126t-125.5 -52q-74 0 -126 51.5t-52 126.5q0 72 52.5 124t125.5 52q72 0 125 -52t53 -124zM553 1200q0 51 -33 85t-84 34q-50 0 -82 -33.5t-32 -85.5q0 -54 31.5 -87.5t82.5 -33.5t84 33.5t33 87.5zM764 0h-70l-16 115q-15 -21 -53.5 -52
t-57.5 -43q-52 -30 -90 -30h-201q-65 0 -112 37q-19 14 -47 45.5t-39 50.5q-27 41 -27 100v43q0 62 27 103q11 18 39 49t47 45q47 37 112 37h398v155q0 29 -6 43q-15 30 -47 65t-58 50q-17 10 -47 10h-215q-24 0 -45 -12q-30 -15 -94 -102l-68 26q63 90 103 121
q44 35 110 35h209q68 0 115 -37q19 -14 48 -46t40 -50q24 -36 24 -103v-503zM674 209v223h-400q-30 0 -51 -12q-61 -38 -94 -105q-8 -16 -8 -45v-49q0 -27 8 -43q15 -30 42.5 -60t55.5 -48q23 -13 54 -13h190q17 0 39 11q41 21 91 59.5t73 81.5z" />
    <glyph glyph-name="ae" unicode="&#xe6;" horiz-adv-x="1519" 
d="M1335 426h-610v-201q0 -26 6 -41q15 -30 47.5 -65.5t59.5 -50.5q19 -11 47 -11h231q28 0 47 11q24 13 52.5 44.5t44.5 59.5l63 -25q-16 -28 -44.5 -63.5t-53.5 -56.5q-47 -37 -113 -37h-229q-68 0 -115 37q-40 35 -78 84q-34 -44 -80 -84q-47 -37 -112 -37h-232
q-65 0 -112 37q-19 14 -47 45t-39 49q-27 44 -27 100v43q0 58 27 101q11 18 39 49t47 45q47 37 112 37h389v166q0 26 -6 36q-16 30 -47.5 65t-58.5 50q-18 10 -47 10h-205q-27 0 -45 -10q-24 -13 -53.5 -45t-45.5 -59l-65 24q15 26 46.5 62.5t57.5 58.5q47 37 111 37h201
q65 0 112 -37q41 -36 80 -86q35 45 84 88q38 35 109 35h225q66 0 113 -37q19 -14 48 -46t40 -50q26 -39 26 -105v-227zM1266 494v157q0 31 -6 43q-15 31 -47 66.5t-60 52.5q-18 10 -47 10h-223q-29 0 -47 -10q-27 -15 -59.5 -50t-47.5 -65q-4 -10 -4 -36v-168h541zM655 229
v199h-387q-26 0 -47 -12q-27 -16 -57.5 -46.5t-44.5 -60.5q-8 -16 -8 -47v-39q0 -29 8 -45q15 -30 45 -62.5t57 -47.5q12 -7 45 -11h230q28 0 47 11q28 18 59.5 52t46.5 64q6 12 6 45z" />
    <glyph glyph-name="ccedilla" unicode="&#xe7;" horiz-adv-x="925" 
d="M752 147q-50 -82 -101 -120q-47 -37 -112 -37h-230q-67 0 -114 37q-19 14 -48.5 47t-40.5 51q-24 36 -24 100v430q0 65 24 101q11 18 40.5 51t48.5 47q47 37 114 37h223q66 0 113 -37q56 -46 103 -121l-70 -22q-16 27 -45 58t-53 44q-18 10 -48 10h-225q-29 0 -47 -10
q-26 -15 -56.5 -48.5t-45.5 -64.5q-6 -12 -6 -45v-430q0 -33 6 -45q15 -30 47 -63t59 -49q19 -11 47 -11h230q28 0 47 11q23 13 51.5 44.5t44.5 59.5zM518 -109l-151 -231h-80l162 260z" />
    <glyph glyph-name="egrave" unicode="&#xe8;" horiz-adv-x="948" 
d="M764 403h-612v-174q0 -33 6 -45q15 -30 47 -65.5t59 -50.5q19 -11 45 -11h232q26 0 49 13q8 5 15 10t13.5 11t12 10.5t12 12.5t9.5 11.5t10 12.5t9 12t9 12.5t8 11.5l66 -27q-50 -82 -101 -120q-47 -37 -112 -37h-230q-67 0 -114 37q-19 14 -48 46.5t-40 51.5
q-27 40 -27 100v430q0 61 27 101q11 19 40 51.5t48 46.5q47 37 114 37h226q67 0 114 -37q19 -14 48 -46.5t40 -51.5q25 -38 25 -101v-252zM694 471v182q0 36 -4 45q-15 30 -47 65t-59 50q-17 10 -47 10h-228q-27 0 -45 -10q-27 -15 -59 -50t-47 -65q-6 -12 -6 -45v-182h542z
M512 1069l-63 -27l-218 275h86z" />
    <glyph glyph-name="eacute" unicode="&#xe9;" horiz-adv-x="948" 
d="M764 403h-612v-174q0 -33 6 -45q15 -30 47 -65.5t59 -50.5q19 -11 45 -11h232q26 0 49 13q8 5 15 10t13.5 11t12 10.5t12 12.5t9.5 11.5t10 12.5t9 12t9 12.5t8 11.5l66 -27q-50 -82 -101 -120q-47 -37 -112 -37h-230q-67 0 -114 37q-19 14 -48 46.5t-40 51.5
q-27 40 -27 100v430q0 61 27 101q11 19 40 51.5t48 46.5q47 37 114 37h226q67 0 114 -37q19 -14 48 -46.5t40 -51.5q25 -38 25 -101v-252zM694 471v182q0 36 -4 45q-15 30 -47 65t-59 50q-17 10 -47 10h-228q-27 0 -45 -10q-27 -15 -59 -50t-47 -65q-6 -12 -6 -45v-182h542z
M590 1317l-217 -275l-62 27l195 248h84z" />
    <glyph glyph-name="ecircumflex" unicode="&#xea;" horiz-adv-x="948" 
d="M764 403h-612v-174q0 -33 6 -45q15 -30 47 -65.5t59 -50.5q19 -11 45 -11h232q26 0 49 13q8 5 15 10t13.5 11t12 10.5t12 12.5t9.5 11.5t10 12.5t9 12t9 12.5t8 11.5l66 -27q-50 -82 -101 -120q-47 -37 -112 -37h-230q-67 0 -114 37q-19 14 -48 46.5t-40 51.5
q-27 40 -27 100v430q0 61 27 101q11 19 40 51.5t48 46.5q47 37 114 37h226q67 0 114 -37q19 -14 48 -46.5t40 -51.5q25 -38 25 -101v-252zM694 471v182q0 36 -4 45q-15 30 -47 65t-59 50q-17 10 -47 10h-228q-27 0 -45 -10q-27 -15 -59 -50t-47 -65q-6 -12 -6 -45v-182h542z
M162 1042l217 277h78l217 -277h-86l-170 220l-172 -220h-84z" />
    <glyph glyph-name="edieresis" unicode="&#xeb;" horiz-adv-x="948" 
d="M764 403h-612v-174q0 -33 6 -45q15 -30 47 -65.5t59 -50.5q19 -11 45 -11h232q26 0 49 13q8 5 15 10t13.5 11t12 10.5t12 12.5t9.5 11.5t10 12.5t9 12t9 12.5t8 11.5l66 -27q-50 -82 -101 -120q-47 -37 -112 -37h-230q-67 0 -114 37q-19 14 -48 46.5t-40 51.5
q-27 40 -27 100v430q0 61 27 101q11 19 40 51.5t48 46.5q47 37 114 37h226q67 0 114 -37q19 -14 48 -46.5t40 -51.5q25 -38 25 -101v-252zM694 471v182q0 36 -4 45q-15 30 -47 65t-59 50q-17 10 -47 10h-228q-27 0 -45 -10q-27 -15 -59 -50t-47 -65q-6 -12 -6 -45v-182h542z
M606 1133h-110v114h110v-114zM332 1133h-111v114h111v-114z" />
    <glyph glyph-name="igrave" unicode="&#xec;" horiz-adv-x="421" 
d="M160 0h-70v881h70v-881zM180 1069l-63 -27l-217 275h86z" />
    <glyph glyph-name="iacute" unicode="&#xed;" horiz-adv-x="421" 
d="M160 0h-70v881h70v-881zM360 1317l-217 -275l-61 27l194 248h84z" />
    <glyph glyph-name="icircumflex" unicode="&#xee;" horiz-adv-x="421" 
d="M160 0h-70v881h70v-881zM-133 1042l217 277h78l217 -277h-86l-170 220l-172 -220h-84z" />
    <glyph glyph-name="idieresis" unicode="&#xef;" horiz-adv-x="421" 
d="M160 0h-70v881h70v-881zM317 1133h-110v114h110v-114zM43 1133h-111v114h111v-114z" />
    <glyph glyph-name="eth" unicode="&#xf0;" horiz-adv-x="956" 
d="M713 1135l-150 -76l84 -43q115 -61 115 -174v-617q0 -53 -27 -96q-10 -16 -43 -53.5t-51 -50.5q-44 -35 -106 -35h-224q-62 0 -106 35q-18 13 -52 50.5t-44 53.5q-27 43 -27 96v437q0 50 27 96q9 15 43 51t53 51q39 33 106 33h183q57 0 92 -25q51 -38 106 -100v66
q0 38 -21 70t-53 50l-133 68l-118 -61l-33 53l84 43l-248 135l33 57l289 -155l188 98zM152 659v-432q0 -27 8 -43q15 -30 47 -65.5t59 -50.5q19 -11 47 -11h219q27 0 46 11q27 15 59 50.5t47 65.5q8 16 8 43v418q0 20 -10 37q-21 38 -64 75.5t-77 57.5q-20 10 -45 10h-183
q-26 0 -47 -12q-28 -15 -59.5 -48t-46.5 -63q-8 -16 -8 -43z" />
    <glyph glyph-name="ntilde" unicode="&#xf1;" horiz-adv-x="968" 
d="M82 881h70l14 -115q13 18 49.5 47t63.5 47q45 31 90 31h168q68 0 112 -35q19 -14 48 -46.5t40 -51.5q27 -41 27 -101v-657h-70v653q0 35 -6 47q-15 30 -47 64t-59 49q-18 10 -47 10h-160q-23 0 -39 -8q-27 -15 -56 -34t-66 -53t-48 -64v-664h-70v750zM705 1120l-66 -20
q-17 38 -48.5 56.5t-64.5 12.5l-141 -45q-61 -21 -119 9.5t-82 101.5l66 20q17 -37 48 -55t64 -12l146 45q61 21 117 -10.5t80 -102.5z" />
    <glyph glyph-name="ograve" unicode="&#xf2;" horiz-adv-x="935" 
d="M752 655v-430q0 -63 -25 -100q-11 -19 -40 -51.5t-48 -46.5q-47 -37 -115 -37h-225q-68 0 -115 37q-19 14 -48 46.5t-40 51.5q-24 36 -24 100v430q0 65 24 101q11 19 40 51.5t48 46.5q47 37 115 37h225q68 0 115 -37q19 -14 48 -46.5t40 -51.5q25 -38 25 -101zM682 225
v432q0 31 -6 45q-14 29 -46.5 62t-60.5 49q-17 10 -47 10h-223q-29 0 -47 -10q-27 -16 -58.5 -48.5t-46.5 -62.5q-6 -12 -6 -45v-432q0 -33 6 -45q14 -30 46.5 -63t60.5 -49q19 -11 47 -11h223q28 0 47 11q27 15 58.5 48.5t46.5 63.5q6 14 6 45zM512 1069l-63 -27l-218 275
h86z" />
    <glyph glyph-name="oacute" unicode="&#xf3;" horiz-adv-x="935" 
d="M752 655v-430q0 -63 -25 -100q-11 -19 -40 -51.5t-48 -46.5q-47 -37 -115 -37h-225q-68 0 -115 37q-19 14 -48 46.5t-40 51.5q-24 36 -24 100v430q0 65 24 101q11 19 40 51.5t48 46.5q47 37 115 37h225q68 0 115 -37q19 -14 48 -46.5t40 -51.5q25 -38 25 -101zM682 225
v432q0 31 -6 45q-14 29 -46.5 62t-60.5 49q-17 10 -47 10h-223q-29 0 -47 -10q-27 -16 -58.5 -48.5t-46.5 -62.5q-6 -12 -6 -45v-432q0 -33 6 -45q14 -30 46.5 -63t60.5 -49q19 -11 47 -11h223q28 0 47 11q27 15 58.5 48.5t46.5 63.5q6 14 6 45zM590 1317l-217 -275l-62 27
l195 248h84z" />
    <glyph glyph-name="ocircumflex" unicode="&#xf4;" horiz-adv-x="935" 
d="M752 655v-430q0 -63 -25 -100q-11 -19 -40 -51.5t-48 -46.5q-47 -37 -115 -37h-225q-68 0 -115 37q-19 14 -48 46.5t-40 51.5q-24 36 -24 100v430q0 65 24 101q11 19 40 51.5t48 46.5q47 37 115 37h225q68 0 115 -37q19 -14 48 -46.5t40 -51.5q25 -38 25 -101zM682 225
v432q0 31 -6 45q-14 29 -46.5 62t-60.5 49q-17 10 -47 10h-223q-29 0 -47 -10q-27 -16 -58.5 -48.5t-46.5 -62.5q-6 -12 -6 -45v-432q0 -33 6 -45q14 -30 46.5 -63t60.5 -49q19 -11 47 -11h223q28 0 47 11q27 15 58.5 48.5t46.5 63.5q6 14 6 45zM162 1042l217 277h78
l217 -277h-86l-170 220l-172 -220h-84z" />
    <glyph glyph-name="otilde" unicode="&#xf5;" horiz-adv-x="935" 
d="M752 655v-430q0 -63 -25 -100q-11 -19 -40 -51.5t-48 -46.5q-47 -37 -115 -37h-225q-68 0 -115 37q-19 14 -48 46.5t-40 51.5q-24 36 -24 100v430q0 65 24 101q11 19 40 51.5t48 46.5q47 37 115 37h225q68 0 115 -37q19 -14 48 -46.5t40 -51.5q25 -38 25 -101zM682 225
v432q0 31 -6 45q-14 29 -46.5 62t-60.5 49q-17 10 -47 10h-223q-29 0 -47 -10q-27 -16 -58.5 -48.5t-46.5 -62.5q-6 -12 -6 -45v-432q0 -33 6 -45q14 -30 46.5 -63t60.5 -49q19 -11 47 -11h223q28 0 47 11q27 15 58.5 48.5t46.5 63.5q6 14 6 45zM674 1120l-66 -20
q-17 38 -48 56.5t-64 12.5l-142 -45q-61 -21 -118.5 9.5t-81.5 101.5l65 20q17 -37 48.5 -55t64.5 -12l145 45q61 21 117 -10.5t80 -102.5z" />
    <glyph glyph-name="odieresis" unicode="&#xf6;" horiz-adv-x="935" 
d="M752 655v-430q0 -63 -25 -100q-11 -19 -40 -51.5t-48 -46.5q-47 -37 -115 -37h-225q-68 0 -115 37q-19 14 -48 46.5t-40 51.5q-24 36 -24 100v430q0 65 24 101q11 19 40 51.5t48 46.5q47 37 115 37h225q68 0 115 -37q19 -14 48 -46.5t40 -51.5q25 -38 25 -101zM682 225
v432q0 31 -6 45q-14 29 -46.5 62t-60.5 49q-17 10 -47 10h-223q-29 0 -47 -10q-27 -16 -58.5 -48.5t-46.5 -62.5q-6 -12 -6 -45v-432q0 -33 6 -45q14 -30 46.5 -63t60.5 -49q19 -11 47 -11h223q28 0 47 11q27 15 58.5 48.5t46.5 63.5q6 14 6 45zM606 1133h-110v114h110v-114
zM332 1133h-111v114h111v-114z" />
    <glyph glyph-name="divide" unicode="&#xf7;" horiz-adv-x="884" 
d="M451 612h-125v133h125v-133zM451 0h-125v133h125v-133zM707 340h-625v68h625v-68z" />
    <glyph glyph-name="oslash" unicode="&#xf8;" horiz-adv-x="935" 
d="M752 655v-430q0 -63 -25 -100q-11 -19 -40 -51.5t-48 -46.5q-47 -37 -115 -37h-225q-34 0 -74 14l-30 -63h-80l51 102q-50 47 -70 82q-24 36 -24 100v430q0 65 24 101q11 19 40 51.5t48 46.5q47 37 115 37h225q31 0 64 -10l24 49h76l-41 -82q44 -41 80 -92
q25 -38 25 -101zM682 225v432q0 31 -6 45q-25 45 -64 78l-356 -714q16 -9 45 -9h223q28 0 47 11q27 15 58.5 48.5t46.5 63.5q6 14 6 45zM147 180q12 -27 54 -69l356 708q-12 4 -35 4h-223q-29 0 -47 -10q-27 -16 -58.5 -48.5t-46.5 -62.5q-6 -12 -6 -45v-432q0 -33 6 -45z
" />
    <glyph glyph-name="ugrave" unicode="&#xf9;" horiz-adv-x="956" 
d="M694 0h70l-14 131v750h-70v-664q-11 -30 -48 -64t-66 -53t-56 -34q-18 -9 -39 -9h-160q-28 0 -47 11q-27 15 -59 48.5t-47 63.5q-6 12 -6 47v654h-70v-658q0 -59 27 -100q11 -19 40 -51.5t48 -46.5q44 -35 112 -35h168q47 0 90 30q26 18 63 47.5t50 47.5zM512 1069
l-63 -27l-218 275h86z" />
    <glyph glyph-name="uacute" unicode="&#xfa;" horiz-adv-x="956" 
d="M694 0h70l-14 131v750h-70v-664q-11 -30 -48 -64t-66 -53t-56 -34q-18 -9 -39 -9h-160q-28 0 -47 11q-27 15 -59 48.5t-47 63.5q-6 12 -6 47v654h-70v-658q0 -59 27 -100q11 -19 40 -51.5t48 -46.5q44 -35 112 -35h168q47 0 90 30q26 18 63 47.5t50 47.5zM590 1317
l-217 -275l-62 27l195 248h84z" />
    <glyph glyph-name="ucircumflex" unicode="&#xfb;" horiz-adv-x="956" 
d="M694 0h70l-14 131v750h-70v-664q-11 -30 -48 -64t-66 -53t-56 -34q-18 -9 -39 -9h-160q-28 0 -47 11q-27 15 -59 48.5t-47 63.5q-6 12 -6 47v654h-70v-658q0 -59 27 -100q11 -19 40 -51.5t48 -46.5q44 -35 112 -35h168q47 0 90 30q26 18 63 47.5t50 47.5zM172 1042
l217 277h78l217 -277h-86l-170 220l-172 -220h-84z" />
    <glyph glyph-name="udieresis" unicode="&#xfc;" horiz-adv-x="956" 
d="M694 0h70l-14 131v750h-70v-664q-11 -30 -48 -64t-66 -53t-56 -34q-18 -9 -39 -9h-160q-28 0 -47 11q-27 15 -59 48.5t-47 63.5q-6 12 -6 47v654h-70v-658q0 -59 27 -100q11 -19 40 -51.5t48 -46.5q44 -35 112 -35h168q47 0 90 30q26 18 63 47.5t50 47.5zM602 1133h-110
v114h110v-114zM328 1133h-111v114h111v-114z" />
    <glyph glyph-name="yacute" unicode="&#xfd;" horiz-adv-x="819" 
d="M692 881l-379 -1217h-77l112 336h-53l-277 881h76l248 -809h29l247 809h74zM530 1317l-217 -275l-61 27l194 248h84z" />
    <glyph glyph-name="thorn" unicode="&#xfe;" horiz-adv-x="958" 
d="M774 657v-436q0 -59 -26 -98q-14 -21 -42.5 -52.5t-46.5 -45.5q-44 -35 -112 -35h-180q-47 0 -91 30q-28 19 -65.5 50t-46.5 49v-455h-70l-2 1553h70l2 -437l2 -18q54 60 106 96q48 33 95 33h180q65 0 112 -37q20 -15 49 -46.5t40 -49.5q26 -39 26 -101zM705 227v426
q0 29 -9 47q-15 30 -46 63t-58 48q-21 12 -47 12h-172q-23 0 -39 -8q-39 -20 -95 -66t-75 -87v-445q11 -30 48 -64t66 -53t56 -34q18 -9 39 -9h174q28 0 47 11q27 14 56.5 47.5t45.5 64.5q9 18 9 47z" />
    <glyph glyph-name="ydieresis" unicode="&#xff;" horiz-adv-x="819" 
d="M692 881l-379 -1217h-77l112 336h-53l-277 881h76l248 -809h29l247 809h74zM547 1133h-111v114h111v-114zM272 1133h-110v114h110v-114z" />
    <glyph glyph-name="dotlessi" unicode="&#x131;" horiz-adv-x="366" 
d="M160 0h-70v881h70v-881z" />
    <glyph glyph-name="Lslash" unicode="&#x141;" horiz-adv-x="954" 
d="M424 664l-207 -111v-481h586v-72h-660v514l-157 -82l-33 60l190 100v625h74v-586l174 94z" />
    <glyph glyph-name="lslash" unicode="&#x142;" horiz-adv-x="493" 
d="M225 0h-69q-1 10 -4.5 31t-6 37.5t-2.5 29.5v418l-159 -84l-33 60l192 102v623h70v-586l176 94l33 -61l-209 -111v-430q0 -17 2 -37.5t5.5 -46t4.5 -39.5z" />
    <glyph glyph-name="OE" unicode="&#x152;" horiz-adv-x="1748" 
d="M1516 0h-672v92q-58 -62 -80 -74q-51 -30 -92 -30h-324q-39 0 -90 30q-25 18 -71.5 66t-61.5 72q-21 33 -21 90v723q0 51 21 88q15 25 61.5 74.5t71.5 66.5q46 31 90 31h324q46 0 92 -31q24 -16 80 -76v95h672v-72h-598v-496h559v-71h-559v-506h598v-72zM844 246v739
l-8 27q-21 37 -63 79t-71 58q-16 8 -36 8h-310q-18 0 -34 -8q-29 -16 -71 -58t-63 -79q-10 -17 -10 -41v-727q0 -26 8 -39q21 -33 67 -78.5t69 -58.5q18 -9 34 -9h310q18 0 36 9q28 15 69.5 57t64.5 80q8 13 8 41z" />
    <glyph glyph-name="oe" unicode="&#x153;" horiz-adv-x="1546" 
d="M1364 403h-612v-174q0 -33 6 -45q15 -30 47 -65.5t59 -50.5q19 -11 45 -11h232q26 0 49 13q8 5 15 10t13.5 11t12 10.5t12 12.5t9.5 11.5t10 12.5t9 12t9 12.5t8 11.5l66 -27q-50 -82 -101 -120q-47 -37 -112 -37h-230q-67 0 -114 37q-37 26 -80 84q-37 -55 -78 -84
q-47 -37 -115 -37h-225q-68 0 -115 37q-19 14 -48 46.5t-40 51.5q-24 36 -24 100v430q0 65 24 101q11 19 40 51.5t48 46.5q47 37 115 37h225q68 0 115 -37q43 -34 78 -86q41 56 80 86q47 37 114 37h226q67 0 114 -37q19 -14 48 -46.5t40 -51.5q25 -38 25 -101v-252zM676 180
q6 15 6 31v14v432v13q0 17 -6 32q-14 29 -46.5 62t-60.5 49q-17 10 -47 10h-223q-29 0 -47 -10q-27 -16 -58.5 -48.5t-46.5 -62.5q-6 -12 -6 -45v-432q0 -33 6 -45q14 -30 46.5 -63t60.5 -49q19 -11 47 -11h223q28 0 47 11q27 15 58.5 48.5t46.5 63.5zM1294 471v182
q0 36 -4 45q-15 30 -47 65t-59 50q-18 10 -47 10h-228q-27 0 -45 -10q-27 -15 -59 -50t-47 -65q-6 -12 -6 -45v-182h542z" />
    <glyph glyph-name="Scaron" unicode="&#x160;" horiz-adv-x="1105" 
d="M911 246q0 -51 -22 -90q-15 -24 -61.5 -72t-71.5 -66q-51 -30 -90 -30h-338q-50 0 -92 30q-40 30 -82 81.5t-68 99.5l74 20q24 -42 65.5 -88t71.5 -63q18 -9 37 -9h323q20 0 35 9q30 16 73 58.5t64 78.5q9 18 9 43v133q0 39 -22.5 75t-59.5 46l-555 157q-49 13 -81 64
t-32 113v133q0 53 21 90q16 26 62.5 75.5t70.5 63.5q52 31 90 31h307q38 0 90 -31q80 -51 154 -180l-74 -23q-19 41 -61.5 87.5t-75.5 66.5q-16 8 -39 8h-293q-21 0 -37 -8q-28 -15 -71 -59.5t-64 -81.5q-6 -15 -6 -39v-127q0 -38 22 -71.5t56 -43.5l557 -160q50 -13 82 -62
t32 -110v-149zM752 1614l-217 -277h-78l-217 277h86l170 -219l172 219h84z" />
    <glyph glyph-name="scaron" unicode="&#x161;" horiz-adv-x="915" 
d="M649 1319l-217 -277h-78l-217 277h86l170 -219l172 219h84zM731 217q0 -63 -26 -102q-11 -18 -35.5 -44.5t-44.5 -41.5q-49 -39 -113 -39h-246q-65 0 -112 37q-25 21 -54 56.5t-45 63.5l66 27q17 -30 44 -62t50 -44q19 -11 47 -11h248q28 0 47 11q28 16 56 44.5t42 57.5
q7 14 7 49v78q0 42 -29 71.5t-68 32.5l-338 25q-71 4 -115 53t-44 119v66q0 63 26 102q11 18 36 46t44 42q47 37 113 37h213q65 0 112 -37q50 -37 101 -121l-64 -24q-16 28 -45 59.5t-53 44.5q-17 10 -45 10h-217q-33 0 -51 -10q-66 -41 -95 -100q-6 -12 -6 -51v-64
q0 -42 28.5 -71.5t67.5 -32.5l338 -25q71 -4 115.5 -54t44.5 -120v-78z" />
    <glyph glyph-name="Ydieresis" unicode="&#x178;" horiz-adv-x="911" 
d="M815 1217l-377 -674v-543h-73v543l-375 674h82l329 -599l332 599h82zM592 1427h-111v115h111v-115zM317 1427h-110v115h110v-115z" />
    <glyph glyph-name="Zcaron" unicode="&#x17d;" horiz-adv-x="952" 
d="M782 0h-712v70l630 1075h-630v72h712v-74l-628 -1071h628v-72zM707 1614l-218 -277h-77l-217 277h86l170 -219l172 219h84z" />
    <glyph glyph-name="zcaron" unicode="&#x17e;" horiz-adv-x="837" 
d="M674 0h-602v59l495 754h-512v68h596v-64l-495 -749h518v-68zM629 1319l-217 -277h-78l-217 277h86l170 -219l172 219h84z" />
    <glyph glyph-name="florin" unicode="&#x192;" horiz-adv-x="641" 
d="M528 813h-268v-936q0 -64 -24 -100q-11 -18 -40 -49.5t-49 -46.5q-42 -33 -112 -33h-109v67h107q33 0 47 9q27 15 57 46.5t45 61.5q8 16 8 45v123v813h-145v68h145v2v114q0 63 25 101q11 18 40 50t48 46q44 35 115 35h110v-68h-108q-38 0 -53 -10q-71 -44 -101 -102
q-6 -14 -6 -50v-116v-2h268v-68z" />
    <glyph glyph-name="circumflex" unicode="&#x2c6;" horiz-adv-x="868" 
d="M162 1042l217 277h78l217 -277h-86l-170 220l-172 -220h-84z" />
    <glyph glyph-name="caron" unicode="&#x2c7;" horiz-adv-x="868" 
d="M674 1319l-217 -277h-78l-217 277h86l170 -219l172 219h84z" />
    <glyph glyph-name="breve" unicode="&#x2d8;" horiz-adv-x="696" 
d="M426 1262h66q0 -79 -56 -134t-133 -55t-132.5 55t-55.5 134l69 -2q0 -57 32.5 -91t86.5 -34t88.5 35t34.5 92z" />
    <glyph glyph-name="dotaccent" unicode="&#x2d9;" horiz-adv-x="391" 
d="M184 1130h-100v107h100v-107z" />
    <glyph glyph-name="ring" unicode="&#x2da;" horiz-adv-x="765" 
d="M518 1200q0 -74 -52.5 -126t-125.5 -52q-74 0 -126 51.5t-52 126.5q0 72 52.5 124t125.5 52q72 0 125 -52t53 -124zM457 1200q0 51 -33 85t-84 34t-83 -34t-32 -85q0 -54 32 -87.5t83 -33.5t84 33.5t33 87.5z" />
    <glyph glyph-name="ogonek" unicode="&#x2db;" horiz-adv-x="831" 
d="M412 -340l-152 231l70 29l162 -260h-80z" />
    <glyph glyph-name="tilde" unicode="&#x2dc;" horiz-adv-x="847" 
d="M643 1120l-65 -20q-17 38 -48.5 56.5t-64.5 12.5l-141 -45q-61 -21 -119 9.5t-82 101.5l65 20q17 -37 48.5 -55t64.5 -12l145 45q61 21 117 -10.5t80 -102.5z" />
    <glyph glyph-name="hungarumlaut" unicode="&#x2dd;" horiz-adv-x="759" 
d="M705 1317l-218 -275l-61 27l195 248h84zM518 1317l-217 -275l-61 27l194 248h84z" />
    <glyph glyph-name="pi" unicode="&#x3c0;" horiz-adv-x="1128" 
d="M827 0h-69q0 3 -8.5 53.5t-8.5 67.5v692h-467v-813h-69v813h-168v68h948v-68h-174v-672q0 -23 7.5 -77.5t8.5 -63.5z" />
    <glyph glyph-name="endash" unicode="&#x2013;" horiz-adv-x="921" 
d="M707 473h-625v66h625v-66z" />
    <glyph glyph-name="emdash" unicode="&#x2014;" horiz-adv-x="1110" 
d="M895 475h-813v64h813v-64z" />
    <glyph glyph-name="quoteleft" unicode="&#x2018;" horiz-adv-x="446" 
d="M326 1292l-111 -309h-82l123 338z" />
    <glyph glyph-name="quoteright" unicode="&#x2019;" horiz-adv-x="385" 
d="M72 1012l110 309h82l-123 -338z" />
    <glyph glyph-name="quotesinglbase" unicode="&#x201a;" horiz-adv-x="399" 
d="M279 131l-111 -309h-82l123 338z" />
    <glyph glyph-name="quotedblleft" unicode="&#x201c;" horiz-adv-x="688" 
d="M133 1012l111 309h82l-123 -338zM375 1012l110 309h82l-123 -338z" />
    <glyph glyph-name="quotedblright" unicode="&#x201d;" horiz-adv-x="626" 
d="M506 1292l-111 -309h-82l123 338zM264 1292l-110 -309h-82l123 338z" />
    <glyph glyph-name="quotedblbase" unicode="&#x201e;" horiz-adv-x="641" 
d="M520 131l-110 -309h-82l123 338zM279 131l-111 -309h-82l123 338z" />
    <glyph glyph-name="dagger" unicode="&#x2020;" horiz-adv-x="681" 
d="M477 784h-143v-542h-70v542h-141v68h141v365h70v-365h143v-68z" />
    <glyph glyph-name="daggerdbl" unicode="&#x2021;" horiz-adv-x="681" 
d="M121 430h143v354h-141v68h141v362h70v-362h143v-68h-143v-354h141v-68h-141v-362h-70v362h-143v68z" />
    <glyph glyph-name="bullet" unicode="&#x2022;" horiz-adv-x="876" 
d="M602 494q0 -61 -33 -109q-11 -17 -39.5 -46.5t-44.5 -41.5q-37 -27 -84 -27h-55q-46 0 -84 27q-17 13 -47 43t-41 47q-31 45 -31 107v43q0 55 33 106q11 18 40 47.5t46 42.5q38 27 84 27h55q47 0 84 -27q61 -48 84 -86q33 -51 33 -110v-43z" />
    <glyph glyph-name="ellipsis" unicode="&#x2026;" horiz-adv-x="1241" 
d="M956 0h-118v139h118v-139zM637 0h-119v139h119v-139zM315 0h-118v139h118v-139z" />
    <glyph glyph-name="perthousand" unicode="&#x2030;" horiz-adv-x="1869" 
d="M1001 1229l-622 -1229h-76l625 1229h73zM1352 92q-19 27 -19 74v254q0 47 19 74q37 49 65 71q37 29 82 29h148q45 0 82 -29q28 -22 65 -71q18 -26 18 -74v-254q0 -48 -18 -74q-39 -51 -65 -72q-36 -28 -82 -28h-148q-46 0 -82 28q-26 21 -65 72zM1399 174q0 -23 4 -31
q8 -19 30.5 -44t36.5 -33q15 -9 33 -9h139q18 0 33 9q14 9 37 33.5t31 43.5q4 8 4 31v238q0 22 -4 30q-8 19 -31 44t-37 34q-13 8 -33 8h-139q-20 0 -33 -8t-36 -33.5t-31 -44.5q-4 -8 -4 -30v-238zM90 725q-18 26 -18 74v254q0 47 18 73q37 50 66 72q37 29 82 29h147
q45 0 82 -29q26 -21 65 -72q19 -27 19 -73v-254q0 -47 -19 -74q-39 -51 -65 -72q-36 -28 -82 -28h-147q-46 0 -82 28q-29 22 -66 72zM137 807q0 -23 4 -31q8 -19 31 -44t37 -34q13 -8 33 -8h139q20 0 33 8t36 33.5t31 44.5q4 8 4 31v237q0 23 -4 31q-8 19 -31 44.5t-36 33.5
t-33 8h-139q-20 0 -33 -8q-14 -9 -37 -34t-31 -44q-4 -8 -4 -31v-237zM760 92q-19 27 -19 74v254q0 47 19 74q37 49 65 71q37 29 82 29h148q45 0 82 -29q28 -22 65 -71q19 -27 19 -74v-254q0 -47 -19 -74q-39 -51 -65 -72q-36 -28 -82 -28h-148q-46 0 -82 28q-26 21 -65 72z
M807 174q0 -23 4 -31q8 -19 31 -43.5t37 -33.5q15 -9 32 -9h140q17 0 32 9q14 9 37 33.5t31 43.5q4 8 4 31v238q0 22 -4 30q-8 19 -31 44t-37 34q-13 8 -32 8h-140q-19 0 -32 -8q-14 -9 -37 -34t-31 -44q-4 -8 -4 -30v-238z" />
    <glyph glyph-name="guilsinglleft" unicode="&#x2039;" horiz-adv-x="763" 
d="M246 508l254 -291l-76 -24l-274 313l274 317l78 -26z" />
    <glyph glyph-name="guilsinglright" unicode="&#x203a;" horiz-adv-x="763" 
d="M152 217l254 291l-256 289l77 26l275 -317l-275 -313z" />
    <glyph glyph-name="fraction" unicode="&#x2044;" horiz-adv-x="1327" 
 />
    <glyph glyph-name="Euro" unicode="&#x20ac;" horiz-adv-x="1171" 
d="M950 199q-75 -131 -153 -181q-51 -30 -90 -30h-289q-41 0 -92 30q-24 14 -69.5 63t-61.5 75q-23 36 -23 88v215h-88v67h88v160h-88v68h88v215q0 52 23 88q16 26 61.5 75.5t69.5 63.5q52 31 90 31h291q38 0 90 -31q79 -50 153 -180l-73 -23q-20 41 -62 88t-76 66
q-16 8 -39 8h-282q-19 0 -35 -8q-28 -15 -66.5 -56t-60.5 -79q-10 -17 -10 -47v-211h477v-68h-477v-160h477v-67h-477v-215q0 -17 10 -37q21 -37 63.5 -80t71.5 -59q18 -9 35 -9h276q19 0 37 9q30 18 70.5 64t64.5 87z" />
    <glyph glyph-name="trademark" unicode="&#x2122;" horiz-adv-x="1247" 
d="M1042 649h-61v510h-10l-150 -299h-45l-137 297h-10v-508h-62v565h111l121 -266l129 266h114v-565zM455 1157h-140v-508h-61v508h-154v57h355v-57z" />
    <glyph glyph-name="Omega" unicode="&#x2126;" horiz-adv-x="1214" 
d="M1012 0h-367v68l158 163q63 63 78 101q6 18 6 43v594q0 24 -10 41q-21 38 -62.5 81t-69.5 58q-16 8 -34 8h-357q-19 0 -35 -8q-28 -15 -68.5 -58t-62.5 -81q-10 -17 -10 -41v-594q0 -25 6 -43q15 -38 78 -101l158 -163v-68h-367v68h271l-115 118q-58 58 -80 95
q-25 39 -25 90v598q0 53 21 90q16 26 62.5 75.5t70.5 63.5q52 31 90 31h369q38 0 90 -31q24 -14 70.5 -63.5t62.5 -75.5q21 -38 21 -90v-598q0 -51 -25 -90q-23 -38 -80 -95l-117 -118h273v-68z" />
    <glyph glyph-name="partialdiff" unicode="&#x2202;" horiz-adv-x="964" 
d="M684 762v246q0 25 -6 39q-15 29 -42.5 57.5t-55.5 46.5q-18 12 -54 12h-209l-20 66h229q71 0 115 -35q19 -14 48 -46t40 -50q25 -38 25 -90v-783q0 -63 -25 -100q-11 -19 -40 -51.5t-48 -46.5q-47 -37 -115 -37h-225q-66 0 -113 37q-19 14 -48 46t-40 50q-26 39 -26 100
v436q0 60 26 99q15 21 42.5 52.5t45.5 45.5q44 35 113 35h180q45 0 90 -31q30 -20 67 -50t46 -48zM303 57h221q28 0 47 11q27 15 59.5 49.5t47.5 64.5q6 12 6 45v437q-11 30 -48 64t-66 53t-56 34q-16 8 -39 8h-174q-29 0 -47 -10q-27 -14 -56.5 -48t-45.5 -65
q-9 -18 -9 -47v-426q0 -29 9 -47q15 -30 46 -62.5t58 -47.5q23 -13 47 -13z" />
    <glyph glyph-name="Delta" unicode="&#x2206;" horiz-adv-x="1069" 
d="M926 0h-936l393 1217h149zM825 72l-340 1075h-57l-338 -1075h735z" />
    <glyph glyph-name="product" unicode="&#x220f;" horiz-adv-x="1116" 
d="M102 1219h785v-1217h-74v1145h-637v-1145h-74v1217z" />
    <glyph glyph-name="summation" unicode="&#x2211;" horiz-adv-x="1116" 
d="M815 0h-713v70l394 555l-390 524v70h703v-72h-619l390 -522l-394 -553h629v-72z" />
    <glyph glyph-name="minus" unicode="&#x2212;" horiz-adv-x="921" 
d="M707 473h-625v68h625v-68z" />
    <glyph glyph-name="radical" unicode="&#x221a;" horiz-adv-x="1067" 
d="M971 1528l-439 -1528h-149l-236 813h-208v68h268l229 -809h45l418 1456h72z" />
    <glyph glyph-name="infinity" unicode="&#x221e;" horiz-adv-x="1417" 
d="M141 387q-18 26 -18 74v131q0 48 18 74q35 47 66 71q37 29 82 29h229q45 0 82 -29q15 -12 51 -53q29 37 51 53q37 29 82 29h230q45 0 82 -29q28 -22 65 -71q19 -27 19 -74v-131q0 -47 -19 -74q-39 -51 -65 -72q-36 -28 -82 -28h-230q-46 0 -82 28q-20 14 -51 54
q-39 -44 -51 -54q-36 -28 -82 -28h-229q-46 0 -82 28q-29 22 -66 72zM688 614q-4 -8 -4 -16v-6v-131v-8q0 -7 4 -15q8 -19 31 -44t37 -34q13 -8 32 -8h222q19 0 32 8q14 9 37 34t31 44q4 8 4 31v115q0 22 -4 30q-8 19 -31 44t-37 34q-13 8 -32 8h-222q-19 0 -32 -8
q-14 -9 -37 -34t-31 -44zM188 469q0 -21 5 -31q8 -19 31 -44.5t36 -33.5t33 -8h221q20 0 33 8t36 33.5t31 44.5q4 8 4 15v8v8v115v8v6q0 8 -4 16q-8 19 -31 44.5t-36 33.5t-33 8h-221q-20 0 -33 -8t-36 -33.5t-31 -44.5q-5 -10 -5 -30v-115z" />
    <glyph glyph-name="integral" unicode="&#x222b;" horiz-adv-x="409" 
d="M188 -117q0 -67 -22 -100q-11 -18 -40 -50t-48 -46q-42 -33 -113 -33h-108v67h106q35 0 49 9q27 14 56 47t45 63q6 12 6 47v1121q0 54 24 90q11 18 40 50t48 46q44 35 115 35h123v-66h-123q-35 0 -53 -12q-28 -18 -55.5 -46.5t-42.5 -57.5q-7 -16 -7 -39v-1125z" />
    <glyph glyph-name="approxequal" unicode="&#x2248;" horiz-adv-x="964" 
d="M733 338l-65 -21q-17 38 -48.5 57t-64.5 13l-248 -78q-61 -21 -119 9.5t-82 101.5l66 20q17 -37 48.5 -55t64.5 -12l252 78q61 21 116.5 -10.5t79.5 -102.5zM733 606l-65 -20q-17 38 -48.5 56.5t-64.5 12.5l-248 -77q-61 -21 -119 9.5t-82 100.5l66 21q17 -37 48.5 -55.5
t64.5 -12.5l252 78q61 21 116.5 -10.5t79.5 -102.5z" />
    <glyph glyph-name="notequal" unicode="&#x2260;" horiz-adv-x="964" 
d="M666 877l-107 -197h191v-74h-230l-104 -192h334v-74h-373l-111 -205h-78l111 205h-213v74h252l104 192h-356v74h397l107 197h76z" />
    <glyph glyph-name="lessequal" unicode="&#x2264;" horiz-adv-x="917" 
d="M717 913l-578 -342l576 -350v-84l-664 400v67l666 393v-84z" />
    <glyph glyph-name="greaterequal" unicode="&#x2265;" horiz-adv-x="917" 
d="M72 221l577 344l-575 348v84l663 -397v-68l-665 -395v84z" />
    <glyph glyph-name="lozenge" unicode="&#x25ca;" horiz-adv-x="1271" 
d="M1077 250q0 -52 -24 -90q-15 -25 -60.5 -72.5t-70.5 -64.5q-52 -31 -95 -31h-499q-40 0 -92 31q-25 18 -71 65.5t-61 71.5q-20 36 -20 90v713q0 54 20 90q15 27 62.5 77.5t71.5 65.5q52 31 92 31h497q43 0 95 -31q24 -15 70 -64.5t61 -76.5q24 -37 24 -90v-715zM1008 961
q0 22 -11 40q-22 39 -65 86t-70 62q-13 8 -39 8h-489q-26 0 -39 -8q-28 -15 -70.5 -61t-62.5 -84q-8 -16 -8 -43v-707q0 -25 8 -41q20 -37 63 -82t72 -61q15 -9 37 -9h487q22 0 37 9q30 16 76 61.5t65 81.5q9 18 9 41v707zM410 240h-70v737h283q65 0 112 -37
q19 -14 47 -45.5t39 -50.5q27 -41 27 -101v-32q0 -61 -27 -101q-13 -21 -41.5 -54t-48.5 -44q-1 -1 -7.5 -5t-9.5 -5.5t-10.5 -5.5t-13 -6t-14 -5t-16.5 -4.5t-18 -2.5t-21 -1h-211v-237zM668 897q-21 12 -47 12h-211v-364h221q26 0 47 12q61 38 94 105q8 16 8 47v34
q0 27 -8 43q-14 30 -44.5 61.5t-59.5 49.5z" />
    <glyph glyph-name="fi" unicode="&#xfb01;" 
d="M512 813h-266v-813h-70v813h-145v68h145v127q0 52 25 90q11 18 40 50t48 46q44 35 114 35h144v-66h-144q-35 0 -53 -12q-28 -18 -55.5 -46.5t-42.5 -57.5q-6 -14 -6 -39v-127h266v-68zM813 0h-70v881h70v-881zM834 1133h-111v114h111v-114z" />
    <glyph glyph-name="fl" unicode="&#xfb02;" horiz-adv-x="985" 
d="M512 813h-266v-813h-70v813h-145v68h145v127q0 52 25 90q11 18 40 50t48 46q44 35 114 35h144v-66h-144q-35 0 -53 -12q-28 -18 -55.5 -46.5t-42.5 -57.5q-6 -14 -6 -39v-127h266v-68zM817 0h-69q0 3 -8.5 53.5t-8.5 67.5v1096h70v-1076q0 -23 7.5 -77.5t8.5 -63.5z" />
    <glyph glyph-name="NUL" horiz-adv-x="1024" 
 />
    <glyph glyph-name="HT" horiz-adv-x="1024" 
 />
    <glyph glyph-name="LF" horiz-adv-x="1024" 
 />
    <glyph glyph-name="DLE" horiz-adv-x="1024" 
 />
    <glyph glyph-name="DC1" horiz-adv-x="421" 
 />
    <glyph glyph-name="DC2" horiz-adv-x="456" 
 />
    <glyph glyph-name="DC3" horiz-adv-x="612" 
 />
    <glyph glyph-name="DC4" horiz-adv-x="681" 
 />
    <glyph glyph-name="RS" horiz-adv-x="1024" 
 />
    <glyph glyph-name="US" horiz-adv-x="1024" 
 />
    <glyph glyph-name="DEL" horiz-adv-x="1024" 
 />
    </font>
</defs>
</svg>
