<svg height="147" viewBox="0 0 128 147" width="128" xmlns="http://www.w3.org/2000/svg"><g fill="#d5c69e"><path d="m97.7617804 77.967974c-1.0629917 1.1046412-2.0816921 2.2092824-3.1225382 3.4022949v27.9032371c3.5626103-5.130376 6.7452698-10.5132213 9.5226338-16.105669v-16.3928755h-5.1820842c-.3986219.3976708-.8193895.7732488-1.2180114 1.1930125m13.0437946-.3976709c.110728-.2651139.199311-.5302277.287893-.7953416h-.287893zm-32.354811 25.6055829v24.87652c3.3792248-3.173918 6.5664339-6.545332 9.5447799-10.09642v-28.7206717c-1.8159442 2.3418393-3.5875971 4.7057715-5.2706673 7.158075s-2.9010816 4.4185647-4.2741126 6.6278477m-16.1663325-4.2418227 1.8380899 2.4743967c.1550196-.265114.3321849-.508135.5093502-.773249.1771652-.265114.3986219-.6406922.6200785-.9499917 2.0595464-3.0709025 4.2741125-6.0755266 6.6436983-8.9917794v-13.9184792h-9.5226343zm8.8582644 17.9393727-5.2485217 10.737113-1.2844483-1.789519-2.3474401-3.225552v10.40572l2.3474401 1.944169c.9301178.751156 1.9045268 1.502312 2.8789359 2.209282 1.4616137-1.082548 2.9010816-2.209282 4.2962583-3.313924v-18.447508l-.132874.3093c-.1771653.375578-.3764762.817434-.5093502 1.148827m-25.0688883-.552321c2.9726718 3.730585 6.1596104 7.286128 9.5447799 10.648741v-13.609179l-8.2824772-11.598733 8.2824772-6.031341v-18.9556431h-9.5447799zm-16.1663325-26.6439458c2.7443205 6.0128235 5.9270721 11.8167168 9.5226342 17.3649598v-30.2671691h-9.5226342zm48.5211433-12.9022093v5.9208768c1.8159442-2.0325398 3.6761797-3.9988011 5.5585609-5.9208768zm41.5452596-56.0715876c-2.985301-1.5702043-6.05323-2.978822-9.190449-4.2197294-2.140747-.883713-4.355313-1.7011475-6.643698-2.4523035-3.100393-1.0383627-6.2672223-1.9883542-9.5226344-2.7836958-2.2145661-.5302278-4.4291322-.9941771-6.6436983-1.41394079-3.1446839-.59650625-6.3336591-1.08254838-9.5447799-1.45812639h-1.1515744c-1.8159442 0-3.6540341-.1767426-5.4921239-.19883542-2.3917314 0-4.7834628 0-7.1751942 0l-2.3474401.11046412c-2.2145661.13255695-4.4291322.28720671-6.6436983.53022778-3.2332665.35348519-6.400096.86162014-9.5447799 1.4802192-2.2145661.4197637-4.4291322.9058058-6.6436983 1.4802192-3.2238719.8201796-6.4024424 1.8083476-9.5226342 2.9604385-2.2145661.8174345-4.4291322 1.7453331-6.6436983 2.7395102-2.5024597 1.1709196-4.9384824 2.4081178-7.2637768 3.7778729 0 6.1418051 0 12.2615174.3321849 18.1823942h103.2652171c.465059-6.0976194.420768-12.4161671.376476-18.712622m-73.9000704 4.2197294-4.0083646 2.9162528 2.5024597 7.66621-5.1377934-3.7115945-1.3951766-1.0383627-6.6436983 4.7499572 2.5024597-7.66621-4.0748016-2.9604384-2.4581684-1.7895188h8.0831663l2.5024597-7.66621 1.3951766 4.4185649 1.0851374 3.3360164h8.1053119zm25.7111125 10.0743278.1771653.508135h-.1771653l-7.1751942-5.2139065-2.2145661 1.6348689-5.226376 3.777873 2.8567903-8.8371297-4.2741126-3.0929954-3.1889752-2.3197465h9.212595l.6200785-1.87789 2.2145661-6.8708683v.3313923l2.746062 8.417366h9.2125949l-4.7834627 3.4685734-2.679625 1.9441685zm27.3498913.508135-4.4291322-3.2918308-2.0152552-1.4581264-4.6284431 3.3581092-1.9045268 1.391848 1.9045268-5.8545984.5979328-1.8116116-.5979328-.4418565-5.9571828-4.3081007h8.0831663l2.5024596-7.66621 2.0152552 6.163898.4872045 1.502312h8.0831663l-6.6436983 4.7499572z"/><path d="m77.7057432 85.8908466c-1.2842342 1.5145588-2.5684683 3.0291176-3.8305605 4.5875766-.9521046 1.1853068-1.8820673 2.4145139-2.81203 3.643721-1.6163636 2.1950127-3.2105853 4.3900254-4.7162392 6.5850378-.8413948 1.251158-1.6606476 2.524265-2.4577584 3.797372l-.3764135.548753-1.9706352-2.634015-4.4283936-5.8167834-2.2141968 1.6682096-5.2033625 3.7534718 5.2033625 7.265492 5.2255045 7.265492 1.4170859 1.931611 2.3470487 3.226669.9078207 1.251157 3.5648568-7.243542c.1549938-.329252.3764135-.812155.5535492-1.251157l.6421171-1.317008c.4206974-.878005.8635368-1.77796 1.3063761-2.655965.0747548-.112227.1413493-.229592.1992777-.351202.8635368-1.64626 1.7492155-3.270569 2.6791782-4.894878 1.2620922-2.195013 2.5906103-4.390026 3.9634123-6.4533377.8192528-1.2511573 1.6163637-2.4803644 2.4577584-3.7095715 2.2437195-3.2486188 4.6055294-6.4021203 7.0854298-9.4605047 2.103487-2.6120651 4.4283937-5.1363297 6.6425905-7.5947439l1.2178082-1.3170076h-8.7460774c-2.9522624 2.9266836-5.8380989 5.9923846-8.6575095 9.1971032m-36.1135501-28.7985665c.1235903-1.2227026-.364375-2.4279469-1.3063761-3.2266687-.4477167-.3839045-.9777742-.6616502-1.5499377-.8121547-.4723189-.1287927-.9532728-.2241501-1.439228-.2853517.4990162-.1384698.9815404-.3298072 1.439228-.5707033 1.2116983-.7280208 1.9517879-2.0305967 1.9517879-3.4351948 0-1.4045982-.7400896-2.707174-1.9517879-3.4351949-1.0932007-.478619-2.2820968-.7038283-3.476289-.6585038h-15.1451062v17.5601016h13.6837363c1.6829079.0712086 3.3628433-.197642 4.9376589-.7902046.7091978-.2987354 1.338427-.7571742 1.8377833-1.3389578.6940813-.8734097 1.0547933-1.961717 1.0185305-3.0730177m-15.0565383-8.4507989h6.4211708c.9963885 0 1.6385056.3951023 1.6385056 1.3389577 0 .9438555-.7749689 1.4048082-1.7492155 1.4048082h-6.3990288zm6.6425905 9.6361057h-6.6425905v-3.0730177h7.1739977c.4199941-.0764962.8519797.0451134 1.168736.3290146s.4822074.6977598.4476277 1.1196937c0 1.2292071-.8413948 1.6243094-2.0592031 1.6243094m23.4262023 1.1414066.9521046 2.8754667h6.996862l-.708543-1.6462596-2.3470486-5.3558309-4.6276714-10.6238615h-7.2404235l-4.2955419 9.8336569-3.476289 7.9239958h6.9082941l.9742466-2.8754666zm-3.3877211-9.855607 1.6385056 4.7851277.3985555 1.1853069h-4.1184061zm19.1749444 6.3216366h3.3655792l1.9042092 3.3144692 1.7713575 3.0949679h7.0190039l-4.4283937-7.0459908c2.4549592-.3692106 4.2268656-2.5245502 4.0962641-4.9826788.0022186-1.1240209-.3121927-2.2263291-.9078207-3.1827684-1.4392279-2.1950127-3.7419926-2.414514-6.1333251-2.414514h-13.0859032v17.5601016h6.3990288zm0-7.2215918h5.2919304c.6839463-.0821208 1.3621661.191797 1.7934994.7243542.1902229.2619196.2910729.5772293.2878456.8999552.0062659.3608854-.1195932.7117972-.3542715.9877557-.4641576.4489052-1.10349.6735407-1.7492155.6146036h-5.2697884zm23.0940728 6.8045394h11.4473975v-3.9510229h-11.4916815v-2.8974167h12.3773605v-3.9510229h-18.7542473v17.5601016h18.9756663v-3.9949231h-12.5987795zm-73.0684949 11.4799164c.3501125-.1750721.7371139-.2653423 1.1292404-.2634016.7498121-.0868467 1.4925915.2110003 1.9706352.7902046l1.5720797-.3731522c-.7551228-1.1584477-2.1211029-1.7755264-3.498431-1.5804091-.3941269-.0081762-.7878933.0286498-1.1735243.1097506-.70251.1019999-1.325151.5028092-1.7049315 1.0975064-.1453083.2623298-.2214675.5567772-.2214197.8560549-.0169689.6073029.3187305 1.1704874.8635367 1.4487084h.1771358c.2860293.1211691.5824424.2166687.8856787.2853517.3985554 0 .8856787.1536509 1.5277958.2414514s1.4613699.2195012 1.4613699.7682544-1.3285181.856055-1.6606476.856055c-.4530007.0128258-.9042-.0617225-1.3285181-.2195013-.1846517-.0759296-.3564169-.1795765-.5092652-.3073018-.1732411-.1235657-.3106832-.290095-.3985555-.4829028l-1.5277958.3731522c.4821341.9375687 1.3873143 1.5901778 2.4356165 1.7560101.3976999.0366119.7979664.0366119 1.1956663 0 1.7049315 0 3.3877211-.4170524 3.3877211-2.1950127 0-1.4706585-1.372802-1.73406-2.2141968-1.8877109-.4871233 0-1.6606476-.2634015-2.2141968-.3951023l-.1992777-.1097506c-.1908012-.0737745-.3146779-.2579797-.3099876-.4609527.0005369-.2123502.1199601-.4068455.3099876-.5048529m8.347522 0h2.4799004v5.3777811h1.6606476v-5.0704793h2.5684683v-1.207257h-6.6425904zm14.0158658-1.207257h-1.7934994l-3.2105854 6.5850381h1.8156414l.5535492-1.2292071h3.4098631l.5756912 1.2292071h1.8599253l-2.7456041-5.6631327zm-2.081345 4.1924743 1.1735243-2.590115 1.1513823 2.590115zm12.0673726-3.116918-.9521046-1.0755563h-1.6827896v6.5850381h1.5942217v-4.6095266l1.0406725 1.1633567 3.0555916 3.4461699h1.7934994v-6.5850381h-1.5720797v5.0265791zm16.1636368 4.7631775h.1328518c.6844101-.6317929 1.0495959-1.5328249.9963885-2.4584142.0303574-.8537553-.2707935-1.6865295-.8413948-2.3267135l-.2878455-.2195012c-.7203773-.5291448-1.6076234-.7860071-2.5020424-.7243542h-3.6534248v6.585038h3.6977087c.9138263.0832885 1.8250996-.1837972 2.5463263-.7463043m-4.4283936-4.675377h1.8820673c.5030334-.0586653 1.0097253.0747587 1.417086.3731522.4212608.4527928.6442137 1.0527074.6199751 1.6682096 0 1.7779603-.8413948 2.1950127-2.0149191 2.1950127h-1.9484932zm11.0709841 1.6243094-1.8377834 3.7973719h1.8156414l.5314072-1.1414066h3.4098631l.5756912 1.2292072h1.8156414l-3.2105854-6.5850381h-1.7934994zm3.4098631 1.4048081h-2.3470487l1.1956663-2.590115zm12.7759156.175601v-.1317007l-.2878456-.3951023h.3764135c.5214703-.0947491.9613121-.4402831 1.1735243-.9219053.3177058-.7453141.161373-1.6063042-.3985555-2.1950127-.2069452-.2150717-.4661817-.3738011-.7528269-.4609527-.3549647-.0851514-.7199584-.122073-1.0849564-.1097506h-4.5612455v6.585038h1.6385057v-2.6340152h1.9042093l.8635367 1.2511572.9078207 1.382858h1.9706352l-.4206974-.5707033zm-1.2620922-1.6023592h-2.745604v-1.6023593h2.6791781c.353363-.0472023.7037139.1052776.9078207.3951023.0275742.1450576.0275742.2939449 0 .4390025 0 .7024041-.6199751.7682545-.9299627.7682545m13.8830142-1.8218606-.309988-.2414514c-.720683-.5096188-1.596414-.7576598-2.4799-.702404h-3.6534249v6.585038h3.6091409c.973995.0937114 1.94371-.2161335 2.679178-.8560549.68441-.6317929 1.049596-1.5328249.996389-2.4584142.010989-.197401.010989-.3952525 0-.5926534-.088746-.6429104-.365907-1.2458548-.797111-1.7340601m-.952105 3.2266687c-.131252.6839018-.715889 1.1910274-1.417086 1.2292071h-2.36919v-4.2583246h1.926351c.503033-.0586653 1.009725.0747586 1.417086.3731521.372126.4426092.568905 1.0044234.553549 1.5804092.007083.3268498-.037749.6527694-.132852.9658056m22.141968-54.1070629c-17.713574-10.31655967-38.70416-15.56264-62.3517819-15.56264h-1.5499378c-2.5463264 0-5.1147947 0-7.683263.2414514h-.3099875c-17.8685683.37315215-36.0692661 5.50948185-55.53205609 15.6504405-1.10709841 18.0649544 2.36919059 34.9226519 6.13332517 50.7267433.68640101 2.1950127 1.41708596 4.3900254 2.21419681 6.5850381.37641346 1.0755562.77496889 2.1950127 1.17352431 3.1608183 11.6245333 31.4984324 30.8437616 56.6313274 54.0485442 70.5038074l.2214197.131701c23.4040603-13.87248 42.7561401-39.093176 54.3585321-70.6355084.376413-1.0097059.774969-1.9974616 1.12924-3.0291176.752827-2.1950126 1.46137-4.3900253 2.214197-6.585038 3.609141-15.211438 7.262565-32.7934897 6.066899-51.363297m-8.856787 23.7939376c-.11071 1.5145587-.243562 3.0071673-.442839 4.3900253-.199278 1.382858-.420698 3.1169181-.730685 4.6314768-1.645468 9.5257303-4.104697 18.8955759-7.351134 28.008362 0 .2634015-.177136.526803-.287845.7902045-1.905819 5.2973689-4.123835 10.4792039-6.642591 15.5187398-2.781949 5.546593-5.9638886 10.887016-9.5210462 15.979692-2.081345 2.926684-4.2955418 5.802151-6.6425904 8.6264-2.9778494 3.528152-6.164527 6.87779-9.5431883 10.031208-2.2141968 1.997462-4.4283936 3.929073-6.6425904 5.794834-1.394944 1.119456-2.8341719 2.195012-4.2955418 3.270569-.9299627.680454-1.8377834 1.382858-2.789888 2.041361-22.8947951-15.69434-37.6413459-37.732268-46.2545715-61.9652078-3.2587237-9.1331522-5.7254285-18.5252866-7.3732754-28.0742124-.57346925-2.9884728-.96534967-6.0083947-1.17352426-9.0434522-.4871233-6.0582351-.44283937-12.3579215-.39855543-18.6356578 15.49937769-9.1751531 35.27215519-13.32372704 55.19992659-13.17007615 4.2291159 0 8.4803738.3292519 12.6873477.76825444h1.1292404c3.2105854.37315216 6.3990288.85605495 9.5431883 1.44870838 2.2141968.41705243 4.4283936.87800503 6.6425904 1.40480813 3.2548693.7902046 6.4211703 1.73406 9.5210463 2.765716 2.288003.7463043 4.5022 1.558459 6.64259 2.4364641 3.13853 1.2286419 6.206178 2.6282668 9.188917 4.1924742 0 6.2557862 0 12.5335225-.376413 18.5917575"/></g></svg>