<svg height="145" viewBox="0 0 252 145" width="252" xmlns="http://www.w3.org/2000/svg" xmlns:xlink="http://www.w3.org/1999/xlink"><mask id="a" fill="#fff"><path d="m.6168.808h77.9877119v57.4464h-77.9877119z" fill="#fff" fill-rule="evenodd"/></mask><mask id="b" fill="#fff"><path d="m.8317.808h135.16v57.4468h-135.16z" fill="#fff" fill-rule="evenodd"/></mask><mask id="c" fill="#fff"><path d="m0 .3291h8.16276785v9.592h-8.16276785z" fill="#fff" fill-rule="evenodd"/></mask><mask id="d" fill="#fff"><path d="m.07029241.2492h8.24104424v9.7508h-8.24104424z" fill="#fff" fill-rule="evenodd"/></mask><mask id="e" fill="#fff"><path d="m.07516706.3291h8.22243294v9.6709h-8.22243294z" fill="#fff" fill-rule="evenodd"/></mask><mask id="f" fill="#fff"><path d="m.36719241.2492h8.24104424v9.7508h-8.24104424z" fill="#fff" fill-rule="evenodd"/></mask><g fill="#fff" fill-rule="evenodd" transform="translate(16 35)"><path d="m121.7911 29.0774c1.819-1.034 2.609-2.584 3.308-6.546.729-4.134.257-5.856-1.846-6.631-1.129-.431-1.302-.431-8.952-.517h-21.876l-2.582 14.641h21.876c8.112-.086 8.456-.086 10.072-.947"/><path d="m60.5548 18.7224c-.365 2.067-1.226 3.531-2.608 4.048-1.211.517-3.74.689-9.94.689h-24.633l1.61-9.13h24.632c7.909.087 8.167.087 9.084.259 1.733.43 2.28 1.722 1.855 4.134m-1.507 20.757c-.425 2.411-1.256 3.703-2.826 4.305-1.398.604-1.398.604-11.835.69h-24.718l1.685-9.56h24.719c10.148.086 10.148.086 10.979.258 1.904.431 2.467 1.637 1.996 4.307m18.99-23.685c1.838-10.422-.625-14.039-9.891-14.728-2.553-.172-2.553-.172-16.147-.259h-41.254l-10.129 57.447h41.34c19.308-.086 20.27-.172 23.741-1.292 5.385-1.722 8.282-5.942 9.725-14.125 1.625-9.215-.108-12.574-7.46-13.866 6.059-1.636 8.633-4.995 10.075-13.177" mask="url(#a)" transform="translate(2 .1919)"/><path d="m118.1637.8078-7.117 42.805h-1.809l-22.511-42.805h-39.275v.4c.286.036.578.075.883.117 3.281.508 5.721 1.337 7.503 2.64.85.621 1.564 1.342 2.111 2.213.103.167.202.338.295.516.088.166.181.328.26.504.007.019.015.038.023.057.036.082.065.172.099.256.102.248.196.505.282.771.055.174.104.357.152.54.013.054.027.108.04.161.074.303.141.616.197.94.007.04.015.076.022.116.033.206.059.419.085.634.001.006.002.012.003.019.043.356.077.725.1 1.107.001.007.001.014.001.021.015.245.026.496.033.753.01.401.009.819 0 1.247-.004.258-.01.516-.021.783l-.006.12c-.021.441-.055.904-.094 1.373-.024.296-.043.584-.074.89-.057.552-.131 1.137-.209 1.728-.027.208-.052.412-.079.62-.019.134-.039.269-.058.404-.122.834-.257 1.692-.418 2.602-.129.737-.263 1.441-.4 2.127-.048.241-.099.469-.148.705-.09.43-.181.855-.274 1.265-.071.31-.143.611-.216.91-.061.251-.122.5-.184.742-.084.325-.17.642-.258.954-.057.206-.115.411-.174.613-.097.328-.196.648-.296.962-.053.163-.106.325-.159.484-.112.331-.226.654-.343.968-.046.125-.093.249-.141.372-.128.33-.258.652-.393.964-.039.091-.079.182-.119.272-.147.328-.296.648-.451.956-.031.061-.062.12-.092.18-.168.326-.339.641-.517.944-.02.033-.04.066-.059.098-.192.323-.388.634-.592.932-.005.006-.01.013-.014.019-1.308 1.9-2.877 3.306-4.806 4.382l-.002.011c-.957.533-1.999.989-3.146 1.38-.512.161-1.023.308-1.548.441-.262.067-.528.129-.799.19-1.086.239-2.263.427-3.665.571-.351.036-.716.069-1.097.101-.761.061-1.588.113-2.497.156-2.725.129-6.185.177-10.836.177h-22.048l-2.398 13.599-.078.44h62.934l7.131-42.891h1.895l22.668 42.891h30.403l10.129-57.447z" mask="url(#b)" transform="translate(84 .1919)"/><path d="m6.8258 2.3591c.016-.08.016-.144 0-.16-.08-.225-.368-.624-.624-.624h-3.261l-.559 2.878h3.101c.288 0 .912-.56 1.072-.783.016-.016.047-.097.063-.176zm-.783 4.093c.015-.081 0-.145 0-.16-.08-.193-.352-.512-.48-.592-.015-.016-.08-.016-.159-.016h-3.262l-.575 2.989h3.085c.304 0 .896-.559 1.07-.783.017-.016.049-.08.065-.16zm.607 2.285c-.16.192-.751.687-1.007.848-.336.208-.767.336-1.135.336h-4.508l1.854-9.592h4.509c.383 0 .751.143 1.006.351.193.159.592.64.687.831.129.273.129.608.065.927l-.224 1.167c-.144.752-.56 1.088-1.119 1.455.384.447.687.752.559 1.455l-.255 1.326c-.064.321-.208.624-.432.896z" mask="url(#c)" transform="translate(0 63.1919)"/><path d="m13.9244 64.8626-2.605 4.877h3.324zm1.199 8.25-.303-2.143h-4.157l-1.151 2.143h-1.439l5.195-9.592h1.727l1.487 9.592z"/><path d="m24.7643 65.551c.016-.064.016-.144 0-.192-.064-.176-.336-.576-.559-.592h-.097-3.245l-.607 3.101h3.07c.287 0 .942-.495 1.102-.718.032-.049.048-.113.065-.176zm-1.039 7.562-1.519-3.998h-2.19l-.768 3.998h-1.326l1.854-9.592h4.509c.367 0 .767.128 1.006.335.193.16.592.656.687.847.113.241.161.591.097.911l-.288 1.439c-.064.32-.208.624-.447.895-.16.193-.752.688-1.008.848-.224.145-.591.303-.815.288l1.599 4.029z"/><path d="m27.1163 73.1126 1.854-9.592h5.883l-.24 1.246h-4.556l-.576 2.926h4.301l-.24 1.248h-4.301l-.559 2.925h4.557l-.241 1.247z"/><path d="m45.8375 65.5022c.016-.079.016-.159.016-.176 0-.143-.384-.559-.544-.559h-.096-3.277l-.607 3.101h3.037c.288 0 .943-.558 1.135-.751.032-.032.064-.095.08-.176zm.575 2.446c-.159.193-.767.688-1.023.848-.336.208-.751.319-1.119.319h-3.182l-.767 3.997h-1.326l1.854-9.591h4.508c.367 0 .768.127 1.007.335.192.16.592.656.687.847.113.273.16.591.097.911l-.288 1.439c-.064.32-.208.624-.448.895z"/><path d="m47.5968 73.1126 1.854-9.592h5.883l-.24 1.246h-4.556l-.576 2.926h4.301l-.239 1.248h-4.301l-.56 2.925h4.557l-.241 1.247z"/><path d="m62.609 65.551c.016-.064.016-.144 0-.192-.064-.176-.336-.576-.56-.592h-.096-3.245l-.607 3.101h3.069c.288 0 .943-.495 1.103-.718.032-.049.048-.113.064-.176zm-1.04 7.562-1.519-3.998h-2.19l-.767 3.998h-1.326l1.854-9.592h4.508c.367 0 .768.128 1.007.335.192.16.592.656.687.847.113.241.16.591.097.911l-.288 1.439c-.065.32-.208.624-.448.895-.159.193-.751.688-1.007.848-.224.145-.591.303-.816.288l1.599 4.029z"/><path d="m67.9005 64.7669-.575 2.926h4.301l-.24 1.248h-4.301l-.8 4.172h-1.326l1.855-9.592h5.867l-.24 1.246z"/><path d="m6.9708 2.4382c.016-.063 0-.128-.016-.159-.159-.305-.448-.655-.639-.752-.032-.016-.08-.031-.144-.031h-2.382c-.064 0-.112.015-.144.031-.288.129-1.167.8-1.231 1.071l-1.007 5.228c-.048.24.447.735.656.879.048.032.095.048.159.048h2.382c.064 0 .129-.032.16-.048.272-.127 1.152-.767 1.199-1.039zm-.127 6.171c-.24.288-1.008.928-1.36 1.119-.287.144-.671.272-.975.272h-2.526c-.304 0-.639-.128-.863-.272-.288-.191-.815-.831-.959-1.119-.111-.255-.111-.575-.048-.847l1.023-5.26c.048-.271.16-.591.384-.846.24-.288 1.023-.944 1.391-1.136.288-.145.656-.271.959-.271h2.526c.304 0 .656.126.879.271.272.192.783.863.927 1.136.128.255.128.559.08.846l-1.023 5.26c-.063.288-.175.592-.415.847z" mask="url(#d)" transform="translate(73 63.1919)"/><path d="m88.8771 65.551c.016-.064.016-.144 0-.192-.064-.176-.336-.576-.56-.592h-.096-3.245l-.607 3.101h3.07c.287 0 .942-.495 1.102-.718.032-.049.048-.113.065-.176zm-1.039 7.562-1.519-3.998h-2.191l-.767 3.998h-1.326l1.854-9.592h4.508c.368 0 .768.128 1.007.335.192.16.592.656.687.847.113.241.161.591.097.911l-.288 1.439c-.064.32-.208.624-.447.895-.16.193-.752.688-1.008.848-.224.145-.591.303-.816.288l1.599 4.029z"/><path d="m98.3741 73.1126 1.471-7.626-3.501 5.147h-.865l-1.485-5.147-1.471 7.626h-1.295l1.854-9.592h1.583l1.55 5.228 3.581-5.228h1.711l-1.855 9.592z"/><path d="m106.9913 64.8626-2.605 4.877h3.325zm1.199 8.25-.303-2.143h-4.157l-1.151 2.143h-1.439l5.195-9.592h1.728l1.486 9.592z"/><path d="m116.4088 73.1126-2.701-7.322-1.423 7.322h-1.294l1.854-9.592h1.422l2.686 7.402 1.439-7.402h1.295l-1.855 9.592z"/><path d="m126.6412 71.8967c-.576.576-1.375 1.295-2.207 1.295h-2.11c-.303 0-.655-.128-.879-.272-.288-.191-.799-.831-.943-1.119-.111-.255-.128-.558-.064-.846l1.023-5.276c.048-.288.176-.576.4-.831.239-.272 1.007-.943 1.374-1.136.288-.144.656-.271.96-.271h2.126c.831 0 1.375.703 1.694 1.295.097.159.192.399.304.815l-1.279.352c-.095-.48-.495-.976-.815-1.199 0 0-.032-.016-.127-.016h-1.967c-.064 0-.08 0-.112.016-.255.112-.96.672-1.215.991-.048.048-.096.399-.112.479l-.944 4.876c-.047.256.448.768.657.879.031.017.048.017.111.017h2.014c.097 0 .128-.017.128-.017.384-.191 1.039-.719 1.311-1.215l1.279.352c-.159.288-.384.608-.607.831"/><path d="m128.7687 73.1126 1.854-9.592h5.883l-.24 1.246h-4.556l-.576 2.926h4.301l-.239 1.248h-4.301l-.56 2.925h4.557l-.241 1.247z"/><path d="m146.0665 73.1126-2.701-7.322-1.423 7.322h-1.295l1.855-9.592h1.422l2.686 7.402 1.439-7.402h1.294l-1.854 9.592z"/><path d="m6.4596 8.6091c-.24.288-1.007.928-1.359 1.119-.288.144-.655.272-.959.272h-2.143c-.304 0-.655-.128-.879-.272-.288-.191-.799-.831-.943-1.119-.112-.255-.128-.543-.064-.831l1.438-7.449h1.311l-1.454 7.512c-.048.242.495.785.719.896.016 0 .048.017.112.017h1.967c.064 0 .096-.017.111-.017.257-.111 1.199-.863 1.247-1.086l1.423-7.322h1.311l-1.439 7.449c-.064.288-.16.576-.399.831" mask="url(#e)" transform="translate(150 63.1919)"/><path d="m163.7814 64.7669-1.615 8.346h-1.326l1.614-8.346h-2.734l.24-1.246h6.779l-.24 1.246z"/><path d="m173.5348 65.551c.016-.064.016-.144 0-.192-.064-.176-.336-.576-.56-.592h-.096-3.245l-.607 3.101h3.069c.288 0 .943-.495 1.103-.718.032-.049.048-.113.064-.176zm-1.04 7.562-1.519-3.998h-2.19l-.767 3.998h-1.326l1.854-9.592h4.508c.367 0 .768.128 1.007.335.192.16.592.656.687.847.113.241.16.591.097.911l-.288 1.439c-.065.32-.208.624-.448.895-.159.193-.751.688-1.007.848-.224.145-.591.303-.816.288l1.599 4.029z"/><path d="m175.8536 73.1126 1.854-9.592h1.327l-1.854 9.592z"/><path d="m184.5978 64.7669-1.614 8.346h-1.327l1.614-8.346h-2.733l.239-1.246h6.779l-.24 1.246z"/><path d="m187.4772 73.1126 1.854-9.592h1.327l-1.854 9.592z"/><path d="m7.2677 2.4382c.016-.063 0-.128-.016-.159-.159-.305-.448-.655-.639-.752-.032-.016-.08-.031-.144-.031h-2.382c-.064 0-.112.015-.144.031-.288.129-1.167.8-1.231 1.071l-1.007 5.228c-.048.24.447.735.656.879.048.032.095.048.159.048h2.382c.064 0 .129-.032.16-.048.272-.127 1.152-.767 1.199-1.039zm-.127 6.171c-.24.288-1.008.928-1.36 1.119-.287.144-.671.272-.975.272h-2.526c-.304 0-.639-.128-.863-.272-.288-.191-.815-.831-.959-1.119-.111-.255-.111-.575-.048-.847l1.023-5.26c.048-.271.16-.591.384-.846.24-.288 1.023-.944 1.39-1.136.289-.145.657-.271.96-.271h2.526c.304 0 .656.126.879.271.272.192.783.863.927 1.136.128.255.128.559.08.846l-1.023 5.26c-.064.288-.175.592-.415.847z" mask="url(#f)" transform="translate(191 63.1919)"/><path d="m205.7496 73.1126-2.701-7.322-1.423 7.322h-1.294l1.854-9.592h1.422l2.686 7.402 1.439-7.402h1.295l-1.855 9.592z"/></g></svg>