<svg height="70" viewBox="0 0 166 70" width="166" xmlns="http://www.w3.org/2000/svg"><path d="m3.01032736 45.6908846c2.31691969 5.9871115 6.80083256 9.665939 13.70716894 11.2417867.0763515.0180335.1499265.0416157.2235016.0707467 15.2453037 6.3269731 31.3554613 9.731137 47.886246 10.118163 13.920953.7268875 86.6005991.3176665 97.1620881-19.0155989 2.296097-4.2031853 1.417361-9.0195086-2.686183-14.7222462-5.104442-6.1313792-11.617915-10.7049443-19.301648-13.5167781-14.21803-5.8206488-29.060753-10.07793451-44.1714007-12.67475397v.00138719c-.0041647-.00138719-.0083293-.00277438-.0124939-.00277438-.0638576-.01248471-.126327-.02358223-.1901845-.03329256-.0388699-.00554876-.0777397-.0124847-.1166095-.01942065-.0749633-.01525909-.1457619-.03329256-.2137841-.05826198-.4122979-.08600577-.8801241-.17894749-1.3951494-.27743798l-.1249387 2.35406123c-1.3243508-.07074668-2.6556426-.14842932-3.991099-.22749914-4.438102-.26217889-9.0330715-.52851934-13.4822792-.45499828-15.5187808.27882517-32.1328579 4.81216172-52.2868663 14.26586072-11.5457286 5.4169765-23.05814024 12.3778953-21.00636834 22.9510566m70.17809524 24.3091154c-5.1322062 0-8.3042622-.0971033-8.4652944-.1054264-16.7973206-.393962-33.2087194-3.8550007-48.7386059-10.2832386-7.74897882-1.8005725-13.0005709-6.1882541-15.60901433-13.0409721-.02776417-.0707466-.0499755-.1442677-.06385758-.2177888-2.87775585-14.2048243 14.92462761-22.5570946 22.52506821-26.1235598 20.5191072-9.6257106 37.4941185-14.24227847 53.4168679-14.52942678 4.5394412-.08045701 9.202433.19420658 13.6974515.45915985.2096195.01248471.4220154.02635661.6316348.03745413-10.6933687-1.86854477-30.4864429-4.66234519-32.7172937-2.89922685.0277642-.02219504.1207742-.12484709.1568676-.29408425l-2.7111709-.59649165c.4289564-1.94900178 2.4127061-3.6469222 21.1035429-1.17494983 9.2635141 1.22488866 18.758859 2.99910452 19.9124601 3.23076523 15.3008322 2.63288639 30.3295752 6.94288535 44.6767082 12.81763445 8.102972 2.9644248 15.014861 7.8182022 20.49412 14.4073541 4.782377 6.640478 5.74857 12.587361 2.927731 17.7477073-10.238036 18.7423225-69.0480936 20.56509-91.2372154 20.56509" fill="#fd4637" fill-rule="evenodd"/></svg>