<svg height="102" viewBox="0 0 102 102" width="102" xmlns="http://www.w3.org/2000/svg"><g fill-rule="evenodd" transform="translate(4.5 4.5)"><path d="m46.5-3.75c-27.7523087 0-50.25 22.4976913-50.25 50.25s22.4976913 50.25 50.25 50.25 50.25-22.4976913 50.25-50.25-22.4976913-50.25-50.25-50.25zm0 7.5c23.6101731 0 42.75 19.1398269 42.75 42.75s-19.1398269 42.75-42.75 42.75-42.75-19.1398269-42.75-42.75 19.1398269-42.75 42.75-42.75z" fill-rule="nonzero"/><path d="m50.4710273 36.4081352v29.1061624h4.5345872v4.8640808h-17.3029118v-4.8640808h4.533687v-24.2420816h-4.533687v-4.8640808zm-4.2086948-13.7865136c1.6051557 0 2.9078255.4240204 3.8692984 1.2630586.9983834.8696468 1.504327 2.0471811 1.504327 3.4974928 0 1.4521122-.5068438 2.6287462-1.5052272 3.4983931-.9596725.8372377-2.261442 1.2621583-3.8683982 1.2621583-1.5178308 0-2.7943932-.4204194-3.7918764-1.2495547-1.0487977-.8678464-1.5808487-2.0498819-1.5808487-3.5109967 0-1.4602145.5311508-2.6404495 1.5808487-3.5109967.9992837-.8291353 2.2749458-1.2495547 3.7918764-1.2495547z"/></g></svg>