<svg height="110" viewBox="0 0 110 110" width="110" xmlns="http://www.w3.org/2000/svg"><g fill="#060000" fill-rule="evenodd"><path d="m23 81v-15h-8c1.5318254 5.5692937 4.296686 10.6595801 8 15"/><path d="m42 94v-29h-10v24.2964992c3.0852179 1.9404577 6.440018 3.5237588 10 4.7035008"/><path d="m60 96.7375588v-30.7375588h-10v30.7375588c1.6429534.1680179 3.308372.2624412 4.9992512.2624412 1.6923768 0 3.3577954-.0944233 5.0007488-.2624412"/><path d="m68 94c3.559982-1.179742 6.9147821-2.7630431 10-4.7035008v-24.2964992h-10z"/><path d="m96 66h-8v15c3.703314-4.3404199 6.4681746-9.4307063 8-15"/><path d="m54.9986104 14.8611084c-22.1329455 0-40.1388915 18.0059461-40.1388915 40.1402812 0 22.1315559 18.005946 40.137502 40.1388915 40.137502 22.1343351 0 40.1402812-18.0059461 40.1402812-40.137502 0-22.1343351-18.0059461-40.1402812-40.1402812-40.1402812m0 83.1388916c-23.708709 0-42.9986104-19.2899014-42.9986104-42.9986104 0-23.7114882 19.2899014-43.0013896 42.9986104-43.0013896 23.7100986 0 43.0013896 19.2899014 43.0013896 43.0013896 0 23.708709-19.291291 42.9986104-43.0013896 42.9986104"/><path d="m43.5 18 1.2992014 4.2009751h4.2007986l-3.3988923 2.5965601 1.2977846 4.2024648-3.3988923-2.5965601-3.3988923 2.5965601 1.2992014-4.2024648-3.4003091-2.5965601h4.2022154z"/><path d="m33.5 29 1.2977846 4.2009751h4.2022154l-3.4003091 2.5965601 1.2992014 4.2024648-3.3988923-2.5965601-3.3988923 2.5965601 1.2992014-4.2024648-3.4003091-2.5965601h4.2022154z"/><path d="m55.4992917 29 1.2990341 4.2009751h4.2016742l-3.3998712 2.5965601 1.2976175 4.2024648-3.3984546-2.5965601-3.397038 2.5965601 1.2976175-4.2024648-3.3998712-2.5965601h4.2016742z"/><path d="m76.5 29 1.2977846 4.2009751h4.2022154l-3.4003091 2.5965601 1.2992014 4.2024648-3.3988923-2.5965601-3.3988923 2.5965601 1.2977846-4.2024648-3.3988923-2.5965601h4.2007986z"/><path d="m66.5007083 18 1.2976175 4.2009751h4.2016742l-3.3998712 2.5965601 1.2990341 4.2024648-3.3984546-2.5965601-3.3984546 2.5965601 1.2976175-4.2024648-3.3998712-2.5965601h4.2016742z"/><path d="m32.97802 12.7285919 3.1181469-1.4745189c.5745864-.2688828.8720364-.6389582.6007039-1.2070816-.3148617-.66353351-.8705854-.41778036-1.0708201-.32381592l-3.3314402 1.57426572zm1.4161523-4.6057031c.4556064-.2153954.7399977-.54933056.5063906-1.03650004-.2089405-.44380127-.602155-.48716947-1.0563104-.27177407l-2.9832061 1.40802098.6108608 1.28080758zm-.3656458-3.6617219c1.2144667-.57390588 2.6712463-.8774833 3.4388125.7285858.4236849.89627619.3032539 1.7549666-.6993703 2.59775534.5528217-.16046235 1.0592122-.30068621 1.6337986-.14456068.6848606.17636403 1.0403496.62161091 1.3290938 1.22732014.1160781.24575314.3990183.86880965.2002347 1.6595565-.3279206 1.2663516-1.6207399 1.9775901-2.6726973 2.4719876l-6.3480189 2.9981884-3.9103796-8.22261121z"/><path d="m47.015499 5.91810345 2.0084425-.28735632-1.3957913-2.88936782zm-4.015499 4.08189655 2.5448589-9.49425287 3.5220514-.50574713 4.9330897 8.41810345-3.4014617.48994253-.6625504-1.39224138-3.3016633.47413793-.2730595 1.52586207z"/><path d="m61.9954279 4.35382309 2.3833125.3898051c.6032983.09895052.9291362.07196401 1.1653332-.14692654.1935107-.1844078.2390427-.39430285.2546943-.50074963.011383-.07946027.0284574-.29085457-.0697208-.49775112-.1636304-.36581709-.50512-.47526237-.8466096-.53073463l-2.6308925-.43178411zm2.7006133 6.07196401-1.3275407-3.69565217-1.683259-.27586207-.4980056 3.39730135-3.1872359-.52173913 1.3773412-9.32983508 6.5196049 1.06896552c1.1909449.1934033 2.3192833.47376312 2.8599751 1.77811094.1223671.30584708.3286837.90854573.2048937 1.75412294-.0882181.58170915-.4681252 2.19790105-2.423153 2.30884558l1.6576473 4.08995502z"/><path d="m71 11.8916531 4.1073802-7.8916531 8.8926198 4.05952104-.9206968 1.76610091-5.8727939-2.68123692-.6748797 1.29597768 5.431813 2.48035339-.9251662 1.7758661-5.431813-2.4775634-.6555122 1.2638922 5.9785698 2.7286677-.9311254 1.7884213z"/><path d="m17.2084493 20.754986c-.4796789.4768061-.9856815 1.0137372-.8891608 1.732442.0219365.2041457.1169948.5425243.4957656.8920888.1199198.1076659.4255688.3747333.9081725.4180793.7984898.0699129 1.3951635-.5187539 1.8909292-1.012339l2.7435291-2.728002-2.3091858-2.1253527zm6.7915507-.8725132-3.8608298 3.8354226c-.5498758.5453207-1.5896675 1.4569851-2.917559 1.2528394-.5264768-.0838955-1.0193175-.3397768-1.4097878-.6963326-.2544638-.2335092-.9242593-.9340366-.795565-1.9673495.1067578-.9186557.6727204-1.4989329 1.3088798-2.1309457l2.9541198-2.9349442-2.562187-2.3560653.8891608-.8850975z"/><path d="m9.26157237 24 7.73842763 4.2199239-4.0969875 6.7800761-.9537105-.5192893 3.4680382-5.7387056-2.3027186-1.2549493-3.37986774 5.592132-.92138134-.5025381 3.38133728-5.5921319-2.60837622-1.422462-3.63262307 6.0081219-.95371051-.5206853z"/><path d="m5.51869281 42.8063486c-.17973856.7099014-.36666667 1.5518775.10640523 2.2032458.11071895.1620916.34653595.4412495.83686274.5778267.15673203.0420238.48026144.1200679.88143791.0030017.7275817-.198112.93607843-.7669337 1.10862745-1.4528215l1.22941177-4.8372351-3.05699347-.8449778zm-5.10313725 1.6809505 4.13542483-2.0441559 1.07699347-4.2489025-3.37764706-.9335278.31921568-1.2607129 8.43045752 2.3323188-1.51986928 5.9958903c-.19124183.7459218-.29620915 1.0100711-.48745098 1.358268-.59960784 1.1001221-1.65215686 1.5293648-2.81111111 1.2111849-.45294118-.1260713-1.61189543-.555314-1.80026144-2.0186415-.02875817-.24764-.03882353-.5057859.0172549-1.0235787l-4.39856209 2.2662814z"/><path d="m7.87259576 52.3672727-2.87325333-.0465454-.11096498 6.3636363-1.05342759-.0189091.10800592-6.3636363-3.94295578-.0654546.02071346-1.2363636 8.97928654.1483636-.13463751 7.8516364-1.10669078-.0174545z"/><path d="m8.79545787 67.5365441c-.50584564-2.1261707-1.98180621-3.7712261-4.28790797-3.1317314-2.01645317.560305-2.86461079 2.465342-2.24789488 5.0517099.71927093 3.0077172 2.63178321 3.5500925 4.24633163 3.1018485 1.47457468-.4093962 3.02675857-1.9394024 2.28947122-5.021827m-7.54333649 2.1724893c-.7788637-3.2557456.26193103-5.7987832 2.91311653-6.5339034 2.92836121-.8128157 4.96144492 1.3148491 5.62389482 4.084997.61671597 2.5863679-.03326108 5.7345349-3.10021013 6.5861985-2.28254183.6335182-4.61358941-.6813309-5.43680122-4.1372921"/><path d="m12.5759058 80.8755365c.348327.6051502.7798575 1.3032904 1.5427924 1.4062947.1861504.0329041.5344774.0529327.9617773-.2017168.1367924-.081545.4117874-.2603719.6120401-.6194563.3723009-.6480687.1367924-1.1773963-.2030732-1.7610873l-2.3734183-4.1158798-2.6780281 1.5894134zm-2.4086741 4.7353362 1.497665-4.2932761-2.08855164-3.6180258-2.96007424 1.7582261-.61627082-1.0715308 7.3811475-4.3862661 2.9459719 5.1030043c.3680703.6366237.4696069.888412.5697332 1.2575107.3215326 1.1630902-.12269 2.1959943-1.1366459 2.7982833-.3962748.2360515-1.4821525.7653791-2.5905938-.0858369-.18333-.1473534-.3624293-.3118741-.6712698-.6981402l-1.5286901 4.6251788z"/><path d="m19.9630256 98.1674631c.322417-.3419348 5.3331924-5.5750239 5.3331924-5.5750239l-7.9524614 3.0833599-.8666807-.8236169 2.6325797-8.1454816s-5.0166913 5.4218966-5.2429748 5.6627376l-.8666808-.8251035 6.1614198-6.5443347 1.2719206 1.2086652-2.5630678 8.0711479 7.8740756-3.0179463 1.2556518 1.1937985-6.1614198 6.5443347z"/><path d="m32.8374476 97.3408746-3.8453656 2.6748514 3.6958547 1.951994zm-.2263624 8.0121394.0726596-2.299627-4.5943177-2.425162-1.8947368 1.338115-1.1946903-.630432 7.8681882-5.335908 1.1318118.5987033-.1620866 9.4012967z"/><path d="m44.8117616 109.713433-5.0206091-8.913433s-1.485823 6.644776-1.6331058 7.295522l-1.1580467-.282089 2.0056445-8.813433 1.2417958.3044776 4.9729588 8.8865674s1.5190338-6.835821 1.6215542-7.283582l1.1580467.280597-2.0042006 8.81194z"/><path d="m62 107.246218c-.8991605 2.115718-2.9981212 2.673818-4.7495535 2.746919-2.8395269.118087-5.1260425-1.2863-5.2460225-4.325624-.1061892-2.654136 1.7045436-4.530869 4.8626381-4.660202 1.9886342-.082942 3.7676481.531389 4.7964422 2.277384l-1.2549633.330361c-.6991938-1.216011-2.1017188-1.605415-3.4504596-1.549184-1.8465889.077319-3.8021251.99249-3.6986941 3.536975.0937775 2.388442 1.8769287 3.416076 4.1151765 3.321888 1.147395-.047797 2.6602464-.400651 3.3608193-1.892197z"/><path d="m66.66535 109-2.66535-8.574116 8.0155271-2.425884.3281122 1.0555033-6.7839825 2.0533527.7925633 2.551539 6.6116862-2.001613.3176246 1.021503-6.6101879 2.000134.8974393 2.890069 7.1046037-2.147964.326614 1.055503z"/><path d="m87.012939 99.833041-9.2911275-2.3949491s3.4048059 5.4128371 3.7347504 5.9417751l-.9662662.620133-4.4902957-7.2016836 1.0369686-.6636268 9.2412199 2.4103823s-3.5115526-5.5601543-3.7389094-5.9263416l.9676525-.6187303 4.4930684 7.2030866z"/><path d="m87.8185643 88.6110585 3.8825353 3.4998554c1.0274393.9257682 1.6004344.742308 2.0083052.6350544.4812594-.1368895 1.1784504-.4558279 1.9814902-1.3463153.1623015-.1806377 1.5820873-1.7908535 1.0556657-2.9988681-.1848826-.4120797-.4558556-.6731576-.7973945-.9836287l-3.8895919-3.5069115.8199756-.9102447 3.8274939 3.4518735c.4233954.3810327.7762248.7169059 1.0260281 1.2517628.7607003 1.6017484-.2413354 3.2768808-1.2899445 4.4369135-.4389198.486875-2.1113314 2.2311578-4.0123765 1.7880309-.6957797-.170759-1.1798617-.5757826-1.6935814-1.0386667l-3.7371695-3.3686108z"/><path d="m97.2057209 76.4743171 6.7942791 3.4866862-.589425 1.0389967-6.7942791-3.4866861-1.6974863 2.9933001-.9188096-.4713967 3.9901762-7.0352173.9188096.4700223z"/><path d="m104.478324 67.1965916c.174855-.7149599.358381-1.5578601-.121388-2.2080973-.112716-.1640645-.352601-.4410175-.84682-.5749784-.154625-.0406398-.481214-.1143936-.882948.0045156-.729769.2031991-.936417.7766723-1.108382 1.4660442l-1.199422 4.8572121 3.078035.8263432zm5.117052-1.7249349-4.141619 2.0801571-1.056358 4.2701924 3.404624.9121384-.313584 1.2658554-8.488439-2.2758304 1.489884-6.0222206c.184971-.7525894.287573-1.0190061.476879-1.3667024.595376-1.1123271 1.651734-1.548829 2.819364-1.237257.455202.1234247 1.622833.5433696 1.820809 2.0124241.030347.2483545.044798.504235-.00867 1.026532l4.401734-2.3044288z"/><path d="m109.927776 59-8.927776-.5460581.069276-1.4539419 8.930724.5460581z"/><path d="m102.389167 49.3684929 7.481215-.791944.129618 1.1660693-7.479806.791944.377583 3.3575696-1.010175.1078682-.887602-7.8934972 1.007358-.1065028z"/><path d="m108 40.3574297-8.6477553 2.6425703-.3522447-1.3558233 8.647755-2.6441767z"/><path d="m96.7406404 33.5857565c1.0012018 1.790442 2.9040794 2.9379151 5.1723806 1.8589887 1.983093-.9445746 2.449528-2.8337239 1.23442-5.0121407-1.414161-2.5307472-3.5294595-2.5965521-5.1189045-1.8439084-1.4498115.6909515-2.7362222 2.4005083-1.2878961 4.9970604m7.4050316-3.600077c1.532997 2.7418713 1.005658 5.2438288-1.6043 6.4845256-2.8803121 1.3695647-5.4694734-.0863689-6.7751951-2.4210723-1.2165939-2.1770459-1.229963-5.135525 1.7840406-6.5695237 2.247505-1.0679588 4.9733285-.403055 6.5954545 2.5060704"/><path d="m93.385927 13.9058103-.6088439 10.1689741s4.9076958-4.6264185 5.3894509-5.0763731l.833466.8881071-6.5347277 6.1134816-.8955326-.9515433.6339661-10.1232411s-5.0377401 4.7650931-5.3717176 5.0778484l-.8319882-.8881071 6.5376833-6.1149569z"/><path d="m58.7767776 51.6761985c.6120966-.353238.8793696-.8816933 1.1161762-2.2357724.2437308-1.4115503.0858597-1.9988786-.6245601-2.2638071-.3794445-.1457808-.4376075-.1457808-3.018938-.176619h-7.3783952l-.8710605 5h7.3783952c2.7364318-.0294365 2.8527579-.0294365 3.3983824-.3238015"/><path d="m37.982746 48.9241764c-.1218042.6843421-.4092076 1.1677267-.8704216 1.3388122-.4037333.1710856-1.2454146.2281141-3.3133503.2281141h-8.2128936l.5378549-3.0184378h8.211525c2.6372681.0271564 2.7221205.0271564 3.0286841.084185.5775439.1425712.7609346.5702851.6186015 1.3673265m-.5022716 6.8665047c-.1423331.7970413-.4187877 1.2233974-.9429567 1.4229972-.4653198.1995998-.4653198.1995998-3.9442692.228114h-8.2416339l.5624894-3.1623669h8.2402654c3.3831483.0298721 3.3831483.0298721 3.6596029.0855428.6350246.1425713.8225211.5417709.6665021 1.4257129m6.3310858-7.8346316c.6117586-3.4475095-.2093939-4.6437505-3.2982959-4.8718646-.8498928-.0570285-.8498928-.0570285-5.3826546-.0841849h-13.7543043l-3.3763054 19h13.7830447c6.436467-.0285143 6.7567165-.0570285 7.9145415-.4277139 1.7942182-.5689273 2.7618096-1.9661259 3.2408152-4.6709068.5433292-3.0483099-.0355833-4.1590081-2.4853549-4.586722 2.0186665-.540413 2.8767709-1.6524691 3.3585137-4.3586078"/><path d="m85.0640566 43-2.3700036 14.1580076h-.6027518l-7.4940773-14.1580076h-13.0773903v.1317087c.0970416.0108626.1927165.0244408.2952253.0393768 1.0920605.1670121 1.9052971.4412921 2.4971146.8730794.2829243.2050311.5207447.4440078.7038938.731866.0328028.0556707.0669724.1126992.0970417.1710855.0300692.0543129.0601385.1086258.0874742.1670121.0027335.0054313.0054671.0108626.0082007.0176517.0109342.0271564.0205017.0570285.0328028.0855427.0328028.0801115.0642388.1656543.0929413.2539127.019135.0570285.0355364.1181305.0519378.1792325.0027336.0176517.0082007.0353034.0123011.052955.0246021.099121.0464706.2036733.0656056.3109412.0027336.0122204.0054671.0244408.0082007.038019.0109343.0678911.019135.1398557.0287025.2091046v.0067891c.0136678.1181305.0259689.2403344.0328028.3666119 0 .0027156.0013668.0054313.0013668.0067891.0041003.0814693.0082007.1642964.0109342.2484814.0027336.1330665.0027336.2702065 0 .4127778-.0013667.0841849-.0041003.1710855-.0068339.2593439-.0013668.0135783-.0013668.0271565-.0027335.0393769-.006834.1466447-.019135.2987208-.0314361.4548703-.0068339.0977631-.0136678.1928107-.0246021.2932895-.019135.1833059-.0423703.3774744-.069706.5716429-.0095675.0692489-.0177682.13714-.0259689.2063889-.0054671.0434503-.012301.0882585-.019135.1330666-.0410035.2756378-.0861074.5580647-.1394119.8595012-.0437371.2444079-.0874742.4779532-.1325781.7047094-.0164014.0787537-.0341696.1547917-.0492042.2335454-.0300693.1412135-.0601385.2824269-.0915746.4168513-.0232353.1031944-.0478374.2036732-.0724395.3027942-.019135.0814693-.0410035.1642965-.0615053.2457658-.0273357.1072679-.0574049.2118202-.0847406.3136568-.0205018.0692489-.03827.13714-.0587717.2023154-.0314361.1086258-.0656057.2158937-.0984085.3190882-.0177682.0543128-.0355364.1072679-.0533046.1602229-.0369031.1099836-.0751731.2158937-.1134431.3190881-.0164014.0434503-.031436.084185-.0478374.1235618-.0423703.1099836-.0861074.2158937-.1298445.3190881-.0136678.0312299-.0273357.0597442-.0410035.0896163-.0492042.1086257-.0984085.2145358-.1489795.3163724l-.031436.0597442c-.0546714.1072679-.1120763.2118202-.170848.3136568l-.0205018.0312299c-.0642388.1059101-.1298445.2091046-.1981837.3082256 0 .0027156-.0013668.0040734-.0027336.0067891-.4360041.6273136-.9594824 1.0930465-1.6005041 1.4487958v.0040735c-.3198275.1765168-.6669907.327235-1.0483235.4562281-.170848.052955-.3403292.1018366-.5152776.1452869-.0874741.023083-.1763151.0420925-.2665229.0624598-.3621978.0801115-.753098.1425713-1.2205382.1900951-.1161766.0122204-.2378204.0217251-.3635645.0325877-.2542219.0203673-.5303123.038019-.8323716.0515972-.9075446.0434503-2.0597436.0583864-3.6069432.0583864h-7.3423643l-.7968351 4.4998213-.0259689.1439291h20.9528004l2.374104-14.1865218h.6300875l7.5473818 14.1865218h10.1224031l3.3732232-19z"/></g></svg>