<svg height="23" viewBox="0 0 243 23" width="243" xmlns="http://www.w3.org/2000/svg" xmlns:xlink="http://www.w3.org/1999/xlink"><mask id="a" fill="#fff"><path d="m0 .345h242.865031v4.35483333h-242.865031z" fill="#fff" fill-rule="evenodd"/></mask><g fill="#fd4637" fill-rule="evenodd"><path d="m174.91151 4.69983333c-25.488826 0-49.155549-.09833333-72.074593-.29333333-8.9927658-.07666667-17.9825883-.20166667-26.9665236-.32666667-19.3925838-.27166666-39.4415954-.55-59.1462032-.31166666-1.1597872.015-2.3637287.00833333-3.5882756.00333333-3.96505928-.02-8.03314532-.03666667-11.02092197.61666667l-2.11646444-3.11333334c4.02981895-.87666666 8.90151388-.855 13.18448431-.83666666 1.1656745.00166666 2.3166308.01 3.4146019-.00333334 19.8370708-.24 39.9537857.04166667 59.4140728.31333334 8.9692172.12333333 17.9384344.24833333 26.9105948.325 41.9319.35833333 86.383541.39 139.883876.09166666l.058873 3.33333334c-24.31432.13333333-46.765328.20166666-67.953521.20166666" mask="url(#a)"/><path d="m191.216445 14c-39.124713-2.5966958-79.790024-2.1702633-119.1179901-1.7584848-14.1540617.1480058-28.7912172.3018733-43.0925635.3106657l-.0058914-2.93080795c14.2424325-.00879242 28.850131-.16265984 42.9747357-.31066564 39.5488933-.41470932 80.4469143-.84407268 120.0252643 1.78486199z"/><path d="m128.777957 23-75.777957-1.6644407.2220428-3.3355593 75.7779572 1.6644407z"/></g></svg>