<svg enable-background="new 16 34.667 221.167 75.667" height="33" viewBox="16 34.667 221.167 75.667" width="106" xmlns="http://www.w3.org/2000/svg" xmlns:xlink="http://www.w3.org/1999/xlink"><mask id="a" height="57.447" maskUnits="userSpaceOnUse" width="77.988" x=".617" y=".807"><path d="m.617.808h77.987v57.446h-77.987z" fill="#fff"/></mask><mask id="b" height="57.448" maskUnits="userSpaceOnUse" width="135.161" x=".832" y=".808"><path d="m.832.808h135.16v57.447h-135.16z" fill="#fff"/></mask><mask id="c" height="9.592" maskUnits="userSpaceOnUse" width="8.163" x="0" y=".33"><path d="m0 .33h8.163v9.591h-8.163z" fill="#fff"/></mask><mask id="d" height="9.75" maskUnits="userSpaceOnUse" width="8.241" x=".07" y=".25"><path d="m.07.25h8.242v9.75h-8.242z" fill="#fff"/></mask><mask id="e" height="9.67" maskUnits="userSpaceOnUse" width="8.223" x=".075" y=".33"><path d="m.075.33h8.223v9.67h-8.223z" fill="#fff"/></mask><mask id="f" height="9.75" maskUnits="userSpaceOnUse" width="8.241" x=".367" y=".25"><path d="m.367.25h8.241v9.75h-8.241z" fill="#fff"/></mask><g fill="#fff" transform="translate(16 35)"><path d="m121.791 29.077c1.819-1.034 2.609-2.584 3.309-6.546.729-4.134.256-5.856-1.847-6.631-1.129-.431-1.302-.431-8.952-.517h-21.876l-2.582 14.641h21.875c8.113-.086 8.458-.086 10.073-.947"/><path d="m60.555 18.722c-.365 2.067-1.226 3.531-2.608 4.048-1.211.517-3.74.689-9.94.689h-24.633l1.61-9.13h24.632c7.909.087 8.167.087 9.084.259 1.733.431 2.28 1.723 1.855 4.134m-1.507 20.758c-.425 2.41-1.256 3.702-2.826 4.305-1.398.604-1.398.604-11.835.689h-24.718l1.685-9.56h24.719c10.148.086 10.148.086 10.979.258 1.904.432 2.467 1.638 1.996 4.308m18.99-23.686c1.838-10.422-.625-14.039-9.891-14.728-2.553-.171-2.553-.171-16.147-.259h-41.254l-10.129 57.447h41.34c19.308-.086 20.27-.172 23.741-1.292 5.385-1.723 8.282-5.941 9.725-14.125 1.625-9.215-.108-12.574-7.46-13.866 6.059-1.636 8.633-4.994 10.075-13.177" mask="url(#a)" transform="translate(2 .1919)"/><path d="m118.164.808-7.117 42.805h-1.809l-22.511-42.805h-39.276v.4c.287.036.578.075.884.117 3.28.508 5.721 1.337 7.503 2.64.85.621 1.564 1.342 2.111 2.213.103.167.201.338.295.516.088.166.181.328.26.504.007.019.015.038.023.057.035.082.064.172.098.256.103.248.197.505.283.771.055.174.104.357.151.54.013.054.027.108.04.161.074.303.141.616.197.94.007.04.015.076.021.116.033.206.06.419.086.634 0 .006.002.012.002.019.043.356.078.725.101 1.107.001.007.001.014.001.021.015.245.025.496.033.753.01.401.009.819 0 1.247-.004.258-.01.516-.021.783l-.006.12c-.021.441-.055.904-.094 1.373-.024.296-.043.584-.074.89-.057.552-.131 1.137-.209 1.728-.027.208-.052.412-.079.62-.019.134-.039.269-.058.404-.122.834-.258 1.692-.418 2.602-.129.737-.264 1.441-.4 2.127-.048.241-.1.469-.148.705-.09.43-.181.855-.273 1.265-.071.31-.143.611-.216.91-.062.251-.122.5-.185.742-.084.325-.17.642-.258.954-.057.206-.115.411-.174.613-.098.328-.196.648-.296.962-.054.163-.106.325-.159.484-.111.331-.227.654-.343.968-.046.125-.093.249-.142.372-.127.33-.258.652-.393.964-.039.091-.079.182-.119.272-.146.328-.296.648-.451.956-.031.061-.062.12-.092.18-.168.326-.339.641-.518.944-.02.033-.039.066-.059.098-.191.323-.388.634-.592.932-.005.006-.01.013-.014.019-1.309 1.9-2.877 3.306-4.807 4.382l.001.011c-.957.533-1.998.989-3.146 1.38-.513.161-1.022.309-1.548.441-.262.066-.528.129-.799.189-1.086.239-2.264.428-3.666.571-.351.036-.715.069-1.097.101-.761.062-1.588.113-2.497.156-2.725.129-6.185.178-10.836.178h-22.046l-2.398 13.599-.078.44h62.934l7.131-42.892h1.895l22.668 42.892h30.403l10.129-57.448h-17.828z" mask="url(#b)" transform="translate(84 .1919)"/><path d="m6.826 2.359c.016-.08.016-.144 0-.16-.08-.225-.368-.623-.624-.623h-3.261l-.559 2.877h3.101c.288 0 .912-.56 1.072-.783.016-.016.047-.096.063-.176zm-.783 4.094c.015-.082 0-.146 0-.16-.08-.193-.352-.512-.48-.592-.015-.017-.08-.017-.159-.017h-3.262l-.575 2.989h3.085c.304 0 .896-.559 1.07-.783.017-.016.049-.08.065-.16zm.607 2.285c-.16.191-.751.686-1.007.847-.336.207-.767.336-1.135.336h-4.508l1.854-9.591h4.509c.383 0 .751.143 1.006.351.193.159.592.64.687.831.129.273.129.607.065.927l-.224 1.166c-.144.752-.56 1.088-1.119 1.455.384.447.687.752.559 1.455l-.255 1.326c-.064.321-.208.624-.432.897z" mask="url(#c)" transform="translate(0 63.1919)"/><path d="m13.924 64.863-2.605 4.877h3.324zm1.2 8.25-.304-2.143h-4.157l-1.151 2.144h-1.439l5.195-9.593h1.727l1.487 9.593h-1.358z"/><path d="m24.764 65.551c.016-.064.016-.144 0-.191-.064-.176-.336-.576-.559-.592h-.097-3.245l-.607 3.101h3.07c.287 0 .942-.495 1.102-.718.032-.049.048-.113.065-.176zm-1.039 7.562-1.519-3.998h-2.19l-.768 3.998h-1.326l1.854-9.592h4.509c.367 0 .767.127 1.006.334.193.16.592.656.687.848.113.24.161.591.097.911l-.288 1.438c-.064.32-.208.624-.447.896-.16.192-.752.688-1.008.848-.224.146-.591.304-.815.288l1.599 4.029z"/><path d="m27.116 73.113 1.854-9.592h5.884l-.241 1.246h-4.556l-.576 2.925h4.301l-.24 1.248h-4.301l-.559 2.925h4.557l-.241 1.248z"/><path d="m45.837 65.502c.016-.078.016-.158.016-.176 0-.143-.384-.559-.544-.559h-.096-3.277l-.607 3.101h3.037c.288 0 .943-.558 1.135-.751.032-.032.064-.095.08-.176zm.576 2.446c-.159.192-.767.688-1.023.849-.336.207-.751.318-1.119.318h-3.182l-.767 3.997h-1.326l1.854-9.591h4.508c.367 0 .768.127 1.007.335.192.159.592.655.688.847.113.273.16.591.097.911l-.288 1.438c-.066.321-.21.626-.449.896z"/><path d="m47.597 73.113 1.854-9.592h5.883l-.24 1.246h-4.556l-.576 2.925h4.301l-.239 1.248h-4.301l-.56 2.925h4.557l-.241 1.248z"/><path d="m62.609 65.551c.016-.064.016-.144 0-.191-.064-.176-.336-.576-.56-.592h-.096-3.245l-.607 3.101h3.069c.288 0 .943-.495 1.103-.718.032-.049.048-.113.064-.176zm-1.04 7.562-1.519-3.998h-2.19l-.767 3.998h-1.326l1.854-9.592h4.508c.367 0 .768.127 1.007.334.192.16.592.656.688.848.113.24.16.591.097.911l-.288 1.438c-.065.32-.208.624-.448.896-.159.192-.751.688-1.007.848-.224.146-.591.304-.816.288l1.599 4.029z"/><path d="m67.9 64.768-.574 2.925h4.3l-.239 1.248h-4.302l-.799 4.172h-1.327l1.855-9.592h5.868l-.241 1.247z"/><path d="m6.971 2.438c.016-.063 0-.128-.016-.159-.159-.305-.448-.654-.639-.752-.032-.016-.08-.031-.144-.031h-2.382c-.064 0-.112.016-.144.031-.288.129-1.167.801-1.231 1.071l-1.007 5.228c-.048.24.447.735.656.879.048.033.095.049.159.049h2.382c.064 0 .129-.032.16-.049.272-.127 1.152-.767 1.199-1.039zm-.127 6.171c-.24.288-1.008.928-1.36 1.119-.287.145-.671.272-.975.272h-2.526c-.304 0-.639-.127-.863-.272-.288-.191-.815-.831-.959-1.119-.111-.255-.111-.574-.048-.847l1.023-5.26c.048-.271.16-.591.384-.847.24-.286 1.023-.943 1.391-1.135.288-.145.656-.27.959-.27h2.526c.304 0 .656.125.879.271.272.192.783.863.927 1.136.128.256.128.56.08.847l-1.023 5.26c-.063.286-.175.59-.415.845z" mask="url(#d)" transform="translate(73 63.1919)"/><path d="m88.877 65.551c.016-.064.016-.144 0-.191-.064-.176-.336-.576-.56-.592h-.096-3.245l-.607 3.101h3.07c.287 0 .942-.495 1.102-.718.032-.049.048-.113.065-.176zm-1.039 7.562-1.519-3.998h-2.191l-.767 3.998h-1.326l1.854-9.592h4.508c.368 0 .768.127 1.007.334.192.16.592.656.687.848.113.24.161.591.097.911l-.288 1.439c-.064.32-.208.624-.447.896-.16.192-.752.688-1.008.848-.224.146-.591.304-.816.288l1.599 4.029h-1.39z"/><path d="m98.374 73.113 1.471-7.627-3.501 5.148h-.865l-1.485-5.148-1.471 7.627h-1.295l1.854-9.592h1.583l1.55 5.227 3.581-5.227h1.711l-1.855 9.592z"/><path d="m106.991 64.863-2.605 4.877h3.325zm1.199 8.25-.303-2.144h-4.157l-1.151 2.144h-1.439l5.195-9.593h1.728l1.486 9.593z"/><path d="m116.408 73.113-2.7-7.322-1.423 7.322h-1.295l1.855-9.592h1.422l2.686 7.402 1.439-7.402h1.296l-1.856 9.592z"/><path d="m126.641 71.896c-.575.576-1.375 1.295-2.207 1.295h-2.109c-.303 0-.655-.128-.879-.271-.288-.191-.799-.831-.943-1.119-.111-.255-.128-.559-.064-.846l1.023-5.276c.049-.288.176-.576.4-.831.238-.271 1.007-.943 1.374-1.136.288-.144.655-.271.96-.271h2.126c.831 0 1.375.703 1.694 1.296.097.158.191.398.304.814l-1.279.352c-.095-.479-.495-.976-.815-1.199 0 0-.031-.016-.127-.016h-1.967c-.063 0-.08 0-.111.016-.256.112-.961.673-1.215.992-.049.047-.097.398-.112.479l-.944 4.876c-.047.256.448.769.657.879.03.017.048.017.11.017h2.015c.097 0 .128-.017.128-.017.384-.19 1.039-.719 1.311-1.215l1.279.352c-.16.287-.386.607-.609.829"/><path d="m128.769 73.113 1.854-9.592h5.883l-.24 1.246h-4.556l-.576 2.925h4.301l-.24 1.248h-4.3l-.56 2.925h4.557l-.242 1.248z"/><path d="m146.066 73.113-2.701-7.322-1.423 7.322h-1.295l1.855-9.592h1.422l2.686 7.402 1.439-7.402h1.295l-1.855 9.592z"/><path d="m6.459 8.609c-.239.288-1.006.928-1.358 1.119-.288.145-.656.272-.959.272h-2.144c-.303 0-.654-.127-.879-.271-.287-.192-.799-.832-.942-1.12-.113-.255-.128-.543-.064-.831l1.438-7.448h1.311l-1.454 7.511c-.049.242.494.785.719.897.016 0 .048.016.111.016h1.967c.064 0 .097-.016.111-.016.258-.111 1.199-.863 1.247-1.087l1.423-7.321h1.312l-1.44 7.448c-.063.288-.159.576-.399.831" mask="url(#e)" transform="translate(150 63.1919)"/><path d="m163.781 64.768-1.615 8.345h-1.326l1.615-8.345h-2.734l.24-1.247h6.778l-.239 1.247z"/><path d="m173.535 65.551c.016-.064.016-.144 0-.191-.064-.176-.336-.576-.561-.592h-.096-3.245l-.606 3.101h3.068c.288 0 .943-.495 1.104-.718.031-.049.047-.113.063-.176zm-1.041 7.562-1.519-3.998h-2.19l-.767 3.998h-1.325l1.854-9.592h4.508c.367 0 .768.127 1.008.334.191.16.592.656.687.848.112.24.159.591.097.911l-.288 1.438c-.065.32-.208.624-.448.896-.158.192-.75.688-1.007.848-.224.146-.591.304-.815.288l1.599 4.029z"/><path d="m175.854 73.113 1.853-9.592h1.328l-1.854 9.592z"/><path d="m184.598 64.768-1.614 8.345h-1.328l1.615-8.345h-2.734l.24-1.247h6.779l-.24 1.247z"/><path d="m187.477 73.113 1.854-9.592h1.327l-1.853 9.592z"/><path d="m7.268 2.438c.016-.063 0-.128-.016-.159-.159-.305-.448-.654-.639-.752-.033-.016-.08-.031-.144-.031h-2.382c-.064 0-.112.016-.144.031-.289.129-1.168.801-1.231 1.071l-1.007 5.228c-.049.24.447.735.656.879.047.033.094.048.159.048h2.383c.063 0 .129-.032.159-.049.272-.127 1.152-.767 1.199-1.039zm-.127 6.171c-.241.288-1.008.928-1.36 1.119-.287.145-.672.272-.975.272h-2.527c-.304 0-.639-.127-.863-.271-.287-.192-.814-.832-.959-1.12-.11-.255-.11-.574-.047-.847l1.022-5.26c.048-.271.16-.591.384-.847.241-.286 1.024-.943 1.391-1.135.289-.145.656-.27.959-.27h2.527c.303 0 .655.125.879.271.271.192.782.863.926 1.136.129.256.129.56.08.847l-1.022 5.26c-.064.286-.175.59-.415.845z" mask="url(#f)" transform="translate(191 63.1919)"/><path d="m205.75 73.113-2.701-7.322-1.424 7.322h-1.293l1.854-9.592h1.421l2.686 7.402 1.439-7.402h1.295l-1.854 9.592z"/></g></svg>