<svg height="64" viewBox="0 0 58 64" width="58" xmlns="http://www.w3.org/2000/svg"><path d="m58 25.7894737h-2.0483271v-6.4210526c0-2.3157895-1.9405205-4.2105264-4.3122677-4.2105264h-18.6505576v-15.1578947l-8.4089219 15.1578947h-20.26765804c-2.37174721 0-4.31226766 1.8947369-4.31226766 4.2105264v25.2631578c0 2.3157895 1.94052045 4.2105264 4.31226766 4.2105264h19.83643124v15.1578947l8.4089219-15.1578947h19.0817844c2.3717472 0 4.3122677-1.8947369 4.3122677-4.2105264v-6.2105263h2.0483271zm-53.68773234 19.8947368c-.53903346 0-1.07806692-.4210526-1.07806692-1.0526316v-25.2631578c0-.5263158.43122677-1.0526316 1.07806692-1.0526316h18.65055764l-10.133829 18.3157894h11.3197026v9.0526316zm13.90706324-12.2105263 11.5353159-20.9473684v18h9.1635688l-11.535316 20.9473684v-18zm34.4981412 11.1578947c0 .5263158-.4312267 1.0526316-1.0780669 1.0526316h-17.3568773l10.133829-18.3157894h-11.4275093v-9.0526316h18.6505576c.5390335 0 1.0780669.4210526 1.0780669 1.0526316z"/></svg>