<svg height="72" viewBox="0 0 43 72" width="43" xmlns="http://www.w3.org/2000/svg"><path d="m41.2542024 7.49346835c-.1737458-.24115443-.4555382-.38460759-.7561416-.38460759h-19.5521916v-2.76598481c.2766959-.15767089.463322-.45132152.463322-.78844557v-2.00506329c0-.44393924-.3253447-.8233519-.7702266-.89826836-.1576221-.02661265-3.896724-.65109873-6.7819232-.65109873s-6.62420839.62448608-6.78192322.65109873c-.44488186.07491646-.77022662.45432912-.77022662.89826836v2.00506329c0 .33712405.18662613.63077468.46332208.78844557v2.76598481h-4.26256311c-.28494307 0-.55404053.12896202-.72973227.34970127-.07644814.09615189-1.8725625 2.39623291-1.77183628 6.00944807.09600033 3.4459747.95351683 5.6383291.99002661 5.7299241.13899663.3493367.4814843.579281.86289104.579281h1.03617349l3.41375706 51.3708152c.03187656.4792101.43635673.8519696.92460553.8519696h28.54063989c.4883415 0 .8928217-.3727595.9246982-.8519696l3.4136644-51.3708152h1.0361735c.3740862 0 .7114774-.2211949.8552925-.5608709.0408651-.0961519.9979958-2.3944101.9979958-5.7733063 0-3.485438-1.674446-5.85059243-1.7457976-5.94956965zm-33.09602254-5.16495189c1.23577265-.18136709 3.72260754-.50573165 5.69886154-.50573165 1.97403 0 4.4624402.32454684 5.6988615.50582278v.31443038h-11.39772304zm.46332208 2.13730632h10.47107896v2.64303798h-10.47107896zm26.28268606 65.71139242h-26.80447938l-3.34935529-50.4h33.50309737zm5.5824751-52.2227848h-37.95552985c-.23601627-.8071291-.61519905-2.411362-.67441162-4.5363646-.06125117-2.1974582.73862806-3.81089618 1.14718547-4.48642023h36.975233c.4004956.70897215 1.1675716 2.34911393 1.1675716 4.51139243 0 2.0746936-.4073528 3.7017114-.6600486 4.5113924z"/></svg>