<svg height="64" viewBox="0 0 64 64" width="64" xmlns="http://www.w3.org/2000/svg"><path d="m62.3332771 47.9569052c2.2229921-2.2249446 2.222297-5.8449108-.0020854-8.0691603v-.0006951c-.9717771-.9703288-2.2097849-1.5173552-3.4804633-1.6389938l2.251492-2.2520527c1.2553858-1.2546158 1.9470297-2.9228029 1.9470297-4.697337s-.6916439-3.4434163-1.9470297-4.6987271c-1.2546907-1.2546158-2.9229775-1.9455233-4.6976175-1.9455233h-.0006952c-1.7753352 0-3.443622.6916026-4.6983127 1.9469134l-8.8975295 8.8969982-14.3041691-14.3033147 8.8975296-8.8976932c2.5900153-2.5912507 2.5900153-6.80689864 0-9.39745427-2.5907104-2.59055563-6.805915-2.58986055-9.3966254 0l-2.2507969 2.25066249c-.1230362-1.27060254-.6694001-2.50714627-1.6397869-3.4781702-1.0781304-1.07806595-2.5107716-1.67166254-4.0351687-1.67235762-.0006951 0-.0006951 0-.0013902 0-1.523702 0-2.9563433.59359659-4.0337785 1.67096746l-3.3539516 3.35305617-4.60516665-4.60489161-7.66855831 7.66879534 4.60516668 4.60489164-3.35395158 3.3530561c-2.22368728 2.2249447-2.22299216 5.8449108.00069512 8.0705505.9446674.9446109 2.16182164 1.5166601 3.47559749 1.6431643l-2.24732134 2.2471871c-1.25538581 1.2546158-1.94633459 2.9228029-1.94633459 4.6980321 0 1.7752291.69094878 3.4441114 1.94563947 4.6994222 1.2546907 1.2546157 2.92367261 1.9462183 4.69900781 1.9462183s3.4443171-.6909075 4.6990078-1.9462183l8.719579-8.7190582 14.3034739 14.3026196-8.7188838 8.7190582c-1.2546907 1.2553108-1.9456395 2.924193-1.9463346 4.6994222 0 1.7759242.6916439 3.4441114 1.9463346 4.698032 1.2950076 1.2949303 2.9973552 1.942743 4.6983126 1.942743 1.7016526 0 3.4033051-.6478127 4.699703-1.942743l2.2466262-2.246492c.1265117 1.3130023.6992902 2.5300839 1.6439576 3.4746948 1.1135814 1.1121248 2.5747226 1.6674921 4.0372541 1.6674921 1.4611411 0 2.9215872-.5553673 4.0337784-1.666797l3.3532565-3.3530562 4.6051666 4.6048916 7.6678632-7.6674051-4.6058618-4.6062818zm-58.46249223-26.0432841c-1.30649264-1.3068364-1.30713592-3.4330182-.00128655-4.7392115l4.46754872-4.4665252-4.26170054-4.26072414 4.36719773-4.36619719 4.26170057 4.26072417 4.4688352-4.46652518c.6323399-.632195 1.4737443-.98077047 2.3678973-.98077047h.0006433c.8954396 0 1.736844.3492186 2.3698272.98205672 1.3058493 1.3055502 1.3052061 3.43108882-.0006433 4.73663902l-13.30293845 13.29989067c-.63298315.6328381-1.47503085.9814136-2.36982714.9814136-.89415302 0-1.73491417-.3479324-2.36725404-.9807705zm6.98519283 13.498c-.8052522.8045982-1.87632207 1.248492-3.01498374 1.248492-1.13931159 0-2.20973155-.4438938-3.0143338-1.248492-.80525218-.8052481-1.24849833-1.8763125-1.24849833-3.0156183 0-1.1386559.44389607-2.2084205 1.24849833-3.0143185l24.66933044-24.64682102c.831249-.83059488 1.9224664-1.24589232 3.0143338-1.24589232s2.1830848.41529744 3.0143338 1.24589232c1.6618481 1.66248959 1.6618481 4.36744725 0 6.02928692l-11.4571025 11.4985963-4.4890047 4.4889819zm12.0550469-7.982717.5988713-.5988713 3.7392941-3.73863 13.6618346 13.6611707-2.1558039 2.1564679-2.1823614 2.1823614zm12.2170556 31.1752857c-1.6630382 1.6618396-4.3671811 1.6624896-6.0295694-.0006499-.8045492-.8039483-1.2477661-1.8743628-1.2477661-3.0130187 0-1.1393058.4438668-2.2103703 1.2484159-3.0162683l8.1520715-8.1519182 3.5210398-3.5212544 12.3985551-12.4487307c.805199-.805248 1.8761982-1.2491419 3.0147847-1.2491419s2.208286.4432439 3.013485 1.2478421c.805199.8052481 1.2490658 1.8763125 1.2490658 3.0149684 0 1.138006-.4438668 2.2077706-1.2490658 3.0136686zm24.7943703-3.0464612-4.3664604 4.3669343-4.260981-4.2614434-4.4667945 4.4672792c-1.3062721 1.3064138-3.432582 1.3044841-4.7388541-.0019297-.6328763-.6316585-.9808296-1.4730122-.9808296-2.3677545s.3492397-1.736096.9821159-2.3696842l13.3006926-13.302136c.6534576-.6535285 1.5114423-.9796496 2.369427-.9796496.8573416 0 1.7153263.3267643 2.3681407.9783631 1.3056289 1.3064139 1.3062721 3.4323113.0012864 4.7387252l-4.4680808 4.4672792z"/></svg>