<svg height="27" viewBox="0 0 102 102" width="27" xmlns="http://www.w3.org/2000/svg"><path d="m17.39258-3.5796c-3.2184433 0-6.1516374 1.14581914-8.9861761 3.20818526l-.4320413.32016342c-1.48310386 1.12021141-2.69396199 2.26471894-4.66203255 4.3180946l-2.16116549 2.26630757c-.1453838.14920223-.28135762.28702765-.4205714.42648388-2.73190913 2.72712953-4.05573641 6.81450077-4.04620743 11.71716757.02501418 13.5588105 9.66928126 32.9266836 27.23353927 50.5258989l.5401536.538191c18.035258 18.033949 37.7005088 27.9354078 51.2470014 27.9354078 4.6481612 0 8.5614993-1.2329644 11.2529427-3.7639339l1.4639568-1.4218827 1.414462-1.3541812c2.2897437-2.2117216 3.5051328-3.5369926 4.7829778-5.3323518 2.1609889-3.0361673 3.3172785-6.1765588 3.1780188-9.5812241-.2031118-4.9366462-3.0486323-9.3975473-8.3022589-13.6365417-5.9399392-4.7953376-10.8249943-7.1530846-15.4941792-7.1530846-4.5718487 0-7.6844173 1.8412729-11.7856455 5.8817602l-1.6813545 1.6941398-.0542951-.0144877c-.7553828-.2198848-1.9955573-.8126712-3.7041357-1.935113-3.1329096-2.0581488-7.1873506-5.4933614-12.2201453-10.4906448l-.4746925-.4730773c-4.9995356-4.9961373-8.6356786-9.2344649-10.7842195-12.534802-.8023251-1.2330592-1.4496102-2.4387297-1.7850084-3.3955772l-.0719361-.2170554-.0315674-.1052426.5786694-.5727238c4.371938-4.3306392 6.1811978-6.8561644 6.7256417-10.9707926.6553842-4.953058-1.5174275-10.3371714-6.7727252-16.96342116l-.3396333-.42464684c-4.4057682-5.55296372-9.0603696-8.4910156-14.2073726-8.4910156zm0 8c2.2393393 0 4.7556745 1.54677364 7.6921089 5.15454942l.2681098.33367162c4.2790059 5.30625606 5.7553806 8.87211346 5.4286394 11.34145656-.2330207 1.7610509-1.2776259 3.2192034-4.4230663 6.3349317l-1.2552049 1.2453828c-2.1751323 2.1756073-2.202126 4.9548232-1.1412954 7.9812349.5860973 1.6720593 1.508075 3.3893881 2.629674 5.1131255 2.4184293 3.7149081 6.2112139 8.1656842 11.3017553 13.2953606l.531234.5330756c10.7304867 10.7327963 17.7481456 15.3430113 22.6252452 15.3430113 1.7341252 0 3.2946079-.5767536 4.5120271-1.7941729l1.9696214-1.9918387c2.8946068-2.8980175 4.483968-3.8770884 6.4695715-3.8770884 2.4542115 0 5.8193785 1.6241808 10.4697628 5.3784552 3.6254206 2.9252438 5.2394451 5.4555378 5.3333985 7.7390805.1055792 2.5812364-1.4481072 4.882827-5.826966 9.1195736l-2.0022832 1.9232425c-.1394196.1365521-.2686119.2646831-.4175241.4134863-1.0174242 1.0184639-3.0066444 1.6693619-5.852308 1.6693619-11.0634524 0-28.5685247-8.7557828-45.0822329-25.087189l-.5211473-.5182455c-16.5198405-16.3676323-25.39638005-34.0681402-25.41724729-45.4092988-.00574806-2.9476937.66033042-5.0042384 1.70298159-6.0450687l.60116077-.611056c.16660782-.1717908.34411418-.3566625.54658284-.5690321l.69635669-.7340188c4.4569178-4.71089956 6.6162433-6.2819911 9.1610456-6.2819911z" transform="translate(4 4)"/></svg>