<svg height="29" viewBox="0 0 31 29" width="31" xmlns="http://www.w3.org/2000/svg"><path d="m1353.0212 26.8999058c-1.53548-1.2378421-2.73147-1.8141985-3.76407-1.8141985-1.25716 0-2.08647.8418546-2.96449 1.7330444-.09884.1003787-.19933.2024655-.3024.305363-.12317.1229906-.2786.1802589-.48814.1802589-.74467 0-2.34469-.7119443-5.7401-4.1032774-1.50124-1.4980941-2.60436-2.7820258-3.27852-3.8161256-.43093-.6613352-1.08045-1.8443382-.58637-2.3378351l.2673-.26509c1.59746-1.5773952 2.9775-2.9394989-.10366-6.7547849-1.08386-1.36410144-2.13573-2.0272606-3.21647-2.0272606-1.43185 0-2.53015 1.15882757-3.49877 2.1812016-.17443.1841964-.34488.3637314-.51137.5302667-.54786.5461328-.83638 1.4354986-.83413 2.5719458.00538 2.9287865 2.02815 8.3433848 7.70908 13.9639808 5.7308 5.7222485 11.14614 7.7526051 14.04212 7.7526051 1.10819 0 1.97858-.2844573 2.51656-.8222228.15853-.1581969.32899-.3200419.50341-.4863167 1.01988-.9699408 2.28891-2.1769455 2.22663-3.697391-.04306-1.0449859-.68944-2.0570528-1.97661-3.0941637z" fill="none" stroke="#000" stroke-width="2.5" transform="matrix(-.9961947 -.08715574 -.08715574 .9961947 1353.76905 110.001244)"/></svg>