<svg height="80" viewBox="0 0 80 80" width="80" xmlns="http://www.w3.org/2000/svg"><g fill="none" fill-rule="evenodd"><circle cx="40" cy="40" r="39.5" stroke="#c8102e"/><circle cx="40" cy="40" fill="#c8102e" r="36"/><path d="m13.9216667 45v-3.15h1.755c.59 0 1.1425-.0775 1.6575-.2325s.965-.3875 1.35-.6975.6875-.695.9075-1.155.33-.995.33-1.605v-.03c0-.54-.0925-1.0325-.2775-1.4775s-.45-.8275-.795-1.1475-.765-.5675-1.26-.7425-1.0575-.2625-1.6875-.2625h-4.29v10.5zm1.83-5.205h-1.83v-3.21h1.785c.58 0 1.0375.135 1.3725.405s.5025.665.5025 1.185v.03c0 .45-.16.8275-.48 1.1325s-.77.4575-1.35.4575zm9.7516666 5.385c.63 0 1.21-.11 1.74-.33s.99-.52 1.38-.9.695-.8225.915-1.3275.33-1.0475.33-1.6275v-.03c0-.58-.11-1.1225-.33-1.6275s-.5225-.945-.9075-1.32-.8425-.67-1.3725-.885-1.105-.3225-1.725-.3225c-.63 0-1.21.11-1.74.33s-.99.52-1.38.9-.695.8225-.915 1.3275-.33 1.0475-.33 1.6275v.03c0 .58.11 1.1225.33 1.6275s.5225.945.9075 1.32.8425.67 1.3725.885 1.105.3225 1.725.3225zm.03-1.965c-.32 0-.6075-.06-.8625-.18s-.4775-.2825-.6675-.4875-.335-.44-.435-.705-.15-.5475-.15-.8475v-.03c0-.3.0475-.5825.1425-.8475s.2325-.4975.4125-.6975.3975-.3575.6525-.4725.5475-.1725.8775-.1725c.31 0 .595.06.855.18s.485.2825.675.4875.335.44.435.705.15.5475.15.8475v.03c0 .3-.0475.5825-.1425.8475s-.2325.4975-.4125.6975-.3975.3575-.6525.4725-.5475.1725-.8775.1725zm8.4316667 4.185v-3.45c.27.32.6025.6.9975.84s.8975.36 1.5075.36c.48 0 .94-.09 1.38-.27s.8275-.4475 1.1625-.8025.605-.79.81-1.305.3075-1.1075.3075-1.7775v-.03c0-.67-.1025-1.2625-.3075-1.7775s-.4775-.95-.8175-1.305-.73-.6225-1.17-.8025-.895-.27-1.365-.27c-.6 0-1.0975.1225-1.4925.3675s-.7325.5575-1.0125.9375v-1.155h-2.28v10.44zm1.92-4.185c-.27 0-.5225-.0525-.7575-.1575s-.44-.255-.615-.45-.315-.43-.42-.705-.1575-.5775-.1575-.9075v-.03c0-.33.0525-.6325.1575-.9075s.245-.51.42-.705.38-.345.615-.45.4875-.1575.7575-.1575.5225.0525.7575.1575.4425.255.6225.45.3225.43.4275.705.1575.5775.1575.9075v.03c0 .34-.0525.645-.1575.915s-.2475.5025-.4275.6975-.3875.345-.6225.45-.4875.1575-.7575.1575zm8.7616667 1.935c.29 0 .55-.035.78-.105s.44-.165.63-.285.3625-.2575.5175-.4125.2975-.3175.4275-.4875v1.14h2.28v-8.04h-2.28v4.485c0 .54-.1275.9475-.3825 1.2225s-.6025.4125-1.0425.4125-.78-.1375-1.02-.4125-.36-.6825-.36-1.2225v-4.485h-2.28v5.205c0 .93.2375 1.66.7125 2.19s1.1475.795 2.0175.795zm9.2266666-.15v-10.95h-2.28v10.95zm4.5916667.15c.56 0 1.035-.0925 1.425-.2775s.725-.4325 1.005-.7425v.87h2.205v-4.665c0-1.09-.285-1.94-.855-2.55s-1.48-.915-2.73-.915c-.68 0-1.26.06-1.74.18s-.94.275-1.38.465l.57 1.74c.37-.14.7225-.2475 1.0575-.3225s.7225-.1125 1.1625-.1125c.57 0 1 .125 1.29.375s.435.615.435 1.095v.135c-.29-.1-.5875-.18-.8925-.24s-.6625-.09-1.0725-.09c-.48 0-.9175.0525-1.3125.1575s-.735.2625-1.02.4725-.5075.475-.6675.795-.24.7-.24 1.14v.03c0 .4.0725.7525.2175 1.0575s.3425.5625.5925.7725.5425.3675.8775.4725.6925.1575 1.0725.1575zm.69-1.575c-.37 0-.67-.085-.9-.255s-.345-.41-.345-.72v-.03c0-.36.14-.635.42-.825s.665-.285 1.155-.285c.28 0 .5425.0275.7875.0825s.4675.1275.6675.2175v.405c0 .42-.1625.76-.4875 1.02s-.7575.39-1.2975.39zm8.3566667 1.425v-2.97c0-.97.2175-1.685.6525-2.145s1.0325-.69 1.7925-.69h.12v-2.385c-.68-.03-1.22.12-1.62.45s-.715.77-.945 1.32v-1.62h-2.28v8.04z" fill="#fff" fill-rule="nonzero"/></g></svg>