<svg enable-background="new 0 0 512.008 512.008" height="20" viewBox="0 0 512.008 512.008" width="20" xmlns="http://www.w3.org/2000/svg"><path d="m381.048 248.633-234.667-245.334c-3.021-3.146-7.646-4.167-11.688-2.521-4.042 1.615-6.688 5.542-6.688 9.896v42.667c0 2.729 1.042 5.354 2.917 7.333l185.063 195.333-185.062 195.334c-1.875 1.979-2.917 4.604-2.917 7.333v42.667c0 4.354 2.646 8.281 6.688 9.896 1.292.521 2.646.771 3.979.771 2.854 0 5.646-1.146 7.708-3.292l234.667-245.333c3.938-4.125 3.938-10.625 0-14.75z"/></svg>