<svg height="30" viewBox="0 0 84 84" width="30" xmlns="http://www.w3.org/2000/svg"><g transform="translate(4 4)"><path d="m7.17914504 7.18386435c-14.57219339 14.57770275-14.57219339 38.21082275 0 52.78852555 14.57297616 14.5784858 38.19960746 14.5784858 52.77258366 0 14.5721933-14.5777028 14.5721933-38.2108228 0-52.78852555-14.5729762-14.5784858-38.1996075-14.5784858-52.77258366 0zm47.46828056 5.30229845c11.6445975 11.649 11.6445975 30.5349286 0 42.1839286-11.6438148 11.6482171-30.5201627 11.6482171-42.1639775 0-11.64459748-11.649-11.64459748-30.5349286 0-42.1839286 11.6438148-11.64821706 30.5201627-11.64821706 42.1639775 0z"/><path d="m59.6002581 54.3463084 20.2849109 20.2925801-5.3043031 5.3022985-20.2849109-20.2925802z"/></g></svg>