<svg height="23" viewBox="0 0 240 23" width="240" xmlns="http://www.w3.org/2000/svg" xmlns:xlink="http://www.w3.org/1999/xlink"><mask id="a" fill="#fff"><path d="m0 .345h239.866697v4.35483333h-239.866697z" fill="#fff" fill-rule="evenodd"/></mask><g fill="#fd4637" fill-rule="evenodd"><path d="m172.752108 4.69983333c-25.174148 0-48.54869-.09833333-71.184782-.29333333-8.8817445-.07666667-17.7605816-.20166667-26.6336042-.32666667-19.1531692-.27166666-38.9546621-.55-58.4160031-.31166666-1.1454688.015-2.3345469.00833333-3.5439759.00333333-3.91610791-.02-7.93397067-.03666667-10.88486119.61666667l-2.09033525-3.11333334c3.9800681-.87666666 8.79161865-.855 13.02171294-.83666666 1.1512834.00166666 2.2880304.01 3.3724463-.00333334 19.5921687-.24 39.4605291.04166667 58.6805657.31333334 8.8584862.12333333 17.7169723.24833333 26.5783657.325 41.414222.35833333 85.317077.39 138.156915.09166666l.058145 3.33333334c-24.014143.13333333-46.187978.20166666-67.114589.20166666" mask="url(#a)"/><path d="m189.226059 14c-38.644655-2.5966958-78.811005-2.1702633-117.6564195-1.7584848-13.9803922.1480058-28.4379507.3018733-42.5638204.3106657l-.0058191-2.93080795c14.0676787-.00879242 28.4961417-.16265984 42.4474383-.31066564 39.0636307-.41470932 79.4598357-.84407268 118.5525617 1.78486199z"/><path d="m126.780879 23-74.780879-1.6644407.2191212-3.3355593 74.7808788 1.6644407z"/></g></svg>