<svg viewBox="0 0 166.04 48.03" xmlns="http://www.w3.org/2000/svg"><path d="m44.27 48a1.73 1.73 0 0 1 -1.34-.63c-3.41-4.15-3.31-12.23-3.22-19.37 0-2.67.06-5.19-.11-7.06-.6-5.72-1.08-10.7-1.72-15.54-4.64 4.42-10.24 8.1-15.69 11.68-7.59 5-14.76 9.71-19.43 16.17l-2.8-2c5-6.95 12.81-12.06 20.32-17 6.29-4.13 12.79-8.4 17.52-13.68a1.75 1.75 0 0 1 1.78-.5 1.71 1.71 0 0 1 1.21 1.36c.9 6 1.54 12 2.22 19.17a73.49 73.49 0 0 1 .13 7.4c-.06 4.91-.13 10.77 1.13 14.62.84-1.66 1.69-3.42 2.57-5.25 3.74-7.71 7.93-16.45 14-21.58a1.21 1.21 0 0 1 .3-.2 1.72 1.72 0 0 1 2.34.7l.21.39c1.31 2.49 3.73 7.07 6.31 7.61 2.14.44 5.1-1.9 7.49-3.79a25 25 0 0 1 3.51-2.44c4.27-2.29 8.22-3.39 13.67-1.29l3 1.22c4.59 1.89 6.94 2.83 12.94 1.83a57.53 57.53 0 0 0 10.73-3.27 58.27 58.27 0 0 1 12-3.55 47.89 47.89 0 0 1 11.6 0 63.18 63.18 0 0 0 7.28.25 40.29 40.29 0 0 0 7.78-1.25c1.8-.37 3.67-.79 5.53-1l.51 3.26a53.21 53.21 0 0 0 -5.23 1 44 44 0 0 1 -8.46 1.34 65.51 65.51 0 0 1 -7.67-.33 44.27 44.27 0 0 0 -10.79 0 55.83 55.83 0 0 0 -11.32 3.37 61.84 61.84 0 0 1 -11.37 3.44c-7 1.23-10.14-.06-14.85-2-.94-.37-1.91-.77-3-1.19-3.76-1.44-6.55-1.15-10.76 1.11a25.34 25.34 0 0 0 -2.92 2.13c-2.95 2.33-6.61 5.23-10.36 4.46-3.55-.75-6.11-4.65-7.83-7.75-4.71 4.85-8.29 12.33-11.5 19-1.42 3-2.77 5.77-4.16 8.29a1.72 1.72 0 0 1 -1.36.87h-.15" fill="#fd4637" fill-rule="evenodd" transform="translate(.04)"/></svg>