<svg viewBox="0 0 166 48" xmlns="http://www.w3.org/2000/svg" xmlns:xlink="http://www.w3.org/1999/xlink"><mask id="a" height="48" maskUnits="userSpaceOnUse" width="166" x="0" y="0"><path d="m166 48h-166v-48h166z" fill="#fff" fill-rule="evenodd"/></mask><g mask="url(#a)"><path d="m121.69 48h-.15a1.72 1.72 0 0 1 -1.36-.87c-1.39-2.52-2.74-5.32-4.16-8.29-3.21-6.67-6.79-14.15-11.5-19-1.72 3.1-4.28 7-7.83 7.75-3.75.77-7.41-2.13-10.36-4.46a24.38 24.38 0 0 0 -2.92-2.13c-4.21-2.26-7-2.55-10.76-1.11-1.09.42-2.06.82-3 1.19-4.71 1.94-7.82 3.23-14.85 2a61.65 61.65 0 0 1 -11.37-3.44 55.6 55.6 0 0 0 -11.32-3.37 44.76 44.76 0 0 0 -10.79 0 67.14 67.14 0 0 1 -7.67.33 43.9 43.9 0 0 1 -8.46-1.34c-1.81-.41-3.52-.79-5.23-1l.51-3.26c1.86.21 3.73.63 5.53 1a40.56 40.56 0 0 0 7.79 1.25 63.68 63.68 0 0 0 7.28-.25 47.92 47.92 0 0 1 11.6 0 58.61 58.61 0 0 1 12 3.55 57.36 57.36 0 0 0 10.73 3.27c6 1 8.35.06 12.94-1.83.92-.38 1.92-.79 3-1.22 5.45-2.1 9.4-1 13.67 1.29a25 25 0 0 1 3.42 2.44c2.39 1.89 5.35 4.23 7.49 3.79 2.62-.54 5-5.12 6.35-7.59l.21-.39a1.73 1.73 0 0 1 2.64-.5c6.07 5.13 10.26 13.87 14 21.58.88 1.83 1.73 3.59 2.57 5.25 1.26-3.85 1.19-9.71 1.13-14.62a72.41 72.41 0 0 1 .13-7.42c.68-7.15 1.32-13.15 2.22-19.17a1.7 1.7 0 0 1 1.21-1.36 1.74 1.74 0 0 1 1.78.5c4.73 5.28 11.23 9.55 17.52 13.68 7.51 4.94 15.28 10.05 20.32 17l-2.8 2c-4.67-6.46-11.84-11.17-19.43-16.17-5.45-3.58-11.05-7.26-15.69-11.68-.64 4.84-1.16 9.82-1.72 15.56-.17 1.87-.14 4.39-.11 7.06.09 7.12.19 15.2-3.22 19.38a1.73 1.73 0 0 1 -1.34.63" fill="#fd4637" fill-rule="evenodd"/></g></svg>