<svg height="1096" viewBox="0 0 720 1096" width="720" xmlns="http://www.w3.org/2000/svg" xmlns:xlink="http://www.w3.org/1999/xlink"><mask id="a" fill="#fff"><path d="m0 .37261903h1401.90278v1095.07750097h-1401.90278z" fill="#fff" fill-rule="evenodd"/></mask><g fill="#fff" fill-rule="evenodd" transform="translate(-682)"><path d="m1177.78741 980.353222c-6.84136 39.042508-40.69663 67.552748-80.31162 67.552748h-939.510686c-50.674736 0-89.0728814-45.75717-80.3116143-95.738085l146.4537733-836.67942c6.841359-39.0695873 40.723667-67.5527518 80.311615-67.5527518h939.510692c50.67473 0 89.07288 45.7571749 80.33865 95.7380888zm-986.102244-979.98872554-191.69327828 1095.08562354h1210.21761228l191.69328-1095.08562354z" mask="url(#a)"/><path d="m943.61273 421.29759c-4.223515 24.038493-14.2679 41.054504-30.403894 47.077632-14.105458 5.996119-43.561769 7.994825-115.848856 7.994825h-287.117811l18.789227-106.147501h287.090738c92.159267.999353 95.191535.999353 105.885692 2.998059 20.197066 4.996765 26.586486 20.014071 21.604904 48.076985m-17.543832 241.35727c-4.954508 28.062915-14.646934 43.053211-32.948833 50.075692-16.298437 7.022481-16.298437 7.022481-137.941089 8.021834h-288.119543l19.65559-111.171277h288.119543c118.285499.999354 118.285499.999354 127.950851 2.99806 22.227602 5.023775 28.779465 19.014717 23.283481 50.075691m221.328442-275.416303c21.41539-121.191816-7.28286-163.245673-115.28031-171.267507-29.75412-1.998706-29.75412-1.998706-188.217162-2.97105h-480.830959l-118.068909 668h481.859765c225.037553-1.026363 236.273186-2.025716 276.721465-15.044315 62.75711-20.014071 96.51815-69.117419 113.33099-164.245027 18.95167-107.146854-1.27247-146.202652-86.96109-161.246967 70.66266-19.014718 100.63337-58.070516 117.44621-153.225134"/></g></svg>