<svg height="18" viewBox="0 0 180 18" width="180" xmlns="http://www.w3.org/2000/svg" xmlns:xlink="http://www.w3.org/1999/xlink"><mask id="a" fill="#fff"><path d="m0 .25875h179.900023v3.266125h-179.900023z" fill="#fff" fill-rule="evenodd"/></mask><g fill="#fd4637" fill-rule="evenodd"><path d="m129.564081 3.524875c-18.880611 0-36.4115175-.07375-53.3885866-.22-6.6613083-.0575-13.3204361-.15125-19.975203-.245-14.3648769-.20375-29.2159966-.4125-43.8120024-.23375-.8591016.01125-1.7509101.00625-2.6579819.0025-2.93708093-.015-5.950478-.0275-8.16364589.4625l-1.56775144-2.335c2.98505107-.6575 6.59371399-.64125 9.7662847-.6275.86346253.00125 1.71602283.0075 2.52933473-.0025 14.6941265-.18 29.5953968.03125 44.0104243.235 6.6438646.0925 13.2877292.18625 19.9337742.24375 31.0606663.26875 63.9878073.2925 103.6176863.06875l.043609 2.5c-18.010608.1-34.640984.15125-50.335942.15125" mask="url(#a)"/><path d="m141.919545 10.5c-28.983492-1.94752187-59.1082547-1.62769745-88.2423154-1.31886357-10.4852941.11100435-21.328463.22640491-31.9228653.23299923l-.0043643-2.19810595c10.550759-.00659431 21.3721063-.12199488 31.8355787-.23299923 29.297723-.31103199 59.5948763-.63305451 88.9144213 1.33864653z"/><path d="m95.0856591 17.25-56.0856591-1.2483306.1643409-2.5016694 56.0856591 1.2483306z"/></g></svg>