<svg height="16" viewBox="0 0 258 16" width="258" xmlns="http://www.w3.org/2000/svg" xmlns:xlink="http://www.w3.org/1999/xlink"><mask id="a" fill="#fff"><path d="m0 .207h257.895633v2.6129h-257.895633z" fill="#fff" fill-rule="evenodd"/></mask><g fill="#fd4637" fill-rule="evenodd"><path d="m185.736557 2.8199c-27.066297 0-52.197723-.059-76.535196-.176-9.5493168-.046-19.0955079-.121-28.6354473-.196-20.5927657-.163-41.8825846-.33-62.8066851-.187-1.2315649.009-2.5100168.005-3.8103493.002-4.21045162-.012-8.53030624-.022-11.70299251.37l-2.24744969-1.868c4.27921922-.526 9.45241704-.513 14.000455-.502 1.2378165.001 2.460004.006 3.6259272-.002 21.0647614-.144 42.4264737.025 63.0911328.188 9.5243104.074 19.0486208.149 28.5760569.195 44.527011.215 91.729706.234 148.541108.055l.062516 2c-25.819102.08-49.659573.121-72.159076.121" mask="url(#a)"/><path d="m204.173182 9c-41.284974-1.5580175-84.195609-1.30215796-125.6950578-1.05509086-14.9355743.08880349-30.3809163.18112394-45.4719075.18639939l-.0062167-1.75848476c15.0288244-.00527545 30.443083-.0975959 45.3475739-.18639938 41.7325741-.2488256 84.8887681-.50644361 126.6524261 1.07091721z"/><path d="m134.766271 16-79.766271-.9986644.2337293-2.0013356 79.7662707.9986644z"/></g></svg>