<svg height="50" viewBox="0 0 83 88" width="50" xmlns="http://www.w3.org/2000/svg"><path d="m24.0810984 51.3668777c.9149155-1.7807477 3.0578373-2.5186051 4.8636921-1.7108793l.185546.0890919 27.6445735 14.2032749c1.8421529.9464644 2.5682519 3.2070853 1.6217875 5.0492381-.9149155 1.7807478-3.0578374 2.5186052-4.8636921 1.7108793l-.185546-.0890918-27.6445735-14.203275c-1.8421529-.9464643-2.5682519-3.2070852-1.6217875-5.0492381z"/><path d="m53.2578655 18.0455104c1.8158782-.9959457 4.095312-.331259 5.0912577 1.4846193.9627476 1.755349.3737264 3.9438648-1.3068876 4.9874496l-.1777316.1038082-27.6445736 15.1620816c-1.8158783.9959457-4.095312.331259-5.0912577-1.4846193-.9627476-1.755349-.3737264-3.9438648 1.3068875-4.9874496l.1777317-.1038081z"/><path d="m55.8888023 4.52223516c-6.1024664 6.04809794-6.1024664 15.86395204 0 21.91204994 6.0838494 6.0296469 15.92983 6.0296469 22.0136794 0 6.1024664-6.0480979 6.1024664-15.863952 0-21.91204994-6.0838494-6.02964688-15.92983-6.02964688-22.0136794 0zm16.7341614 5.32697747c3.1418237 3.11383247 3.1418237 8.14426257 0 11.25809497-3.1604407 3.1322835-8.2942027 3.1322835-11.4546434 0-3.1418237-3.1138324-3.1418237-8.1442625 0-11.25809497 3.1604407-3.13228351 8.2942027-3.13228351 11.4546434 0z"/><path d="m55.8888023 60.9544757c-6.1024664 6.0480979-6.1024664 15.863952 0 21.9120499 6.0838494 6.0296469 15.92983 6.0296469 22.0136794 0 6.1024664-6.0480979 6.1024664-15.863952 0-21.9120499-6.0838494-6.0296469-15.92983-6.0296469-22.0136794 0zm16.7341614 5.3269775c3.1418237 3.1138324 3.1418237 8.1442625 0 11.258095-3.1604407 3.1322835-8.2942027 3.1322835-11.4546434 0-3.1418237-3.1138325-3.1418237-8.1442626 0-11.258095 3.1604407-3.1322835 8.2942027-3.1322835 11.4546434 0z"/><path d="m4.57684976 33.8320418c-6.10246635 6.048098-6.10246635 15.8639521 0 21.91205 6.08384944 6.0296469 15.92983004 6.0296469 22.01367944 0 6.1024664-6.0480979 6.1024664-15.863952 0-21.91205-6.0838494-6.0296468-15.92983-6.0296468-22.01367944 0zm16.73416134 5.3269775c3.1418238 3.1138325 3.1418238 8.1442626 0 11.258095-3.1604406 3.1322835-8.2942026 3.1322835-11.45464327 0-3.14182377-3.1138324-3.14182377-8.1442625 0-11.258095 3.09319727-3.0656392 8.07663797-3.1308655 11.25027117-.1956791z"/></svg>