<svg height="30" viewBox="0 0 83 106" width="30" xmlns="http://www.w3.org/2000/svg"><path d="m68.8762684 23h-54.7525368c-7.80101518 0-14.1237316 6.3227164-14.1237316 14.1237316v54.7525368c0 7.8001373 6.32304518 14.1237316 14.1237316 14.1237316h54.7525368c7.8006864 0 14.1237316-6.3235943 14.1237316-14.1237316v-54.7525368c0-7.8010152-6.3227164-14.1237316-14.1237316-14.1237316zm-54.1494195 9.7647059h53.5463022c2.7411942 0 4.962143 2.2209488 4.962143 4.962143v53.5463022c0 2.7405078-2.2214423 4.962143-4.962143 4.962143h-53.5463022c-2.7407007 0-4.96214302-2.2216352-4.96214302-4.962143v-53.5463022c0-2.7411942 2.22094882-4.962143 4.96214302-4.962143z"/><path d="m40.9928756 0c13.2956798 0 21.8075082 8.51750059 22.00366 19.5833798l.0034644.3916089v23.0250113h-9.1538702v-23.0250113c0-5.7885462-4.3726111-10.24501434-12.8532542-10.24501434-5.390871 0-8.5896146 1.52700634-10.417369 3.94127274-.8692983 1.1482492-1.2826237 2.2709054-1.4060092 2.9149736l-.0161154.0932905.0004882 26.3204888h-9.1538702v-26.8500716l.0199848-.2265707c.0622645-.7059005.2433593-1.6914128.6108209-2.8723594.5837823-1.876157 1.4964302-3.74052713 2.813145-5.47976536 3.6195612-4.78104964 9.4643836-7.57123294 17.5489249-7.57123294z"/></svg>