<svg height="1061" viewBox="0 0 725 1061" width="725" xmlns="http://www.w3.org/2000/svg" xmlns:xlink="http://www.w3.org/1999/xlink"><mask id="a" fill="#fff"><path d="m0 .66904778h127.909762v385.06900622h-127.909762z" fill="#fff" fill-rule="evenodd"/></mask><g fill="#fff" fill-rule="evenodd"><path d="m233.5 150 23.262727 70.657488h75.237273l-60.86326 43.66715 23.244624 70.675362-60.881364-43.685024-60.881364 43.685024 23.262728-70.675362-60.881364-43.66715h75.255376z"/><path d="m404.509052 0-23.264865 70.6753623h-75.244187l60.868854 43.6671497-23.24676 70.657488 60.886958-43.685024 60.868854 43.685024-23.24676-70.657488 60.868854-43.6671497h-75.262292z"/><path d="m572.5 150 23.262727 70.657488h75.237273l-60.86326 43.66715 23.244624 70.675362-60.881364-43.685024-60.881364 43.685024 23.262728-70.675362-60.881364-43.66715h75.255376z"/><path d="m743.5 0-23.244624 70.6753623h-75.255376l60.86326 43.6671497-23.22652 70.657488 60.86326-43.685024 60.86326 43.685024-23.244624-70.657488 60.881364-43.6671497h-75.255376z"/><g transform="translate(0 463)"><path d="m127.909762.66904778h-127.3022731c-.32447478 8.09210821-.61289681 16.18421642-.61289681 24.36643722 0 136.718781 47.96818861 262.191515 127.91516991 360.702569z" mask="url(#a)"/><path d="m382.480058 565.404484v-564.73543622h-127.91517v500.68342522c39.441712 26.421004 82.380542 47.993952 127.91517 64.052011"/><path d="m637.039537 594.355848v-593.67959121h-127.915169v593.67959121c21.018755 2.342927 42.325932 3.640547 63.957585 3.640547 21.631652 0 42.956855-1.29762 63.957584-3.640547"/></g></g></svg>