<svg height="815" viewBox="0 0 697 815" width="697" xmlns="http://www.w3.org/2000/svg" xmlns:xlink="http://www.w3.org/1999/xlink"><mask id="a" fill="#fff"><path d="m.00705.84236364h91.838v112.27104536h-91.838z" fill="#fff" fill-rule="evenodd"/></mask><mask id="b" fill="#fff"><path d="m.22206667.00269091h92.19559823v120.99730909h-92.19559823z" fill="#fff" fill-rule="evenodd"/></mask><g fill="#fff" fill-rule="evenodd" opacity=".555408"><path d="m25.805938 395.542865c-1.4583191.923993-3.445867 2.970811-4.3396755 4.8071l.5174681 31.029767 25.1442442-.409364-.5057075-31.029767c-.0117606-.549717-2.6343829-3.602401-4.4925637-4.666746zm27.7551058-19.263485c2.599101 1.59067 8.220686 7.169712 10.0906274 9.696071 2.9989627 3.96498 4.3631967 8.865648 4.4337606 13.625963l.517468 31.018071 42.0325202-.69007.36458 22.281081-110.12661469 1.789504-.87028721-53.310848c-.08232447-4.549785 1.48184039-10.245789 3.99861693-13.742924 1.96402656-2.596536 7.57385087-8.163882 9.91421787-10.023563 3.281218-2.43279 8.0325158-3.590704 12.0664146-3.660881l15.5946061-.257314c4.4102393-.081873 8.4676594.959081 11.9840902 3.27491z"/><path d="m110.886606 363-105.886606-30.5957 20.1251635-69.4043 20.6430039 5.968746-13.8993088 47.914464 21.7139921 6.262484 13.4285448-46.328281 20.6430039 5.968746-13.4285447 46.328281 22.2318326 6.426977 13.8875397-47.926213 20.654773 5.968746z"/><path d="m96.9947825 185.06783c-1.7318859-.04688-4.5476732.503961-6.3266852 1.523603l-17.3306404 25.854366 20.9593537 13.899945 17.3188584-25.866086c.318102-.457081-.106033-4.453608-1.024993-6.375691zm33.8954805-.15236c1.22528 2.789365 2.662628 10.548019 2.745098 13.688985.106034 1.840043-.08247 3.445686-.294538 5.074769 18.756206 1.664243 49.659177 4.359848 49.659177 4.359848l-13.87865 20.697556-47.14971-5.133369-9.790457 14.614866 35.026509 23.229082-12.441303 18.552793-91.766389-60.850349 29.7719431-44.430599c2.5448119-3.797287 7.0924851-7.606294 11.1688968-9.071296 3.0985441-1.007922 10.8979214-2.437765 13.9139947-2.637005 4.0881934-.16408 8.6712114 1.570483 12.0407304 3.797287l12.995035 8.625935c3.664058 2.437765 6.420937 5.57873 7.999663 9.481497z"/><path d="m150.769373 118.063481 14.138228 17.524612 36.644697-29.751905 13.447702 16.67892-36.644696 29.763651 27.937045 34.626379-17.32167 14.094862-68.970679-85.544069 55.944314-45.455931 13.459407 16.6906662z"/><path d="m282.293643 48.4764914c-2.0025-1.584311-6.537574-3.5558981-8.646089-3.9079672l-25.172602 9.8109928c-.965912 1.5491041-2.874177 5.2458299-3.792971 8.9425556l20.095676 51.1908504c2.885956 1.819024 6.938074 3.591105 8.634309 3.907967l25.172603-9.810993c.977691-1.549104 2.921294-5.644841 3.851867-8.7782566zm42.288087 54.9345186c-1.095485 3.767139-4.723544 13.63681-7.621279 17.310065-2.238088 2.840024-5.925044 6.055589-10.024279 7.651635l-26.0325 10.139591c-4.275926 1.666461-8.999471 1.736874-12.580412 1.161828-4.629308-.751081-14.194191-5.480542-17.386411-7.581221-3.498486-2.370599-5.654118-5.856084-7.067647-9.447189l-20.142794-51.3551486c-1.484206-3.7554039-2.261647-7.7807276-1.307515-11.876465.977691-3.5324268 4.782441-13.4842473 7.680177-17.1575018 2.238088-2.8400242 5.748352-5.9734394 10.024279-7.6516355l26.0325-10.1278551c4.111014-1.6077823 8.99947-1.7368743 12.568632-1.1735637 4.652867.7510808 14.041058 5.5509565 17.327514 7.4169228 3.510265 2.3705987 5.654118 5.8678187 7.126544 9.6232226l20.154574 51.3551491c1.413529 3.5793694 2.20275 7.5929573 1.248617 11.7121662z"/><path d="m59.48555 26.4254091c-.987-1.419-3.09025-3.3422727-4.97025-4.1631818l-31.161 1.4659091 1.18675 25.0377272 31.14925-1.4541818c.55225-.0234545 3.5485-2.7324545 4.559-4.6088182zm20.19825 27.09c-1.53925 2.6386364-6.956 8.385-9.43525 10.3434545-1.41 1.1727273-2.8435 1.9701819-4.277 2.7676364 9.76425 16.0311818 25.8735 42.405818 25.8735 42.405818l-24.92175 1.172727-23.782-40.8578177-17.6015.8209091 1.9975 41.8898186-22.372 1.055454-5.15825-109.74381809 53.486-2.50963636c4.59425-.21109091 10.34 1.161 13.959 3.55336363 2.6555 1.89981818 8.42475 7.30609092 10.3635 9.60463632 2.52625 3.178091 3.86575 7.8807273 4.05375 11.9031819l.7285 15.5386363c.2115 4.3977273-.705 8.4788182-2.914 12.0556364z" mask="url(#a)" transform="translate(341)"/><path d="m512.426899 130.39942 19.410883-63.3585033c-9.869345 10.9774343-20.066498 21.8489771-29.889014 32.6499253l-13.95523-4.3415576-6.322001-43.6391255-19.352346 63.1820181-21.319191-6.60058 32.265618-105.291597 23.250913 7.1771007 8.757141 54.9812978c12.51522-13.4247081 25.206051-27.3553429 37.662733-40.5917991l23.063595 7.1300377-32.277325 105.3033629z"/><path d="m626.573227 106.112588c-10.335314 6.933832-20.929895 13.891249-31.288779 20.813289l19.763195 15.035096zm-26.06809 78.406551 6.941277-21.296771-30.605258-23.277866c-6.022058 3.973982-12.774778 8.313523-18.785052 12.287505l-19.056104-14.469068 97.236805-64.762939 19.763195 15.0468882-36.462329 110.9531118z"/><path d="m655.634373 250.318867 33.314257-66.132389-53.347354 36.643307-12.601276-18.527912 90.670574-62.301873 12.906051 18.99936-34.263748 66.344541 54.085847-37.173686 12.601276 18.539698-90.670574 62.290087z"/><path d="m768.025875 319.455205c4.127302-3.686038 6.509345-6.675037 8.431488-12.617593l-6.391422-22.139858c-1.757051-1.417707-6.131991-3.981394-9.080063-4.867461l-52.676162 15.275793c-.188677.047257-3.313634 3.839624-4.551825 8.813412l6.509345 22.494286c3.525895 3.000813 8.065927 4.761132 13.207365 5.954369l.884422 21.631847c-4.882008-.318984-9.209779-1.358636-13.065858-2.7409-7.228674-2.51643-18.655404-8.222701-21.768568-19.020903l-6.709814-23.214953c-1.23819-4.253121-.919798-9.132396-.011792-12.66485 1.226398-4.383077 6.356045-13.161047 8.985725-16.622615 2.759396-3.095327 6.568306-5.162816 10.105993-6.190654l53.584169-15.523892c3.879664-1.134166 7.806496-1.500407 11.815875-.177214 3.431557 1.311379 12.853597 6.072512 16.520999 9.427752 2.41742 2.37466 5.459831 6.285168 6.674437 10.538289l6.709813 23.203139c3.113165 10.810016-3.549479 21.572776-8.148473 27.527145-3.077787 3.957766-6.285291 6.804994-9.587132 9.297796z"/><path d="m56.8066615 619.313474 38.7745684-63.249457-56.4572816 32.197148-11.1239483-19.509489 95.963223-54.751676 11.395264 19.993391-39.7536644 63.402889 57.2712294-32.669248 11.123948 19.521292-95.9750195 54.751676z"/><path d="m166.185506 717.653156c-3.713818.811418-14.185374 1.940349-18.792389.976054-3.666807-.870217-8.027018-2.634171-11.282485-5.597613l-19.368265-17.710095c-3.384745-3.104559-5.523716-7.302769-6.581449-10.748358-1.375053-4.492203-1.339795-15.158243-.857939-18.944863.587629-4.174691 2.773611-7.667319 5.370933-10.501405l55.848299-61.126876 16.512386 15.122963-55.707268 60.974c-.223299 3.527908-.152784 8.067149.305567 9.737025l18.557337 16.969235c1.704125.317511 5.982068.246953 9.449081-.552706l55.836547-61.115116 16.524139 15.111203-55.824794 61.115117c-2.609075 2.845845-5.864542 5.32714-9.9897 6.291435"/><path d="m275.188241 696.820164-37.829984 80.179836-20.358257-9.663483 37.829984-80.179836-26.811884-12.712011 9.164149-19.44467 73.817751 35.052195-9.164149 19.409358z"/><path d="m70.0525111 33.8124182c-.7066667-1.5831818-2.4144444-3.8582727-4.1104444-5.031l-30.9402223-4.4094546-3.5568888 24.8266364 30.9284444 4.4094545c.5535556.0703637 4.0044444-2.0170909 5.3706667-3.6706363zm14.7575556 30.3970909c-2.0022223 2.2985454-8.4211111 6.9425454-11.236 8.385-1.6135556.8678182-3.18 1.3838182-4.7346667 1.9115454 6.572 17.5791819 17.4664444 46.4986365 17.4664444 46.4986365l-24.7568888-3.529909-15.688-44.5870911-17.4664445-2.4979091-5.9713333 41.4910912-22.20111113-3.154637 15.62911113-108.72354509 53.1413333 7.58754545c4.558.645 9.964 3.08427274 13.0497778 6.09818184 2.2613333 2.3689091 6.9135555 8.7602727 8.3975555 11.3754545 1.8962223 3.6002728 2.3202223 8.4670909 1.7313334 12.4543637l-2.226 15.3979091c-.6124445 4.3508181-2.2731111 8.1856363-5.1351111 11.2933636z" mask="url(#b)" transform="translate(302 694)"/><path d="m422.76087 814-8.76087-110.171091 22.25075-1.828909 8.74925 110.171091z"/><path d="m503.56815 708.971981 25.724618 84.537733-21.72879 6.490286-25.724618-84.526018-28.609179 8.540467-6.230181-20.46666 78.769819-23.547789 6.230181 20.478375z"/><path d="m588.285186 770-53.285186-96.077083 19.714814-10.922917 53.285186 96.088816z"/><path d="m634.973254 636.588027c-2.414069-.76168-7.32424-1.019479-9.433622-.609344l-19.921935 18.057655c-.339845 1.804594-.808596 5.917661-.339845 9.690902l36.832143 40.673667c3.351572.69137 7.734398.890578 9.433622.597625l19.921935-18.045937c.351564-1.804593.703127-6.316078.457033-9.573721zm58.816584 36.314518c.316407 3.90214.457033 14.389876-.937503 18.854488-1.078128 3.445133-3.37501 7.722255-6.621113 10.675226l-20.613344 18.666998c-3.386729 3.070153-7.734398 4.79272-11.273471 5.530963-4.570327.937451-15.140671-.105464-18.855526-.937452-4.089856-.972605-7.33596-3.456851-9.914092-6.316077l-36.972768-40.802566c-2.695321-2.976408-4.851577-6.456696-5.414079-10.628354-.339845-3.644342-.339845-14.260977 1.042972-18.725589 1.089847-3.445133 3.222666-7.605073 6.621114-10.675226l20.613343-18.666998c3.246104-2.952972 7.734398-4.79272 11.273472-5.519244 4.582045-.94917 15.000045.222644 18.750056.785115 4.078137.984324 7.324241 3.480288 10.019562 6.468414l36.972767 40.790848c2.566414 2.847508 4.746108 6.327795 5.30861 10.499454z"/><path d="m765.73645 596.551887-74.127136-1.332547 56.353135 32.31132-11.157402 19.46934-95.805047-54.929245 11.464053-19.95283 74.728645 2.122641-57.155147-32.771226 11.169196-19.46934 95.793253 54.929245z"/><path d="m466.111174 353.904089c-3.166844-.606691-4.058252-.606691-31.398676-.904089h-85.152927l-5.559571 32h85.152927c21.42898 0 30.167125-.606691 34.354397-2.41487 4.785454-1.808178 7.752904-6.935316 9.019642-14.179926 1.466132-8.457992-.422246-12.990334-6.415792-14.501115"/><path d="m460.538874 425.889993c-2.880471-.597232-2.880471-.597232-38.033968-.889993h-85.661666l-5.84324 33h85.661666c36.152844-.304471 36.152844-.304471 40.996737-2.388928 5.443502-2.072747 8.323972-6.534422 9.7936-14.848829 1.634226-9.227821-.305683-13.385025-6.913129-14.87225"/><path d="m533.670692 357.946167c-4.999775 28.334942-13.928786 39.953208-34.927843 45.627245 25.481209 4.475793 31.492703 16.094059 25.857662 48.011985-4.988011 28.323194-15.046383 42.93707-33.716133 48.893046-12.022989 3.876671-15.364016 4.170359-82.302186 4.475793h-143.334739l35.11607-198.884977h143.02887c47.127296.293687 47.127296.293687 55.985722.881061 32.116204 2.384741 40.668761 14.919311 34.292577 50.995847m33.045575-100.946167h-279.810963c-11.799471 0-21.881371 8.469939-23.916573 20.06471l-43.621571 248.518116c-2.588119 14.82533 8.834897 28.417174 23.916573 28.417174h279.810963c11.799471 0 21.881371-8.446444 23.916573-20.06471l43.621571-248.494621c2.588119-14.848825-8.834897-28.440669-23.916573-28.440669"/></g></svg>