<svg height="30" viewBox="0 0 74 88" width="30" xmlns="http://www.w3.org/2000/svg"><g transform="translate(4.5 4.5)"><path d="m33.6654595-3.75c-15.1579706 0-27.4154595 12.50635502-27.4154595 27.8959437 0 15.3895888 12.2574889 27.8959438 27.4154595 27.8959438 15.1579705 0 27.4154594-12.506355 27.4154594-27.8959438 0-15.38958868-12.2574889-27.8959437-27.4154594-27.8959437zm0 7.5c10.9817185 0 19.9154594 9.1151243 19.9154594 20.3959437 0 11.2808195-8.9337409 20.3959438-19.9154594 20.3959438-10.9817186 0-19.9154595-9.1151243-19.9154595-20.3959438 0-11.2808194 8.9337409-20.3959437 19.9154595-20.3959437z"/><path d="m32.4126003 46.25c19.7878754 0 35.8368407 16.1735757 36.1558412 36.2122756l.0048395.6084038h-7.5c0-16.2100124-12.8492499-29.3206794-28.6606807-29.3206794-15.6549578 0-28.40531371 12.8495008-28.65875533 28.8353109l-.00384497.4853685h-7.5c0-20.319051 16.1732596-36.8206794 36.1626003-36.8206794z"/></g></svg>