<svg height="260pt" preserveAspectRatio="xMidYMid meet" viewBox="0 0 260 260" width="260pt" xmlns="http://www.w3.org/2000/svg"><g transform="matrix(.1 0 0 -.1 0 260)"><path d="m627 1973c-9-54-33-197-52-318-20-121-46-287-60-370-70-432-95-587-105-650-6-38-13-78-16-87-5-17 37-18 780-18h784l6 28c6 29 38 223 85 522 54 338 151 935 157 963l6 27h-784-785zm1423 14c14-7 34-29 44-49 20-36 20-36-2-169-12-74-56-345-97-604-42-259-79-480-82-493-3-12-19-33-35-47l-30-25h-642c-630 0-644 0-669 20-53 42-53 51 18 490 36 223 79 491 96 595 36 231 42 251 83 276 30 18 57 19 661 19 486 0 636-3 655-13z"/><path d="m865 1758c-4-12-46-270-115-703-16-104-32-198-34-208-4-17 17-18 472-15 524 3 504 1 575 67 49 47 81 144 81 253 1 88-18 126-72 143-33 9-43 25-18 25s78 52 97 95c10 22 23 80 30 128 21 145-10 198-126 217-94 15-885 13-890-2zm741-230c19-19 14-71-10-104-13-18-31-19-275-22-297-3-271-13-250 92l12 57 253-3c220-3 255-5 270-20zm-22-334c19-18 19-27 6-76-6-21-19-42-30-48s-126-10-290-10h-272l6 28c3 15 8 45 12 67s9 43 11 48c2 4 125 7 273 7 231 0 271-2 284-16z"/></g></svg>